{
.appVersion = "1161";
copyright = "Copyright 2018 The Charm Project Authors (https://github.com/cadsondemak/Sarabun)";
customParameters = (
{
name = vendorID;
value = CDK;
},
{
name = license;
value = "This Font Software is licensed under the SIL Open Font License, Version 1.1. This license is available with a FAQ at: http://scripts.sil.org/OFL";
},
{
name = licenseURL;
value = "http://scripts.sil.org/OFL";
},
{
name = fsType;
value = (
);
},
{
name = "Use Typo Metrics";
value = 1;
},
{
name = "Disable Last Change";
value = 1;
},
{
name = "Use Line Breaks";
value = 1;
}
);
date = "2018-07-24 10:11:42 +0000";
designer = "Katatrad Aksorn Co.,Ltd.";
designerURL = "http://www.katatrad.com";
familyName = Charm;
featurePrefixes = (
{
automatic = 1;
code = "languagesystem DFLT dflt;
languagesystem latn dflt;
languagesystem thai dflt;
languagesystem latn ROM;
languagesystem latn MOL;
languagesystem latn CAT;
";
name = Languagesystems;
}
);
features = (
{
automatic = 1;
code = "feature locl;
feature subs;
feature sups;
feature frac;
feature ordn;
feature sinf;
";
name = aalt;
},
{
code = "lookup latn_decomb {
	script latn;
@CombiningTopAccents = [acutecomb brevecomb caroncomb circumflexcomb dieresiscomb dotaccentcomb gravecomb hookabovecomb hungarumlautcomb macroncomb ringcomb tildecomb];
@CombiningNonTopAccents = [brevebelowcomb cedillacomb dieresisbelowcomb dotbelowcomb macronbelowcomb ogonekcomb horncomb];
	sub [i j]' @CombiningTopAccents by [idotless jdotless];
	sub [i j]' @CombiningNonTopAccents @CombiningTopAccents by [idotless jdotless];
} latn_decomb;

lookup thai_decomb {
	script thai;
	sub saraAm-thai by nikhahit-thai saraAa-thai;
} thai_decomb;

lookup thai_comb {
    script thai;
sub maiEk-thai nikhahit-thai by nikhahit_maiEk-thai;
sub maiTho-thai nikhahit-thai by nikhahit_maiTho-thai;
sub maiTri-thai nikhahit-thai by nikhahit_maiTri-thai;
sub maiChattawa-thai nikhahit-thai by nikhahit_maiChattawa-thai;

glyphs = (
{
glyphname = A;
layers = (
{
anchors = (
{
name = bottom;
position = "{189, 0}";
},
{
name = ogonek;
position = "{374, 8}";
},
{
name = top;
position = "{329, 560}";
}
);
background = {
anchors = (
{
name = bottom;
position = "{197, 0}";
},
{
name = ogonek;
position = "{382, 8}";
},
{
name = top;
position = "{337, 560}";
}
);
paths = (
{
closed = 1;
nodes = (
"389 -8 OFFCURVE",
"438 28 OFFCURVE",
"460 66 CURVE SMOOTH",
"465 76 OFFCURVE",
"467 83 OFFCURVE",
"467 88 CURVE SMOOTH",
"467 93 OFFCURVE",
"466 97 OFFCURVE",
"462 97 CURVE SMOOTH",
"452 97 OFFCURVE",
"430 71 OFFCURVE",
"405 71 CURVE SMOOTH",
"391 71 OFFCURVE",
"385 78 OFFCURVE",
"382 98 CURVE SMOOTH",
"378 126 OFFCURVE",
"372 175 OFFCURVE",
"372 262 CURVE SMOOTH",
"372 400 OFFCURVE",
"388 506 OFFCURVE",
"418 559 CURVE",
"418 560 LINE",
"404 555 OFFCURVE",
"386 551 OFFCURVE",
"362 551 CURVE SMOOTH",
"314 551 OFFCURVE",
"270 568 OFFCURVE",
"222 568 CURVE SMOOTH",
"135 568 OFFCURVE",
"72 519 OFFCURVE",
"56 457 CURVE SMOOTH",
"55 453 OFFCURVE",
"53 446 OFFCURVE",
"53 438 CURVE SMOOTH",
"53 431 OFFCURVE",
"56 428 OFFCURVE",
"60 428 CURVE SMOOTH",
"67 428 OFFCURVE",
"70 434 OFFCURVE",
"77 444 CURVE SMOOTH",
"103 486 OFFCURVE",
"146 509 OFFCURVE",
"198 509 CURVE SMOOTH",
"230 509 OFFCURVE",
"254 501 OFFCURVE",
"273 501 CURVE",
"273 500 LINE",
"206 446 OFFCURVE",
"177 362 OFFCURVE",
"141 257 CURVE SMOOTH",
"102 145 OFFCURVE",
"79 83 OFFCURVE",
"14 60 CURVE SMOOTH",
"3 57 OFFCURVE",
"-6 54 OFFCURVE",
"-10 52 CURVE SMOOTH",
"-24 45 OFFCURVE",
"-34 17 OFFCURVE",
"-34 8 CURVE SMOOTH",
"-34 3 OFFCURVE",
"-31 0 OFFCURVE",
"-27 0 CURVE SMOOTH",
"-19 0 OFFCURVE",
"2 13 OFFCURVE",
"22 13 CURVE SMOOTH",
"42 13 OFFCURVE",
"75 0 OFFCURVE",
"94 0 CURVE SMOOTH",
"114 0 OFFCURVE",
"137 12 OFFCURVE",
"155 40 CURVE SMOOTH",
"161 49 OFFCURVE",
"163 56 OFFCURVE",
"163 62 CURVE SMOOTH",
"163 66 OFFCURVE",
"162 69 OFFCURVE",
"158 69 CURVE SMOOTH",
"152 69 OFFCURVE",
"139 61 OFFCURVE",
"123 61 CURVE SMOOTH",
"114 61 OFFCURVE",
"105 64 OFFCURVE",
"99 66 CURVE",
"99 67 LINE",
"136 87 OFFCURVE",
"169 130 OFFCURVE",
"187 181 CURVE",
"271 181 LINE",
"287 189 LINE",
"288 148 OFFCURVE",
"289 90 OFFCURVE",
"298 48 CURVE SMOOTH",
"306 10 OFFCURVE",
"320 -8 OFFCURVE",
"348 -8 CURVE SMOOTH"
);
},
{
closed = 1;
nodes = (
"215 277 LINE SMOOTH",
"239 375 OFFCURVE",
"270 441 OFFCURVE",
"316 478 CURVE",
"317 478 LINE",
"298 410 OFFCURVE",
"290 345 OFFCURVE",
"287 248 CURVE",
"208 248 LINE"
);
}
);
};
layerId = "56450C88-1299-454A-B666-E6F9AF06B23F";
paths = (
{
closed = 1;
nodes = (
"381 -8 OFFCURVE",
"430 28 OFFCURVE",
"452 66 CURVE SMOOTH",
"457 76 OFFCURVE",
"459 83 OFFCURVE",
"459 88 CURVE SMOOTH",
"459 93 OFFCURVE",
"458 97 OFFCURVE",
"454 97 CURVE SMOOTH",
"444 97 OFFCURVE",
"422 71 OFFCURVE",
"397 71 CURVE SMOOTH",
"383 71 OFFCURVE",
"377 78 OFFCURVE",
"374 98 CURVE SMOOTH",
"370 126 OFFCURVE",
"364 175 OFFCURVE",
"364 262 CURVE SMOOTH",
"364 400 OFFCURVE",
"380 506 OFFCURVE",
"410 559 CURVE",
"410 560 LINE",
"396 555 OFFCURVE",
"378 551 OFFCURVE",
"354 551 CURVE SMOOTH",
"306 551 OFFCURVE",
"262 568 OFFCURVE",
"214 568 CURVE SMOOTH",
"127 568 OFFCURVE",
"64 519 OFFCURVE",
"48 457 CURVE SMOOTH",
"47 453 OFFCURVE",
"45 446 OFFCURVE",
"45 438 CURVE SMOOTH",
"45 431 OFFCURVE",
"48 428 OFFCURVE",
"52 428 CURVE SMOOTH",
"59 428 OFFCURVE",
"62 434 OFFCURVE",
"69 444 CURVE SMOOTH",
"95 486 OFFCURVE",
"138 509 OFFCURVE",
"190 509 CURVE SMOOTH",
"222 509 OFFCURVE",
"246 501 OFFCURVE",
"265 501 CURVE",
"265 500 LINE",
"198 446 OFFCURVE",
"169 362 OFFCURVE",
"133 257 CURVE SMOOTH",
"94 145 OFFCURVE",
"71 83 OFFCURVE",
"6 60 CURVE SMOOTH",
"-5 57 OFFCURVE",
"-14 54 OFFCURVE",
"-18 52 CURVE SMOOTH",
"-32 45 OFFCURVE",
"-42 17 OFFCURVE",
"-42 8 CURVE SMOOTH",
"-42 3 OFFCURVE",
"-39 0 OFFCURVE",
"-35 0 CURVE SMOOTH",
"-27 0 OFFCURVE",
"-6 13 OFFCURVE",
"14 13 CURVE SMOOTH",
"34 13 OFFCURVE",
"67 0 OFFCURVE",
"86 0 CURVE SMOOTH",
"106 0 OFFCURVE",
"129 12 OFFCURVE",
"147 40 CURVE SMOOTH",
"153 49 OFFCURVE",
"155 56 OFFCURVE",
"155 62 CURVE SMOOTH",
"155 66 OFFCURVE",
"154 69 OFFCURVE",
"150 69 CURVE SMOOTH",
"144 69 OFFCURVE",
"131 61 OFFCURVE",
"115 61 CURVE SMOOTH",
"106 61 OFFCURVE",
"97 64 OFFCURVE",
"91 66 CURVE",
"91 67 LINE",
"128 87 OFFCURVE",
"161 130 OFFCURVE",
"179 181 CURVE",
"263 181 LINE",
"279 189 LINE",
"280 148 OFFCURVE",
"281 90 OFFCURVE",
"290 48 CURVE SMOOTH",
"298 10 OFFCURVE",
"312 -8 OFFCURVE",
"340 -8 CURVE SMOOTH"
);
},
{
closed = 1;
nodes = (
"207 277 LINE SMOOTH",
"231 375 OFFCURVE",
"262 441 OFFCURVE",
"308 478 CURVE",
"309 478 LINE",
"290 410 OFFCURVE",
"282 345 OFFCURVE",
"279 248 CURVE",
"200 248 LINE"
);
}
);
width = 463;
},
{
anchors = (
{
name = bottom;
position = "{186, 0}";
},
{
name = ogonek;
position = "{382, 13}";
},
{
name = top;
position = "{337, 560}";
}
);
background = {
anchors = (
{
name = bottom;
position = "{186, 0}";
},
{
name = ogonek;
position = "{382, 13}";
},
{
name = top;
position = "{337, 560}";
}
);
paths = (
{
closed = 1;
nodes = (
"375 -8 OFFCURVE",
"414 22 OFFCURVE",
"434 58 CURVE SMOOTH",
"438 65 OFFCURVE",
"439 69 OFFCURVE",
"439 73 CURVE SMOOTH",
"439 76 OFFCURVE",
"437 77 OFFCURVE",
"434 77 CURVE SMOOTH",
"423 77 OFFCURVE",
"398 50 OFFCURVE",
"378 50 CURVE SMOOTH",
"360 50 OFFCURVE",
"355 69 OFFCURVE",
"353 97 CURVE SMOOTH",
"350 124 OFFCURVE",
"348 200 OFFCURVE",
"348 255 CURVE SMOOTH",
"348 412 OFFCURVE",
"367 512 OFFCURVE",
"394 559 CURVE",
"394 560 LINE",
"378 554 OFFCURVE",
"366 551 OFFCURVE",
"350 551 CURVE SMOOTH",
"310 551 OFFCURVE",
"263 568 OFFCURVE",
"218 568 CURVE SMOOTH",
"141 568 OFFCURVE",
"78 524 OFFCURVE",
"62 459 CURVE SMOOTH",
"61 455 OFFCURVE",
"61 452 OFFCURVE",
"61 451 CURVE SMOOTH",
"61 447 OFFCURVE",
"62 444 OFFCURVE",
"66 444 CURVE SMOOTH",
"70 444 OFFCURVE",
"73 448 OFFCURVE",
"79 457 CURVE SMOOTH",
"113 506 OFFCURVE",
"149 526 OFFCURVE",
"207 526 CURVE SMOOTH",
"246 526 OFFCURVE",
"264 519 OFFCURVE",
"286 516 CURVE",
"286 515 LINE",
"217 471 OFFCURVE",
"181 370 OFFCURVE",
"143 262 CURVE SMOOTH",
"110 167 OFFCURVE",
"75 70 OFFCURVE",
"8 44 CURVE SMOOTH",
"-3 40 OFFCURVE",
"-4 42 OFFCURVE",
"-12 38 CURVE SMOOTH",
"-24 32 OFFCURVE",
"-34 14 OFFCURVE",
"-34 4 CURVE SMOOTH",
"-34 1 OFFCURVE",
"-32 0 OFFCURVE",
"-30 0 CURVE SMOOTH",
"-20 0 OFFCURVE",
"-10 13 OFFCURVE",
"11 13 CURVE SMOOTH",
"31 13 OFFCURVE",
"50 0 OFFCURVE",
"70 0 CURVE SMOOTH",
"87 0 OFFCURVE",
"107 9 OFFCURVE",
"125 27 CURVE SMOOTH",
"133 36 OFFCURVE",
"136 41 OFFCURVE",
"136 46 CURVE SMOOTH",
"136 49 OFFCURVE",
"134 50 OFFCURVE",
"131 50 CURVE SMOOTH",
"123 50 OFFCURVE",
"114 42 OFFCURVE",
"94 42 CURVE SMOOTH",
"88 42 OFFCURVE",
"83 43 OFFCURVE",
"74 47 CURVE",
"74 48 LINE",
"112 74 OFFCURVE",
"146 129 OFFCURVE",
"169 190 CURVE",
"268 190 LINE",
"288 206 LINE",
"288 148 OFFCURVE",
"289 86 OFFCURVE",
"295 47 CURVE SMOOTH",
"300 18 OFFCURVE",
"311 -8 OFFCURVE",
"342 -8 CURVE SMOOTH"
);
},
{
closed = 1;
nodes = (
"193 266 LINE SMOOTH",
"242 413 OFFCURVE",
"278 485 OFFCURVE",
"321 504 CURVE",
"322 504 LINE",
"303 443 OFFCURVE",
"290 337 OFFCURVE",
"289 239 CURVE",
"184 239 LINE"
);
}
);
};
layerId = "0B1DFD06-3317-40CA-B510-4969A0718C16";
paths = (
{
closed = 1;
nodes = (
"375 -8 OFFCURVE",
"414 22 OFFCURVE",
"434 58 CURVE SMOOTH",
"438 65 OFFCURVE",
"439 69 OFFCURVE",
"439 73 CURVE SMOOTH",
"439 76 OFFCURVE",
"437 77 OFFCURVE",
"434 77 CURVE SMOOTH",
"423 77 OFFCURVE",
"398 50 OFFCURVE",
"378 50 CURVE SMOOTH",
"360 50 OFFCURVE",
"355 69 OFFCURVE",
"353 97 CURVE SMOOTH",
"350 124 OFFCURVE",
"348 200 OFFCURVE",
"348 255 CURVE SMOOTH",
"348 412 OFFCURVE",
"367 512 OFFCURVE",
"394 559 CURVE",
"394 560 LINE",
"378 554 OFFCURVE",
"366 551 OFFCURVE",
"350 551 CURVE SMOOTH",
"310 551 OFFCURVE",
"263 568 OFFCURVE",
"218 568 CURVE SMOOTH",
"141 568 OFFCURVE",
"78 524 OFFCURVE",
"62 459 CURVE SMOOTH",
"61 455 OFFCURVE",
"61 452 OFFCURVE",
"61 451 CURVE SMOOTH",
"61 447 OFFCURVE",
"62 444 OFFCURVE",
"66 444 CURVE SMOOTH",
"70 444 OFFCURVE",
"73 448 OFFCURVE",
"79 457 CURVE SMOOTH",
"113 506 OFFCURVE",
"149 526 OFFCURVE",
"207 526 CURVE SMOOTH",
"246 526 OFFCURVE",
"264 519 OFFCURVE",
"286 516 CURVE",
"286 515 LINE",
"217 471 OFFCURVE",
"181 370 OFFCURVE",
"143 262 CURVE SMOOTH",
"110 167 OFFCURVE",
"75 70 OFFCURVE",
"8 44 CURVE SMOOTH",
"-3 40 OFFCURVE",
"-4 42 OFFCURVE",
"-12 38 CURVE SMOOTH",
"-24 32 OFFCURVE",
"-34 14 OFFCURVE",
"-34 4 CURVE SMOOTH",
"-34 1 OFFCURVE",
"-32 0 OFFCURVE",
"-30 0 CURVE SMOOTH",
"-20 0 OFFCURVE",
"-10 13 OFFCURVE",
"11 13 CURVE SMOOTH",
"31 13 OFFCURVE",
"50 0 OFFCURVE",
"70 0 CURVE SMOOTH",
"87 0 OFFCURVE",
"107 9 OFFCURVE",
"125 27 CURVE SMOOTH",
"133 36 OFFCURVE",
"136 41 OFFCURVE",
"136 46 CURVE SMOOTH",
"136 49 OFFCURVE",
"134 50 OFFCURVE",
"131 50 CURVE SMOOTH",
"123 50 OFFCURVE",
"114 42 OFFCURVE",
"94 42 CURVE SMOOTH",
"88 42 OFFCURVE",
"83 43 OFFCURVE",
"74 47 CURVE",
"74 48 LINE",
"112 74 OFFCURVE",
"146 129 OFFCURVE",
"169 190 CURVE",
"268 190 LINE",
"288 206 LINE",
"288 148 OFFCURVE",
"289 86 OFFCURVE",
"295 47 CURVE SMOOTH",
"300 18 OFFCURVE",
"311 -8 OFFCURVE",
"342 -8 CURVE SMOOTH"
);
},
{
closed = 1;
nodes = (
"193 266 LINE SMOOTH",
"242 413 OFFCURVE",
"278 485 OFFCURVE",
"321 504 CURVE",
"322 504 LINE",
"303 443 OFFCURVE",
"290 337 OFFCURVE",
"289 239 CURVE",
"184 239 LINE"
);
}
);
width = 451;
}
);
leftKerningGroup = A;
note = A;
rightKerningGroup = A;
unicode = 0041;
},
{
glyphname = AE;
layers = (
{
anchors = (
{
name = bottom;
position = "{290, 0}";
},
{
name = top;
position = "{403, 560}";
}
);
background = {
anchors = (
{
name = bottom;
position = "{298, 0}";
},
{
name = top;
position = "{411, 560}";
}
);
paths = (
{
closed = 1;
nodes = (
"-16 0 OFFCURVE",
"2 13 OFFCURVE",
"22 13 CURVE SMOOTH",
"42 13 OFFCURVE",
"75 0 OFFCURVE",
"95 0 CURVE SMOOTH",
"115 0 OFFCURVE",
"138 13 OFFCURVE",
"155 40 CURVE SMOOTH",
"161 49 OFFCURVE",
"163 54 OFFCURVE",
"163 61 CURVE SMOOTH",
"163 65 OFFCURVE",
"162 69 OFFCURVE",
"158 69 CURVE SMOOTH",
"150 69 OFFCURVE",
"137 61 OFFCURVE",
"123 61 CURVE SMOOTH",
"114 61 OFFCURVE",
"105 64 OFFCURVE",
"99 66 CURVE",
"99 67 LINE",
"136 87 OFFCURVE",
"169 130 OFFCURVE",
"187 181 CURVE",
"290 181 LINE",
"306 187 LINE",
"317 248 LINE",
"210 248 LINE",
"215 274 LINE SMOOTH",
"240 386 OFFCURVE",
"287 482 OFFCURVE",
"350 490 CURVE",
"354 490 LINE",
"297 151 LINE SMOOTH",
"286 86 OFFCURVE",
"278 77 OFFCURVE",
"257 53 CURVE SMOOTH",
"243 38 OFFCURVE",
"236 22 OFFCURVE",
"236 10 CURVE SMOOTH",
"236 2 OFFCURVE",
"239 0 OFFCURVE",
"244 0 CURVE SMOOTH",
"256 0 OFFCURVE",
"268 14 OFFCURVE",
"303 14 CURVE SMOOTH",
"338 14 OFFCURVE",
"392 0 OFFCURVE",
"436 0 CURVE SMOOTH",
"520 0 OFFCURVE",
"581 50 OFFCURVE",
"581 91 CURVE SMOOTH",
"581 99 OFFCURVE",
"578 101 OFFCURVE",
"574 101 CURVE SMOOTH",
"570 101 OFFCURVE",
"566 99 OFFCURVE",
"555 93 CURVE SMOOTH",
"534 81 OFFCURVE",
"500 69 OFFCURVE",
"446 69 CURVE SMOOTH",
"408 69 OFFCURVE",
"385 74 OFFCURVE",
"367 77 CURVE",
"367 78 LINE",
"373 91 OFFCURVE",
"374 101 OFFCURVE",
"376 109 CURVE SMOOTH",
"402 260 LINE",
"429 260 LINE SMOOTH",
"466 260 OFFCURVE",
"498 250 OFFCURVE",
"512 250 CURVE SMOOTH",
"545 250 OFFCURVE",
"576 303 OFFCURVE",
"576 314 CURVE SMOOTH",
"576 318 OFFCURVE",
"574 322 OFFCURVE",
"568 322 CURVE SMOOTH",
"412 322 LINE",
"439 490 LINE",
"489 490 OFFCURVE",
"521 483 OFFCURVE",
"546 483 CURVE SMOOTH",
"617 483 OFFCURVE",
"653 534 OFFCURVE",
"653 559 CURVE SMOOTH",
"653 566 OFFCURVE",
"650 568 OFFCURVE",
"645 568 CURVE SMOOTH",
"630 568 OFFCURVE",
"615 552 OFFCURVE",
"546 552 CURVE SMOOTH",
"498 552 OFFCURVE",
"470 560 OFFCURVE",
"434 560 CURVE SMOOTH",
"398 560 OFFCURVE",
"383 551 OFFCURVE",
"352 551 CURVE SMOOTH",
"309 551 OFFCURVE",
"271 568 OFFCURVE",
"221 568 CURVE SMOOTH",
"140 568 OFFCURVE",
"76 525 OFFCURVE",
"56 457 CURVE SMOOTH",
"55 454 OFFCURVE",
"53 446 OFFCURVE",
"53 438 CURVE SMOOTH",
"53 431 OFFCURVE",
"56 428 OFFCURVE",
"60 428 CURVE SMOOTH",
"68 428 OFFCURVE",
"70 434 OFFCURVE",
"77 444 CURVE SMOOTH",
"103 486 OFFCURVE",
"146 509 OFFCURVE",
"198 509 CURVE SMOOTH",
"230 509 OFFCURVE",
"254 501 OFFCURVE",
"273 501 CURVE",
"273 500 LINE",
"206 446 OFFCURVE",
"177 362 OFFCURVE",
"141 257 CURVE SMOOTH",
"102 142 OFFCURVE",
"74 81 OFFCURVE",
"14 60 CURVE SMOOTH",
"6 58 OFFCURVE",
"-6 54 OFFCURVE",
"-10 52 CURVE SMOOTH",
"-24 45 OFFCURVE",
"-34 17 OFFCURVE",
"-34 8 CURVE SMOOTH",
"-34 3 OFFCURVE",
"-30 0 OFFCURVE",
"-26 0 CURVE SMOOTH"
);
}
);
};
layerId = "56450C88-1299-454A-B666-E6F9AF06B23F";
paths = (
{
closed = 1;
nodes = (
"-24 0 OFFCURVE",
"-6 13 OFFCURVE",
"14 13 CURVE SMOOTH",
"34 13 OFFCURVE",
"67 0 OFFCURVE",
"87 0 CURVE SMOOTH",
"107 0 OFFCURVE",
"130 13 OFFCURVE",
"147 40 CURVE SMOOTH",
"153 49 OFFCURVE",
"155 54 OFFCURVE",
"155 61 CURVE SMOOTH",
"155 65 OFFCURVE",
"154 69 OFFCURVE",
"150 69 CURVE SMOOTH",
"142 69 OFFCURVE",
"129 61 OFFCURVE",
"115 61 CURVE SMOOTH",
"106 61 OFFCURVE",
"97 64 OFFCURVE",
"91 66 CURVE",
"91 67 LINE",
"128 87 OFFCURVE",
"161 130 OFFCURVE",
"179 181 CURVE",
"282 181 LINE",
"298 187 LINE",
"309 248 LINE",
"202 248 LINE",
"207 274 LINE SMOOTH",
"232 386 OFFCURVE",
"279 482 OFFCURVE",
"342 490 CURVE",
"346 490 LINE",
"289 151 LINE SMOOTH",
"278 86 OFFCURVE",
"270 77 OFFCURVE",
"249 53 CURVE SMOOTH",
"235 38 OFFCURVE",
"228 22 OFFCURVE",
"228 10 CURVE SMOOTH",
"228 2 OFFCURVE",
"231 0 OFFCURVE",
"236 0 CURVE SMOOTH",
"248 0 OFFCURVE",
"260 14 OFFCURVE",
"295 14 CURVE SMOOTH",
"330 14 OFFCURVE",
"384 0 OFFCURVE",
"428 0 CURVE SMOOTH",
"512 0 OFFCURVE",
"573 50 OFFCURVE",
"573 91 CURVE SMOOTH",
"573 99 OFFCURVE",
"570 101 OFFCURVE",
"566 101 CURVE SMOOTH",
"562 101 OFFCURVE",
"558 99 OFFCURVE",
"547 93 CURVE SMOOTH",
"526 81 OFFCURVE",
"492 69 OFFCURVE",
"438 69 CURVE SMOOTH",
"400 69 OFFCURVE",
"377 74 OFFCURVE",
"359 77 CURVE",
"359 78 LINE",
"365 91 OFFCURVE",
"366 101 OFFCURVE",
"368 109 CURVE SMOOTH",
"394 260 LINE",
"421 260 LINE SMOOTH",
"458 260 OFFCURVE",
"490 250 OFFCURVE",
"504 250 CURVE SMOOTH",
"537 250 OFFCURVE",
"568 303 OFFCURVE",
"568 314 CURVE SMOOTH",
"568 318 OFFCURVE",
"566 322 OFFCURVE",
"560 322 CURVE SMOOTH",
"404 322 LINE",
"431 490 LINE",
"481 490 OFFCURVE",
"513 483 OFFCURVE",
"538 483 CURVE SMOOTH",
"609 483 OFFCURVE",
"645 534 OFFCURVE",
"645 559 CURVE SMOOTH",
"645 566 OFFCURVE",
"642 568 OFFCURVE",
"637 568 CURVE SMOOTH",
"622 568 OFFCURVE",
"607 552 OFFCURVE",
"538 552 CURVE SMOOTH",
"490 552 OFFCURVE",
"462 560 OFFCURVE",
"426 560 CURVE SMOOTH",
"390 560 OFFCURVE",
"375 551 OFFCURVE",
"344 551 CURVE SMOOTH",
"301 551 OFFCURVE",
"263 568 OFFCURVE",
"213 568 CURVE SMOOTH",
"132 568 OFFCURVE",
"68 525 OFFCURVE",
"48 457 CURVE SMOOTH",
"47 454 OFFCURVE",
"45 446 OFFCURVE",
"45 438 CURVE SMOOTH",
"45 431 OFFCURVE",
"48 428 OFFCURVE",
"52 428 CURVE SMOOTH",
"60 428 OFFCURVE",
"62 434 OFFCURVE",
"69 444 CURVE SMOOTH",
"95 486 OFFCURVE",
"138 509 OFFCURVE",
"190 509 CURVE SMOOTH",
"222 509 OFFCURVE",
"246 501 OFFCURVE",
"265 501 CURVE",
"265 500 LINE",
"198 446 OFFCURVE",
"169 362 OFFCURVE",
"133 257 CURVE SMOOTH",
"94 142 OFFCURVE",
"66 81 OFFCURVE",
"6 60 CURVE SMOOTH",
"-2 58 OFFCURVE",
"-14 54 OFFCURVE",
"-18 52 CURVE SMOOTH",
"-32 45 OFFCURVE",
"-42 17 OFFCURVE",
"-42 8 CURVE SMOOTH",
"-42 3 OFFCURVE",
"-38 0 OFFCURVE",
"-34 0 CURVE SMOOTH"
);
}
);
width = 619;
},
{
anchors = (
{
name = bottom;
position = "{309, 0}";
},
{
name = top;
position = "{399, 560}";
}
);
background = {
anchors = (
{
name = bottom;
position = "{309, 0}";
},
{
name = top;
position = "{399, 560}";
}
);
paths = (
{
closed = 1;
nodes = (
"-20 0 OFFCURVE",
"-10 13 OFFCURVE",
"10 13 CURVE SMOOTH",
"30 13 OFFCURVE",
"50 2 OFFCURVE",
"72 0 CURVE SMOOTH",
"92 -2 OFFCURVE",
"109 5 OFFCURVE",
"130 27 CURVE SMOOTH",
"138 36 OFFCURVE",
"141 41 OFFCURVE",
"141 46 CURVE SMOOTH",
"141 49 OFFCURVE",
"139 50 OFFCURVE",
"135 50 CURVE SMOOTH",
"127 50 OFFCURVE",
"119 42 OFFCURVE",
"99 42 CURVE SMOOTH",
"93 42 OFFCURVE",
"90 43 OFFCURVE",
"79 47 CURVE",
"79 48 LINE",
"117 74 OFFCURVE",
"153 129 OFFCURVE",
"175 190 CURVE",
"286 190 LINE",
"310 206 LINE",
"315 239 LINE",
"190 239 LINE",
"199 266 LINE SMOOTH",
"250 419 OFFCURVE",
"290 509 OFFCURVE",
"352 509 CURVE SMOOTH",
"356 509 LINE",
"296 141 LINE SMOOTH",
"285 72 OFFCURVE",
"278 63 OFFCURVE",
"252 39 CURVE SMOOTH",
"241 29 OFFCURVE",
"234 18 OFFCURVE",
"234 6 CURVE SMOOTH",
"234 2 OFFCURVE",
"234 0 OFFCURVE",
"238 0 CURVE SMOOTH",
"249 0 OFFCURVE",
"262 14 OFFCURVE",
"290 14 CURVE SMOOTH",
"316 14 OFFCURVE",
"378 0 OFFCURVE",
"416 0 CURVE SMOOTH",
"490 0 OFFCURVE",
"562 49 OFFCURVE",
"562 82 CURVE SMOOTH",
"562 86 OFFCURVE",
"561 90 OFFCURVE",
"557 90 CURVE SMOOTH",
"554 90 OFFCURVE",
"551 89 OFFCURVE",
"546 86 CURVE SMOOTH",
"514 65 OFFCURVE",
"470 51 OFFCURVE",
"419 51 CURVE SMOOTH",
"392 51 OFFCURVE",
"356 55 OFFCURVE",
"333 61 CURVE",
"333 62 LINE",
"340 70 OFFCURVE",
"348 89 OFFCURVE",
"351 108 CURVE SMOOTH",
"378 266 LINE",
"405 266 LINE SMOOTH",
"442 266 OFFCURVE",
"465 256 OFFCURVE",
"479 256 CURVE SMOOTH",
"510 256 OFFCURVE",
"543 300 OFFCURVE",
"543 310 CURVE SMOOTH",
"543 314 OFFCURVE",
"539 315 OFFCURVE",
"536 315 CURVE SMOOTH",
"385 315 LINE",
"416 510 LINE",
"446 510 OFFCURVE",
"490 504 OFFCURVE",
"520 504 CURVE SMOOTH",
"602 504 OFFCURVE",
"635 546 OFFCURVE",
"635 562 CURVE SMOOTH",
"635 566 OFFCURVE",
"634 568 OFFCURVE",
"629 568 CURVE SMOOTH",
"617 568 OFFCURVE",
"603 552 OFFCURVE",
"532 552 CURVE SMOOTH",
"482 552 OFFCURVE",
"439 560 OFFCURVE",
"417 560 CURVE SMOOTH",
"393 560 OFFCURVE",
"369 551 OFFCURVE",
"346 551 CURVE SMOOTH",
"314 551 OFFCURVE",
"262 568 OFFCURVE",
"218 568 CURVE SMOOTH",
"125 568 OFFCURVE",
"71 495 OFFCURVE",
"62 459 CURVE SMOOTH",
"62 456 OFFCURVE",
"62 454 OFFCURVE",
"62 451 CURVE SMOOTH",
"62 448 OFFCURVE",
"63 444 OFFCURVE",
"67 444 CURVE SMOOTH",
"70 444 OFFCURVE",
"74 447 OFFCURVE",
"80 457 CURVE SMOOTH",
"115 507 OFFCURVE",
"144 526 OFFCURVE",
"208 526 CURVE SMOOTH",
"249 526 OFFCURVE",
"258 518 OFFCURVE",
"286 516 CURVE",
"286 515 LINE",
"218 471 OFFCURVE",
"183 377 OFFCURVE",
"143 262 CURVE SMOOTH",
"110 168 OFFCURVE",
"74 68 OFFCURVE",
"8 44 CURVE SMOOTH",
"-3 40 OFFCURVE",
"-7 41 OFFCURVE",
"-12 38 CURVE SMOOTH",
"-22 34 OFFCURVE",
"-34 14 OFFCURVE",
"-34 4 CURVE SMOOTH",
"-34 1 OFFCURVE",
"-32 0 OFFCURVE",
"-30 0 CURVE SMOOTH"
);
}
);
};
layerId = "0B1DFD06-3317-40CA-B510-4969A0718C16";
paths = (
{
closed = 1;
nodes = (
"-20 0 OFFCURVE",
"-10 13 OFFCURVE",
"10 13 CURVE SMOOTH",
"30 13 OFFCURVE",
"50 2 OFFCURVE",
"72 0 CURVE SMOOTH",
"92 -2 OFFCURVE",
"109 5 OFFCURVE",
"130 27 CURVE SMOOTH",
"138 36 OFFCURVE",
"141 41 OFFCURVE",
"141 46 CURVE SMOOTH",
"141 49 OFFCURVE",
"139 50 OFFCURVE",
"135 50 CURVE SMOOTH",
"127 50 OFFCURVE",
"119 42 OFFCURVE",
"99 42 CURVE SMOOTH",
"93 42 OFFCURVE",
"90 43 OFFCURVE",
"79 47 CURVE",
"79 48 LINE",
"117 74 OFFCURVE",
"153 129 OFFCURVE",
"175 190 CURVE",
"286 190 LINE",
"310 206 LINE",
"315 239 LINE",
"190 239 LINE",
"199 266 LINE SMOOTH",
"250 419 OFFCURVE",
"290 509 OFFCURVE",
"352 509 CURVE SMOOTH",
"356 509 LINE",
"296 141 LINE SMOOTH",
"285 72 OFFCURVE",
"278 63 OFFCURVE",
"252 39 CURVE SMOOTH",
"241 29 OFFCURVE",
"234 18 OFFCURVE",
"234 6 CURVE SMOOTH",
"234 2 OFFCURVE",
"234 0 OFFCURVE",
"238 0 CURVE SMOOTH",
"249 0 OFFCURVE",
"262 14 OFFCURVE",
"290 14 CURVE SMOOTH",
"316 14 OFFCURVE",
"378 0 OFFCURVE",
"416 0 CURVE SMOOTH",
"490 0 OFFCURVE",
"562 49 OFFCURVE",
"562 82 CURVE SMOOTH",
"562 86 OFFCURVE",
"561 90 OFFCURVE",
"557 90 CURVE SMOOTH",
"554 90 OFFCURVE",
"551 89 OFFCURVE",
"546 86 CURVE SMOOTH",
"514 65 OFFCURVE",
"470 51 OFFCURVE",
"419 51 CURVE SMOOTH",
"392 51 OFFCURVE",
"356 55 OFFCURVE",
"333 61 CURVE",
"333 62 LINE",
"340 70 OFFCURVE",
"348 89 OFFCURVE",
"351 108 CURVE SMOOTH",
"378 266 LINE",
"405 266 LINE SMOOTH",
"442 266 OFFCURVE",
"465 256 OFFCURVE",
"479 256 CURVE SMOOTH",
"510 256 OFFCURVE",
"543 300 OFFCURVE",
"543 310 CURVE SMOOTH",
"543 314 OFFCURVE",
"539 315 OFFCURVE",
"536 315 CURVE SMOOTH",
"385 315 LINE",
"416 510 LINE",
"446 510 OFFCURVE",
"490 504 OFFCURVE",
"520 504 CURVE SMOOTH",
"602 504 OFFCURVE",
"635 546 OFFCURVE",
"635 562 CURVE SMOOTH",
"635 566 OFFCURVE",
"634 568 OFFCURVE",
"629 568 CURVE SMOOTH",
"617 568 OFFCURVE",
"603 552 OFFCURVE",
"532 552 CURVE SMOOTH",
"482 552 OFFCURVE",
"439 560 OFFCURVE",
"417 560 CURVE SMOOTH",
"393 560 OFFCURVE",
"369 551 OFFCURVE",
"346 551 CURVE SMOOTH",
"314 551 OFFCURVE",
"262 568 OFFCURVE",
"218 568 CURVE SMOOTH",
"125 568 OFFCURVE",
"71 495 OFFCURVE",
"62 459 CURVE SMOOTH",
"62 456 OFFCURVE",
"62 454 OFFCURVE",
"62 451 CURVE SMOOTH",
"62 448 OFFCURVE",
"63 444 OFFCURVE",
"67 444 CURVE SMOOTH",
"70 444 OFFCURVE",
"74 447 OFFCURVE",
"80 457 CURVE SMOOTH",
"115 507 OFFCURVE",
"144 526 OFFCURVE",
"208 526 CURVE SMOOTH",
"249 526 OFFCURVE",
"258 518 OFFCURVE",
"286 516 CURVE",
"286 515 LINE",
"218 471 OFFCURVE",
"183 377 OFFCURVE",
"143 262 CURVE SMOOTH",
"110 168 OFFCURVE",
"74 68 OFFCURVE",
"8 44 CURVE SMOOTH",
"-3 40 OFFCURVE",
"-7 41 OFFCURVE",
"-12 38 CURVE SMOOTH",
"-22 34 OFFCURVE",
"-34 14 OFFCURVE",
"-34 4 CURVE SMOOTH",
"-34 1 OFFCURVE",
"-32 0 OFFCURVE",
"-30 0 CURVE SMOOTH"
);
}
);
width = 617;
}
);
leftKerningGroup = A;
leftMetricsKey = A;
note = AE;
rightKerningGroup = E;
rightMetricsKey = E;
unicode = 00C6;
},
{
glyphname = B;
layers = (
{
anchors = (
{
name = bottom;
position = "{217, 0}";
},
{
name = top;
position = "{281, 560}";
}
);
background = {
anchors = (
{
name = bottom;
position = "{225, 0}";
},
{
name = top;
position = "{289, 560}";
}
);
paths = (
{
closed = 1;
nodes = (
"53 0 OFFCURVE",
"75 12 OFFCURVE",
"103 12 CURVE SMOOTH",
"131 12 OFFCURVE",
"187 0 OFFCURVE",
"230 0 CURVE SMOOTH",
"333 0 OFFCURVE",
"444 70 OFFCURVE",
"444 173 CURVE SMOOTH",
"444 227 OFFCURVE",
"413 271 OFFCURVE",
"362 304 CURVE",
"420 339 OFFCURVE",
"453 386 OFFCURVE",
"453 446 CURVE SMOOTH",
"453 526 OFFCURVE",
"392 568 OFFCURVE",
"288 568 CURVE SMOOTH",
"160 568 OFFCURVE",
"69 504 OFFCURVE",
"42 436 CURVE SMOOTH",
"40 431 OFFCURVE",
"38 424 OFFCURVE",
"38 419 CURVE SMOOTH",
"38 413 OFFCURVE",
"41 409 OFFCURVE",
"47 409 CURVE SMOOTH",
"54 409 OFFCURVE",
"60 414 OFFCURVE",
"73 428 CURVE SMOOTH",
"102 458 OFFCURVE",
"154 507 OFFCURVE",
"255 507 CURVE SMOOTH",
"326 507 OFFCURVE",
"358 483 OFFCURVE",
"358 428 CURVE SMOOTH",
"358 374 OFFCURVE",
"327 328 OFFCURVE",
"280 317 CURVE",
"213 317 LINE",
"225 401 LINE SMOOTH",
"232 450 OFFCURVE",
"244 454 OFFCURVE",
"244 466 CURVE SMOOTH",
"244 472 OFFCURVE",
"239 474 OFFCURVE",
"231 474 CURVE SMOOTH",
"192 474 OFFCURVE",
"148 438 OFFCURVE",
"143 407 CURVE SMOOTH",
"98 112 LINE SMOOTH",
"94 86 OFFCURVE",
"87 79 OFFCURVE",
"67 63 CURVE SMOOTH",
"51 50 OFFCURVE",
"34 35 OFFCURVE",
"34 11 CURVE SMOOTH",
"34 4 OFFCURVE",
"36 0 OFFCURVE",
"42 0 CURVE SMOOTH"
);
},
{
closed = 1;
nodes = (
"215 70 OFFCURVE",
"185 74 OFFCURVE",
"170 78 CURVE",
"169 79 LINE",
"177 90 OFFCURVE",
"180 99 OFFCURVE",
"182 116 CURVE SMOOTH",
"202 256 LINE",
"286 256 LINE",
"326 234 OFFCURVE",
"351 201 OFFCURVE",
"351 155 CURVE SMOOTH",
"351 98 OFFCURVE",
"312 70 OFFCURVE",
"240 70 CURVE SMOOTH"
);
}
);
};
layerId = "56450C88-1299-454A-B666-E6F9AF06B23F";
paths = (
{
closed = 1;
nodes = (
"45 0 OFFCURVE",
"67 12 OFFCURVE",
"95 12 CURVE SMOOTH",
"123 12 OFFCURVE",
"179 0 OFFCURVE",
"222 0 CURVE SMOOTH",
"325 0 OFFCURVE",
"436 70 OFFCURVE",
"436 173 CURVE SMOOTH",
"436 227 OFFCURVE",
"405 271 OFFCURVE",
"354 304 CURVE",
"412 339 OFFCURVE",
"445 386 OFFCURVE",
"445 446 CURVE SMOOTH",
"445 526 OFFCURVE",
"384 568 OFFCURVE",
"280 568 CURVE SMOOTH",
"152 568 OFFCURVE",
"61 504 OFFCURVE",
"34 436 CURVE SMOOTH",
"32 431 OFFCURVE",
"30 424 OFFCURVE",
"30 419 CURVE SMOOTH",
"30 413 OFFCURVE",
"33 409 OFFCURVE",
"39 409 CURVE SMOOTH",
"46 409 OFFCURVE",
"52 414 OFFCURVE",
"65 428 CURVE SMOOTH",
"94 458 OFFCURVE",
"146 507 OFFCURVE",
"247 507 CURVE SMOOTH",
"318 507 OFFCURVE",
"350 483 OFFCURVE",
"350 428 CURVE SMOOTH",
"350 374 OFFCURVE",
"319 328 OFFCURVE",
"272 317 CURVE",
"205 317 LINE",
"217 401 LINE SMOOTH",
"224 450 OFFCURVE",
"236 454 OFFCURVE",
"236 466 CURVE SMOOTH",
"236 472 OFFCURVE",
"231 474 OFFCURVE",
"223 474 CURVE SMOOTH",
"184 474 OFFCURVE",
"140 438 OFFCURVE",
"135 407 CURVE SMOOTH",
"90 112 LINE SMOOTH",
"86 86 OFFCURVE",
"79 79 OFFCURVE",
"59 63 CURVE SMOOTH",
"43 50 OFFCURVE",
"26 35 OFFCURVE",
"26 11 CURVE SMOOTH",
"26 4 OFFCURVE",
"28 0 OFFCURVE",
"34 0 CURVE SMOOTH"
);
},
{
closed = 1;
nodes = (
"207 70 OFFCURVE",
"177 74 OFFCURVE",
"162 78 CURVE",
"161 79 LINE",
"169 90 OFFCURVE",
"172 99 OFFCURVE",
"174 116 CURVE SMOOTH",
"194 256 LINE",
"278 256 LINE",
"318 234 OFFCURVE",
"343 201 OFFCURVE",
"343 155 CURVE SMOOTH",
"343 98 OFFCURVE",
"304 70 OFFCURVE",
"232 70 CURVE SMOOTH"
);
}
);
width = 465;
},
{
anchors = (
{
name = bottom;
position = "{197, 0}";
},
{
name = top;
position = "{262, 560}";
}
);
background = {
anchors = (
{
name = bottom;
position = "{196, 0}";
},
{
name = top;
position = "{261, 560}";
}
);
paths = (
{
closed = 1;
nodes = (
"51 0 OFFCURVE",
"59 12 OFFCURVE",
"86 12 CURVE SMOOTH",
"113 12 OFFCURVE",
"154 0 OFFCURVE",
"205 0 CURVE SMOOTH",
"320 0 OFFCURVE",
"405 64 OFFCURVE",
"405 164 CURVE SMOOTH",
"405 222 OFFCURVE",
"376 268 OFFCURVE",
"315 302 CURVE",
"379 336 OFFCURVE",
"418 394 OFFCURVE",
"418 453 CURVE SMOOTH",
"418 526 OFFCURVE",
"356 568 OFFCURVE",
"260 568 CURVE SMOOTH",
"147 568 OFFCURVE",
"61 518 OFFCURVE",
"35 442 CURVE SMOOTH",
"33 435 OFFCURVE",
"33 433 OFFCURVE",
"33 431 CURVE SMOOTH",
"33 427 OFFCURVE",
"35 424 OFFCURVE",
"40 424 CURVE SMOOTH",
"46 424 OFFCURVE",
"51 431 OFFCURVE",
"59 441 CURVE SMOOTH",
"105 500 OFFCURVE",
"166 522 OFFCURVE",
"234 522 CURVE SMOOTH",
"315 522 OFFCURVE",
"359 490 OFFCURVE",
"359 435 CURVE SMOOTH",
"359 383 OFFCURVE",
"320 326 OFFCURVE",
"256 309 CURVE",
"186 309 LINE",
"204 430 LINE SMOOTH",
"210 469 OFFCURVE",
"224 474 OFFCURVE",
"224 481 CURVE SMOOTH",
"224 484 OFFCURVE",
"221 486 OFFCURVE",
"215 486 CURVE SMOOTH",
"190 486 OFFCURVE",
"151 452 OFFCURVE",
"147 426 CURVE SMOOTH",
"98 96 LINE SMOOTH",
"95 77 OFFCURVE",
"89 62 OFFCURVE",
"63 43 CURVE SMOOTH",
"46 31 OFFCURVE",
"34 19 OFFCURVE",
"34 6 CURVE SMOOTH",
"34 2 OFFCURVE",
"36 0 OFFCURVE",
"40 0 CURVE SMOOTH"
);
},
{
closed = 1;
nodes = (
"194 48 OFFCURVE",
"154 50 OFFCURVE",
"133 56 CURVE",
"133 57 LINE",
"146 70 OFFCURVE",
"152 83 OFFCURVE",
"156 110 CURVE SMOOTH",
"180 270 LINE",
"262 270 LINE",
"318 246 OFFCURVE",
"347 203 OFFCURVE",
"347 146 CURVE SMOOTH",
"347 78 OFFCURVE",
"306 48 OFFCURVE",
"218 48 CURVE SMOOTH"
);
}
);
};
layerId = "0B1DFD06-3317-40CA-B510-4969A0718C16";
paths = (
{
closed = 1;
nodes = (
"52 0 OFFCURVE",
"60 12 OFFCURVE",
"87 12 CURVE SMOOTH",
"114 12 OFFCURVE",
"155 0 OFFCURVE",
"206 0 CURVE SMOOTH",
"321 0 OFFCURVE",
"406 64 OFFCURVE",
"406 164 CURVE SMOOTH",
"406 222 OFFCURVE",
"377 268 OFFCURVE",
"316 302 CURVE",
"380 336 OFFCURVE",
"419 394 OFFCURVE",
"419 453 CURVE SMOOTH",
"419 526 OFFCURVE",
"357 568 OFFCURVE",
"261 568 CURVE SMOOTH",
"148 568 OFFCURVE",
"58 519 OFFCURVE",
"36 442 CURVE SMOOTH",
"34 435 OFFCURVE",
"34 433 OFFCURVE",
"34 431 CURVE SMOOTH",
"34 427 OFFCURVE",
"36 424 OFFCURVE",
"41 424 CURVE SMOOTH",
"47 424 OFFCURVE",
"52 431 OFFCURVE",
"60 441 CURVE SMOOTH",
"107 499 OFFCURVE",
"167 522 OFFCURVE",
"235 522 CURVE SMOOTH",
"316 522 OFFCURVE",
"360 490 OFFCURVE",
"360 435 CURVE SMOOTH",
"360 383 OFFCURVE",
"321 326 OFFCURVE",
"257 309 CURVE",
"187 309 LINE",
"205 430 LINE SMOOTH",
"211 469 OFFCURVE",
"225 474 OFFCURVE",
"225 481 CURVE SMOOTH",
"225 484 OFFCURVE",
"222 486 OFFCURVE",
"216 486 CURVE SMOOTH",
"191 486 OFFCURVE",
"152 452 OFFCURVE",
"148 426 CURVE SMOOTH",
"99 96 LINE SMOOTH",
"96 77 OFFCURVE",
"90 62 OFFCURVE",
"64 43 CURVE SMOOTH",
"47 31 OFFCURVE",
"35 19 OFFCURVE",
"35 6 CURVE SMOOTH",
"35 2 OFFCURVE",
"37 0 OFFCURVE",
"41 0 CURVE SMOOTH"
);
},
{
closed = 1;
nodes = (
"195 48 OFFCURVE",
"155 50 OFFCURVE",
"134 56 CURVE",
"134 57 LINE",
"147 70 OFFCURVE",
"153 83 OFFCURVE",
"157 110 CURVE SMOOTH",
"181 270 LINE",
"263 270 LINE",
"319 246 OFFCURVE",
"348 203 OFFCURVE",
"348 146 CURVE SMOOTH",
"348 78 OFFCURVE",
"307 48 OFFCURVE",
"219 48 CURVE SMOOTH"
);
}
);
width = 447;
}
);
note = B;
unicode = 0042;
},
{
glyphname = C;
layers = (
{
anchors = (
{
name = bottom;
position = "{204, 0}";
},
{
name = top;
position = "{356, 560}";
}
);
background = {
anchors = (
{
name = bottom;
position = "{212, 0}";
},
{
name = top;
position = "{364, 560}";
}
);
paths = (
{
closed = 1;
nodes = (
"302 -8 OFFCURVE",
"380 50 OFFCURVE",
"408 145 CURVE SMOOTH",
"416 172 OFFCURVE",
"413 179 OFFCURVE",
"405 179 CURVE SMOOTH",
"398 179 OFFCURVE",
"393 174 OFFCURVE",
"388 165 CURVE SMOOTH",
"365 126 OFFCURVE",
"327 66 OFFCURVE",
"248 66 CURVE SMOOTH",
"175 66 OFFCURVE",
"146 116 OFFCURVE",
"146 222 CURVE SMOOTH",
"146 386 OFFCURVE",
"218 507 OFFCURVE",
"330 507 CURVE SMOOTH",
"367 507 OFFCURVE",
"396 494 OFFCURVE",
"405 458 CURVE SMOOTH",
"409 442 OFFCURVE",
"408 421 OFFCURVE",
"422 421 CURVE SMOOTH",
"434 421 OFFCURVE",
"443 434 OFFCURVE",
"450 446 CURVE SMOOTH",
"460 464 OFFCURVE",
"466 480 OFFCURVE",
"466 497 CURVE SMOOTH",
"466 542 OFFCURVE",
"420 568 OFFCURVE",
"354 568 CURVE SMOOTH",
"194 568 OFFCURVE",
"50 413 OFFCURVE",
"50 198 CURVE SMOOTH",
"50 60 OFFCURVE",
"110 -8 OFFCURVE",
"210 -8 CURVE SMOOTH"
);
}
);
};
layerId = "56450C88-1299-454A-B666-E6F9AF06B23F";
paths = (
{
closed = 1;
nodes = (
"294 -8 OFFCURVE",
"372 50 OFFCURVE",
"400 145 CURVE SMOOTH",
"408 172 OFFCURVE",
"405 179 OFFCURVE",
"397 179 CURVE SMOOTH",
"390 179 OFFCURVE",
"385 174 OFFCURVE",
"380 165 CURVE SMOOTH",
"357 126 OFFCURVE",
"319 66 OFFCURVE",
"240 66 CURVE SMOOTH",
"167 66 OFFCURVE",
"138 116 OFFCURVE",
"138 222 CURVE SMOOTH",
"138 386 OFFCURVE",
"210 507 OFFCURVE",
"322 507 CURVE SMOOTH",
"359 507 OFFCURVE",
"388 494 OFFCURVE",
"397 458 CURVE SMOOTH",
"401 442 OFFCURVE",
"400 421 OFFCURVE",
"414 421 CURVE SMOOTH",
"426 421 OFFCURVE",
"435 434 OFFCURVE",
"442 446 CURVE SMOOTH",
"452 464 OFFCURVE",
"458 480 OFFCURVE",
"458 497 CURVE SMOOTH",
"458 542 OFFCURVE",
"412 568 OFFCURVE",
"346 568 CURVE SMOOTH",
"186 568 OFFCURVE",
"42 413 OFFCURVE",
"42 198 CURVE SMOOTH",
"42 60 OFFCURVE",
"102 -8 OFFCURVE",
"202 -8 CURVE SMOOTH"
);
}
);
width = 450;
},
{
anchors = (
{
name = bottom;
position = "{191, 0}";
},
{
name = top;
position = "{355, 560}";
}
);
background = {
anchors = (
{
name = bottom;
position = "{191, 0}";
},
{
name = top;
position = "{355, 560}";
}
);
paths = (
{
closed = 1;
nodes = (
"283 -8 OFFCURVE",
"362 53 OFFCURVE",
"386 140 CURVE SMOOTH",
"387 143 OFFCURVE",
"393 166 OFFCURVE",
"385 166 CURVE SMOOTH",
"380 166 OFFCURVE",
"376 159 OFFCURVE",
"375 157 CURVE SMOOTH",
"340 86 OFFCURVE",
"286 48 OFFCURVE",
"229 48 CURVE SMOOTH",
"157 48 OFFCURVE",
"118 109 OFFCURVE",
"118 212 CURVE SMOOTH",
"118 336 OFFCURVE",
"174 525 OFFCURVE",
"314 525 CURVE SMOOTH",
"365 525 OFFCURVE",
"390 501 OFFCURVE",
"397 466 CURVE SMOOTH",
"399 453 OFFCURVE",
"399 438 OFFCURVE",
"410 438 CURVE SMOOTH",
"416 438 OFFCURVE",
"420 442 OFFCURVE",
"426 450 CURVE SMOOTH",
"434 462 OFFCURVE",
"444 482 OFFCURVE",
"444 502 CURVE SMOOTH",
"444 550 OFFCURVE",
"386 568 OFFCURVE",
"339 568 CURVE SMOOTH",
"216 568 OFFCURVE",
"50 439 OFFCURVE",
"50 196 CURVE SMOOTH",
"50 59 OFFCURVE",
"104 -8 OFFCURVE",
"196 -8 CURVE SMOOTH"
);
}
);
};
layerId = "0B1DFD06-3317-40CA-B510-4969A0718C16";
paths = (
{
closed = 1;
nodes = (
"283 -8 OFFCURVE",
"362 53 OFFCURVE",
"386 140 CURVE SMOOTH",
"387 143 OFFCURVE",
"393 166 OFFCURVE",
"385 166 CURVE SMOOTH",
"380 166 OFFCURVE",
"376 159 OFFCURVE",
"375 157 CURVE SMOOTH",
"340 86 OFFCURVE",
"286 48 OFFCURVE",
"229 48 CURVE SMOOTH",
"157 48 OFFCURVE",
"118 109 OFFCURVE",
"118 212 CURVE SMOOTH",
"118 336 OFFCURVE",
"174 525 OFFCURVE",
"314 525 CURVE SMOOTH",
"365 525 OFFCURVE",
"390 501 OFFCURVE",
"397 466 CURVE SMOOTH",
"399 453 OFFCURVE",
"399 438 OFFCURVE",
"410 438 CURVE SMOOTH",
"416 438 OFFCURVE",
"420 442 OFFCURVE",
"426 450 CURVE SMOOTH",
"434 462 OFFCURVE",
"444 482 OFFCURVE",
"444 502 CURVE SMOOTH",
"444 550 OFFCURVE",
"386 568 OFFCURVE",
"339 568 CURVE SMOOTH",
"216 568 OFFCURVE",
"50 439 OFFCURVE",
"50 196 CURVE SMOOTH",
"50 59 OFFCURVE",
"104 -8 OFFCURVE",
"196 -8 CURVE SMOOTH"
);
}
);
width = 444;
}
);
leftKerningGroup = C;
note = C;
rightKerningGroup = C;
unicode = 0043;
},
{
glyphname = D;
layers = (
{
anchors = (
{
name = bottom;
position = "{205, 0}";
},
{
name = center;
position = "{258, 280}";
},
{
name = top;
position = "{295, 560}";
}
);
background = {
anchors = (
{
name = bottom;
position = "{213, 0}";
},
{
name = center;
position = "{231, 280}";
},
{
name = top;
position = "{303, 560}";
}
);
paths = (
{
closed = 1;
nodes = (
"51 0 OFFCURVE",
"63 11 OFFCURVE",
"95 11 CURVE SMOOTH",
"127 11 OFFCURVE",
"163 0 OFFCURVE",
"210 0 CURVE SMOOTH",
"387 0 OFFCURVE",
"497 144 OFFCURVE",
"497 324 CURVE SMOOTH",
"497 486 OFFCURVE",
"408 568 OFFCURVE",
"266 568 CURVE SMOOTH",
"155 568 OFFCURVE",
"74 520 OFFCURVE",
"43 448 CURVE SMOOTH",
"40 441 OFFCURVE",
"39 435 OFFCURVE",
"39 431 CURVE SMOOTH",
"39 425 OFFCURVE",
"41 420 OFFCURVE",
"48 420 CURVE SMOOTH",
"59 420 OFFCURVE",
"65 428 OFFCURVE",
"75 439 CURVE SMOOTH",
"115 486 OFFCURVE",
"167 510 OFFCURVE",
"237 510 CURVE SMOOTH",
"349 510 OFFCURVE",
"401 450 OFFCURVE",
"401 318 CURVE SMOOTH",
"401 170 OFFCURVE",
"335 66 OFFCURVE",
"215 66 CURVE SMOOTH",
"200 66 OFFCURVE",
"175 67 OFFCURVE",
"158 70 CURVE",
"158 71 LINE",
"167 83 OFFCURVE",
"169 92 OFFCURVE",
"171 104 CURVE SMOOTH",
"224 400 LINE SMOOTH",
"233 448 OFFCURVE",
"243 454 OFFCURVE",
"243 466 CURVE SMOOTH",
"243 471 OFFCURVE",
"241 474 OFFCURVE",
"231 474 CURVE SMOOTH",
"191 474 OFFCURVE",
"147 437 OFFCURVE",
"142 406 CURVE SMOOTH",
"91 117 LINE SMOOTH",
"83 80 OFFCURVE",
"81 78 OFFCURVE",
"55 57 CURVE SMOOTH",
"35 40 OFFCURVE",
"30 17 OFFCURVE",
"30 9 CURVE SMOOTH",
"30 3 OFFCURVE",
"32 0 OFFCURVE",
"39 0 CURVE SMOOTH"
);
}
);
};
layerId = "56450C88-1299-454A-B666-E6F9AF06B23F";
paths = (
{
closed = 1;
nodes = (
"43 0 OFFCURVE",
"55 11 OFFCURVE",
"87 11 CURVE SMOOTH",
"119 11 OFFCURVE",
"155 0 OFFCURVE",
"202 0 CURVE SMOOTH",
"379 0 OFFCURVE",
"489 144 OFFCURVE",
"489 324 CURVE SMOOTH",
"489 486 OFFCURVE",
"400 568 OFFCURVE",
"258 568 CURVE SMOOTH",
"147 568 OFFCURVE",
"66 520 OFFCURVE",
"35 448 CURVE SMOOTH",
"32 441 OFFCURVE",
"31 435 OFFCURVE",
"31 431 CURVE SMOOTH",
"31 425 OFFCURVE",
"33 420 OFFCURVE",
"40 420 CURVE SMOOTH",
"51 420 OFFCURVE",
"57 428 OFFCURVE",
"67 439 CURVE SMOOTH",
"107 486 OFFCURVE",
"159 510 OFFCURVE",
"229 510 CURVE SMOOTH",
"341 510 OFFCURVE",
"393 450 OFFCURVE",
"393 318 CURVE SMOOTH",
"393 170 OFFCURVE",
"327 66 OFFCURVE",
"207 66 CURVE SMOOTH",
"192 66 OFFCURVE",
"167 67 OFFCURVE",
"150 70 CURVE",
"150 71 LINE",
"159 83 OFFCURVE",
"161 92 OFFCURVE",
"163 104 CURVE SMOOTH",
"216 400 LINE SMOOTH",
"225 448 OFFCURVE",
"235 454 OFFCURVE",
"235 466 CURVE SMOOTH",
"235 471 OFFCURVE",
"233 474 OFFCURVE",
"223 474 CURVE SMOOTH",
"183 474 OFFCURVE",
"139 437 OFFCURVE",
"134 406 CURVE SMOOTH",
"83 117 LINE SMOOTH",
"75 80 OFFCURVE",
"73 78 OFFCURVE",
"47 57 CURVE SMOOTH",
"27 40 OFFCURVE",
"22 17 OFFCURVE",
"22 9 CURVE SMOOTH",
"22 3 OFFCURVE",
"24 0 OFFCURVE",
"31 0 CURVE SMOOTH"
);
}
);
width = 509;
},
{
anchors = (
{
name = bottom;
position = "{248, 0}";
},
{
name = center;
position = "{249, 280}";
},
{
name = top;
position = "{248, 560}";
}
);
background = {
anchors = (
{
name = bottom;
position = "{193, 0}";
},
{
name = center;
position = "{249, 280}";
},
{
name = top;
position = "{302, 560}";
}
);
paths = (
{
closed = 1;
nodes = (
"44 0 OFFCURVE",
"54 11 OFFCURVE",
"84 11 CURVE SMOOTH",
"115 11 OFFCURVE",
"152 0 OFFCURVE",
"197 0 CURVE SMOOTH",
"373 0 OFFCURVE",
"468 163 OFFCURVE",
"468 332 CURVE SMOOTH",
"468 480 OFFCURVE",
"393 568 OFFCURVE",
"250 568 CURVE SMOOTH",
"155 568 OFFCURVE",
"78 528 OFFCURVE",
"44 461 CURVE SMOOTH",
"41 454 OFFCURVE",
"39 448 OFFCURVE",
"39 443 CURVE SMOOTH",
"39 439 OFFCURVE",
"41 436 OFFCURVE",
"45 436 CURVE SMOOTH",
"51 436 OFFCURVE",
"54 442 OFFCURVE",
"64 453 CURVE SMOOTH",
"106 501 OFFCURVE",
"161 524 OFFCURVE",
"230 524 CURVE SMOOTH",
"346 524 OFFCURVE",
"399 459 OFFCURVE",
"399 324 CURVE SMOOTH",
"399 169 OFFCURVE",
"328 49 OFFCURVE",
"199 49 CURVE SMOOTH",
"180 49 OFFCURVE",
"146 51 OFFCURVE",
"129 55 CURVE",
"129 56 LINE",
"139 66 OFFCURVE",
"144 84 OFFCURVE",
"147 98 CURVE SMOOTH",
"202 431 LINE SMOOTH",
"208 470 OFFCURVE",
"222 475 OFFCURVE",
"222 482 CURVE SMOOTH",
"222 485 OFFCURVE",
"218 486 OFFCURVE",
"213 486 CURVE SMOOTH",
"188 486 OFFCURVE",
"150 453 OFFCURVE",
"145 426 CURVE SMOOTH",
"92 109 LINE SMOOTH",
"85 67 OFFCURVE",
"67 52 OFFCURVE",
"49 39 CURVE SMOOTH",
"39 32 OFFCURVE",
"30 14 OFFCURVE",
"30 5 CURVE SMOOTH",
"30 2 OFFCURVE",
"31 0 OFFCURVE",
"34 0 CURVE SMOOTH"
);
}
);
};
layerId = "0B1DFD06-3317-40CA-B510-4969A0718C16";
paths = (
{
closed = 1;
nodes = (
"44 0 OFFCURVE",
"54 11 OFFCURVE",
"84 11 CURVE SMOOTH",
"115 11 OFFCURVE",
"152 0 OFFCURVE",
"197 0 CURVE SMOOTH",
"373 0 OFFCURVE",
"468 163 OFFCURVE",
"468 332 CURVE SMOOTH",
"468 480 OFFCURVE",
"393 568 OFFCURVE",
"250 568 CURVE SMOOTH",
"155 568 OFFCURVE",
"78 528 OFFCURVE",
"44 461 CURVE SMOOTH",
"41 454 OFFCURVE",
"39 448 OFFCURVE",
"39 443 CURVE SMOOTH",
"39 439 OFFCURVE",
"41 436 OFFCURVE",
"45 436 CURVE SMOOTH",
"51 436 OFFCURVE",
"54 442 OFFCURVE",
"64 453 CURVE SMOOTH",
"106 501 OFFCURVE",
"161 524 OFFCURVE",
"230 524 CURVE SMOOTH",
"346 524 OFFCURVE",
"399 459 OFFCURVE",
"399 324 CURVE SMOOTH",
"399 169 OFFCURVE",
"328 49 OFFCURVE",
"199 49 CURVE SMOOTH",
"180 49 OFFCURVE",
"146 51 OFFCURVE",
"129 55 CURVE",
"129 56 LINE",
"139 66 OFFCURVE",
"144 84 OFFCURVE",
"147 98 CURVE SMOOTH",
"202 431 LINE SMOOTH",
"208 470 OFFCURVE",
"222 475 OFFCURVE",
"222 482 CURVE SMOOTH",
"222 485 OFFCURVE",
"218 486 OFFCURVE",
"213 486 CURVE SMOOTH",
"188 486 OFFCURVE",
"150 453 OFFCURVE",
"145 426 CURVE SMOOTH",
"92 109 LINE SMOOTH",
"85 67 OFFCURVE",
"67 52 OFFCURVE",
"49 39 CURVE SMOOTH",
"39 32 OFFCURVE",
"30 14 OFFCURVE",
"30 5 CURVE SMOOTH",
"30 2 OFFCURVE",
"31 0 OFFCURVE",
"34 0 CURVE SMOOTH"
);
}
);
width = 496;
}
);
leftKerningGroup = D;
note = D;
rightKerningGroup = D;
unicode = 0044;
},
{
glyphname = Eth;
layers = (
{
background = {
paths = (
{
closed = 1;
nodes = (
"42 232 OFFCURVE",
"54 236 OFFCURVE",
"73 236 CURVE SMOOTH",
"241 236 LINE SMOOTH",
"275 236 OFFCURVE",
"318 266 OFFCURVE",
"318 288 CURVE SMOOTH",
"318 294 OFFCURVE",
"316 298 OFFCURVE",
"309 298 CURVE SMOOTH",
"302 298 OFFCURVE",
"290 294 OFFCURVE",
"271 294 CURVE SMOOTH",
"103 294 LINE SMOOTH",
"69 294 OFFCURVE",
"26 263 OFFCURVE",
"26 242 CURVE SMOOTH",
"26 235 OFFCURVE",
"28 232 OFFCURVE",
"35 232 CURVE SMOOTH"
);
}
);
};
components = (
{
name = D;
transform = "{1, 0, 0, 1, 13, 0}";
}
);
layerId = "56450C88-1299-454A-B666-E6F9AF06B23F";
paths = (
{
closed = 1;
nodes = (
"42 232 OFFCURVE",
"54 236 OFFCURVE",
"73 236 CURVE SMOOTH",
"241 236 LINE SMOOTH",
"275 236 OFFCURVE",
"318 266 OFFCURVE",
"318 288 CURVE SMOOTH",
"318 294 OFFCURVE",
"316 298 OFFCURVE",
"309 298 CURVE SMOOTH",
"302 298 OFFCURVE",
"290 294 OFFCURVE",
"271 294 CURVE SMOOTH",
"103 294 LINE SMOOTH",
"69 294 OFFCURVE",
"26 263 OFFCURVE",
"26 242 CURVE SMOOTH",
"26 235 OFFCURVE",
"28 232 OFFCURVE",
"35 232 CURVE SMOOTH"
);
}
);
width = 522;
},
{
background = {
components = (
{
name = D;
transform = "{1, 0, 0, 1, 14, 0}";
}
);
paths = (
{
closed = 1;
nodes = (
"46 241 OFFCURVE",
"60 243 OFFCURVE",
"76 243 CURVE SMOOTH",
"235 243 LINE SMOOTH",
"271 243 OFFCURVE",
"298 271 OFFCURVE",
"298 283 CURVE SMOOTH",
"298 286 OFFCURVE",
"297 289 OFFCURVE",
"291 289 CURVE SMOOTH",
"286 289 OFFCURVE",
"272 286 OFFCURVE",
"256 286 CURVE SMOOTH",
"97 286 LINE SMOOTH",
"61 286 OFFCURVE",
"34 258 OFFCURVE",
"34 246 CURVE SMOOTH",
"34 243 OFFCURVE",
"35 241 OFFCURVE",
"41 241 CURVE SMOOTH"
);
}
);
};
components = (
{
name = D;
transform = "{1, 0, 0, 1, 14, 0}";
}
);
layerId = "0B1DFD06-3317-40CA-B510-4969A0718C16";
paths = (
{
closed = 1;
nodes = (
"46 241 OFFCURVE",
"60 243 OFFCURVE",
"76 243 CURVE SMOOTH",
"235 243 LINE SMOOTH",
"271 243 OFFCURVE",
"298 271 OFFCURVE",
"298 283 CURVE SMOOTH",
"298 286 OFFCURVE",
"297 289 OFFCURVE",
"291 289 CURVE SMOOTH",
"286 289 OFFCURVE",
"272 286 OFFCURVE",
"256 286 CURVE SMOOTH",
"97 286 LINE SMOOTH",
"61 286 OFFCURVE",
"34 258 OFFCURVE",
"34 246 CURVE SMOOTH",
"34 243 OFFCURVE",
"35 241 OFFCURVE",
"41 241 CURVE SMOOTH"
);
}
);
width = 510;
}
);
note = Eth;
rightKerningGroup = D;
rightMetricsKey = D;
unicode = 00D0;
},
{
glyphname = E;
layers = (
{
anchors = (
{
name = bottom;
position = "{187, 0}";
},
{
name = ogonek;
position = "{308, 26}";
},
{
name = top;
position = "{292, 560}";
},
{
name = topleft;
position = "{39, 478}";
}
);
background = {
anchors = (
{
name = bottom;
position = "{195, 0}";
},
{
name = ogonek;
position = "{316, 26}";
},
{
name = top;
position = "{300, 560}";
},
{
name = topleft;
position = "{47, 478}";
}
);
paths = (
{
closed = 1;
nodes = (
"50 0 OFFCURVE",
"62 14 OFFCURVE",
"97 14 CURVE SMOOTH",
"131 14 OFFCURVE",
"186 0 OFFCURVE",
"230 0 CURVE SMOOTH",
"314 0 OFFCURVE",
"375 50 OFFCURVE",
"375 91 CURVE SMOOTH",
"375 99 OFFCURVE",
"372 101 OFFCURVE",
"368 101 CURVE SMOOTH",
"363 101 OFFCURVE",
"359 99 OFFCURVE",
"349 93 CURVE SMOOTH",
"328 81 OFFCURVE",
"293 69 OFFCURVE",
"240 69 CURVE SMOOTH",
"207 69 OFFCURVE",
"183 74 OFFCURVE",
"161 79 CURVE",
"161 80 LINE",
"163 86 OFFCURVE",
"167 94 OFFCURVE",
"170 110 CURVE SMOOTH",
"195 260 LINE",
"223 260 LINE SMOOTH",
"260 260 OFFCURVE",
"291 250 OFFCURVE",
"306 250 CURVE SMOOTH",
"339 250 OFFCURVE",
"370 303 OFFCURVE",
"370 314 CURVE SMOOTH",
"370 318 OFFCURVE",
"367 322 OFFCURVE",
"362 322 CURVE SMOOTH",
"206 322 LINE",
"233 488 LINE",
"282 488 OFFCURVE",
"316 483 OFFCURVE",
"339 483 CURVE SMOOTH",
"414 483 OFFCURVE",
"447 537 OFFCURVE",
"447 560 CURVE SMOOTH",
"447 566 OFFCURVE",
"444 568 OFFCURVE",
"439 568 CURVE SMOOTH",
"424 568 OFFCURVE",
"409 552 OFFCURVE",
"339 552 CURVE SMOOTH",
"291 552 OFFCURVE",
"235 560 OFFCURVE",
"193 560 CURVE SMOOTH",
"107 560 OFFCURVE",
"50 525 OFFCURVE",
"39 478 CURVE SMOOTH",
"38 474 OFFCURVE",
"37 470 OFFCURVE",
"37 466 CURVE SMOOTH",
"37 461 OFFCURVE",
"39 458 OFFCURVE",
"43 458 CURVE SMOOTH",
"55 458 OFFCURVE",
"72 490 OFFCURVE",
"143 490 CURVE SMOOTH",
"147 490 LINE",
"91 151 LINE SMOOTH",
"79 86 OFFCURVE",
"72 77 OFFCURVE",
"51 53 CURVE SMOOTH",
"37 38 OFFCURVE",
"30 22 OFFCURVE",
"30 10 CURVE SMOOTH",
"30 2 OFFCURVE",
"33 0 OFFCURVE",
"38 0 CURVE SMOOTH"
);
}
);
};
layerId = "56450C88-1299-454A-B666-E6F9AF06B23F";
paths = (
{
closed = 1;
nodes = (
"42 0 OFFCURVE",
"54 14 OFFCURVE",
"89 14 CURVE SMOOTH",
"123 14 OFFCURVE",
"178 0 OFFCURVE",
"222 0 CURVE SMOOTH",
"306 0 OFFCURVE",
"367 50 OFFCURVE",
"367 91 CURVE SMOOTH",
"367 99 OFFCURVE",
"364 101 OFFCURVE",
"360 101 CURVE SMOOTH",
"355 101 OFFCURVE",
"351 99 OFFCURVE",
"341 93 CURVE SMOOTH",
"320 81 OFFCURVE",
"285 69 OFFCURVE",
"232 69 CURVE SMOOTH",
"199 69 OFFCURVE",
"175 74 OFFCURVE",
"153 79 CURVE",
"153 80 LINE",
"155 86 OFFCURVE",
"159 94 OFFCURVE",
"162 110 CURVE SMOOTH",
"187 260 LINE",
"215 260 LINE SMOOTH",
"252 260 OFFCURVE",
"283 250 OFFCURVE",
"298 250 CURVE SMOOTH",
"331 250 OFFCURVE",
"362 303 OFFCURVE",
"362 314 CURVE SMOOTH",
"362 318 OFFCURVE",
"359 322 OFFCURVE",
"354 322 CURVE SMOOTH",
"198 322 LINE",
"225 488 LINE",
"274 488 OFFCURVE",
"308 483 OFFCURVE",
"331 483 CURVE SMOOTH",
"406 483 OFFCURVE",
"439 537 OFFCURVE",
"439 560 CURVE SMOOTH",
"439 566 OFFCURVE",
"436 568 OFFCURVE",
"431 568 CURVE SMOOTH",
"416 568 OFFCURVE",
"401 552 OFFCURVE",
"331 552 CURVE SMOOTH",
"283 552 OFFCURVE",
"227 560 OFFCURVE",
"185 560 CURVE SMOOTH",
"99 560 OFFCURVE",
"42 525 OFFCURVE",
"31 478 CURVE SMOOTH",
"30 474 OFFCURVE",
"29 470 OFFCURVE",
"29 466 CURVE SMOOTH",
"29 461 OFFCURVE",
"31 458 OFFCURVE",
"35 458 CURVE SMOOTH",
"47 458 OFFCURVE",
"64 490 OFFCURVE",
"135 490 CURVE SMOOTH",
"139 490 LINE",
"83 151 LINE SMOOTH",
"71 86 OFFCURVE",
"64 77 OFFCURVE",
"43 53 CURVE SMOOTH",
"29 38 OFFCURVE",
"22 22 OFFCURVE",
"22 10 CURVE SMOOTH",
"22 2 OFFCURVE",
"25 0 OFFCURVE",
"30 0 CURVE SMOOTH"
);
}
);
width = 413;
},
{
anchors = (
{
name = bottom;
position = "{175, 0}";
},
{
name = ogonek;
position = "{303, 30}";
},
{
name = top;
position = "{299, 560}";
},
{
name = topleft;
position = "{55, 494}";
}
);
background = {
anchors = (
{
name = bottom;
position = "{175, 0}";
},
{
name = ogonek;
position = "{303, 30}";
},
{
name = top;
position = "{299, 560}";
},
{
name = topleft;
position = "{55, 494}";
}
);
paths = (
{
closed = 1;
nodes = (
"45 0 OFFCURVE",
"59 14 OFFCURVE",
"86 14 CURVE SMOOTH",
"112 14 OFFCURVE",
"174 0 OFFCURVE",
"212 0 CURVE SMOOTH",
"286 0 OFFCURVE",
"359 49 OFFCURVE",
"359 82 CURVE SMOOTH",
"359 86 OFFCURVE",
"357 90 OFFCURVE",
"353 90 CURVE SMOOTH",
"350 90 OFFCURVE",
"348 89 OFFCURVE",
"343 86 CURVE SMOOTH",
"310 65 OFFCURVE",
"266 51 OFFCURVE",
"215 51 CURVE SMOOTH",
"188 51 OFFCURVE",
"152 55 OFFCURVE",
"129 61 CURVE",
"129 62 LINE",
"136 70 OFFCURVE",
"144 89 OFFCURVE",
"147 108 CURVE SMOOTH",
"174 266 LINE",
"201 266 LINE SMOOTH",
"238 266 OFFCURVE",
"261 256 OFFCURVE",
"275 256 CURVE SMOOTH",
"306 256 OFFCURVE",
"339 300 OFFCURVE",
"339 310 CURVE SMOOTH",
"339 313 OFFCURVE",
"337 315 OFFCURVE",
"332 315 CURVE SMOOTH",
"181 315 LINE",
"212 510 LINE",
"243 510 OFFCURVE",
"286 504 OFFCURVE",
"316 504 CURVE SMOOTH",
"399 504 OFFCURVE",
"431 546 OFFCURVE",
"431 562 CURVE SMOOTH",
"431 566 OFFCURVE",
"429 568 OFFCURVE",
"424 568 CURVE SMOOTH",
"413 568 OFFCURVE",
"397 552 OFFCURVE",
"331 552 CURVE SMOOTH",
"283 552 OFFCURVE",
"226 560 OFFCURVE",
"183 560 CURVE SMOOTH",
"97 560 OFFCURVE",
"55 529 OFFCURVE",
"44 495 CURVE SMOOTH",
"43 492 OFFCURVE",
"42 488 OFFCURVE",
"42 483 CURVE SMOOTH",
"42 480 OFFCURVE",
"43 476 OFFCURVE",
"47 476 CURVE SMOOTH",
"57 476 OFFCURVE",
"68 509 OFFCURVE",
"148 509 CURVE SMOOTH",
"152 509 LINE",
"92 141 LINE SMOOTH",
"81 72 OFFCURVE",
"73 62 OFFCURVE",
"48 39 CURVE SMOOTH",
"37 29 OFFCURVE",
"30 18 OFFCURVE",
"30 6 CURVE SMOOTH",
"30 2 OFFCURVE",
"31 0 OFFCURVE",
"35 0 CURVE SMOOTH"
);
}
);
};
layerId = "0B1DFD06-3317-40CA-B510-4969A0718C16";
paths = (
{
closed = 1;
nodes = (
"45 0 OFFCURVE",
"59 14 OFFCURVE",
"86 14 CURVE SMOOTH",
"112 14 OFFCURVE",
"174 0 OFFCURVE",
"212 0 CURVE SMOOTH",
"286 0 OFFCURVE",
"359 49 OFFCURVE",
"359 82 CURVE SMOOTH",
"359 86 OFFCURVE",
"357 90 OFFCURVE",
"353 90 CURVE SMOOTH",
"350 90 OFFCURVE",
"348 89 OFFCURVE",
"343 86 CURVE SMOOTH",
"310 65 OFFCURVE",
"266 51 OFFCURVE",
"215 51 CURVE SMOOTH",
"188 51 OFFCURVE",
"152 55 OFFCURVE",
"129 61 CURVE",
"129 62 LINE",
"136 70 OFFCURVE",
"144 89 OFFCURVE",
"147 108 CURVE SMOOTH",
"174 266 LINE",
"201 266 LINE SMOOTH",
"238 266 OFFCURVE",
"261 256 OFFCURVE",
"275 256 CURVE SMOOTH",
"306 256 OFFCURVE",
"339 300 OFFCURVE",
"339 310 CURVE SMOOTH",
"339 313 OFFCURVE",
"337 315 OFFCURVE",
"332 315 CURVE SMOOTH",
"181 315 LINE",
"212 510 LINE",
"243 510 OFFCURVE",
"286 504 OFFCURVE",
"316 504 CURVE SMOOTH",
"399 504 OFFCURVE",
"431 546 OFFCURVE",
"431 562 CURVE SMOOTH",
"431 566 OFFCURVE",
"430 568 OFFCURVE",
"425 568 CURVE SMOOTH",
"414 568 OFFCURVE",
"397 552 OFFCURVE",
"331 552 CURVE SMOOTH",
"283 552 OFFCURVE",
"226 560 OFFCURVE",
"183 560 CURVE SMOOTH",
"97 560 OFFCURVE",
"55 529 OFFCURVE",
"44 495 CURVE SMOOTH",
"43 492 OFFCURVE",
"42 488 OFFCURVE",
"42 483 CURVE SMOOTH",
"42 480 OFFCURVE",
"43 476 OFFCURVE",
"47 476 CURVE SMOOTH",
"57 476 OFFCURVE",
"68 509 OFFCURVE",
"148 509 CURVE SMOOTH",
"152 509 LINE",
"92 141 LINE SMOOTH",
"81 72 OFFCURVE",
"73 62 OFFCURVE",
"48 39 CURVE SMOOTH",
"37 29 OFFCURVE",
"30 18 OFFCURVE",
"30 6 CURVE SMOOTH",
"30 2 OFFCURVE",
"31 0 OFFCURVE",
"35 0 CURVE SMOOTH"
);
}
);
width = 413;
}
);
leftKerningGroup = E;
note = E;
rightKerningGroup = E;
unicode = 0045;
},
{
glyphname = F;
layers = (
{
anchors = (
{
name = bottom;
position = "{104, 0}";
},
{
name = top;
position = "{295, 560}";
}
);
background = {
anchors = (
{
name = bottom;
position = "{112, 0}";
},
{
name = top;
position = "{303, 560}";
}
);
paths = (
{
closed = 1;
nodes = (
"43 0 OFFCURVE",
"59 13 OFFCURVE",
"86 13 CURVE SMOOTH",
"112 13 OFFCURVE",
"136 0 OFFCURVE",
"158 0 CURVE SMOOTH",
"175 0 OFFCURVE",
"195 8 OFFCURVE",
"221 42 CURVE SMOOTH",
"227 50 OFFCURVE",
"231 57 OFFCURVE",
"231 64 CURVE SMOOTH",
"231 68 OFFCURVE",
"229 71 OFFCURVE",
"224 71 CURVE SMOOTH",
"216 71 OFFCURVE",
"206 62 OFFCURVE",
"187 62 CURVE SMOOTH",
"176 62 OFFCURVE",
"164 64 OFFCURVE",
"155 70 CURVE",
"155 71 LINE",
"163 79 OFFCURVE",
"171 92 OFFCURVE",
"173 106 CURVE SMOOTH",
"196 244 LINE",
"223 244 LINE SMOOTH",
"261 244 OFFCURVE",
"292 234 OFFCURVE",
"307 234 CURVE SMOOTH",
"339 234 OFFCURVE",
"371 287 OFFCURVE",
"371 300 CURVE SMOOTH",
"371 305 OFFCURVE",
"368 306 OFFCURVE",
"363 306 CURVE SMOOTH",
"207 306 LINE",
"237 488 LINE",
"286 488 OFFCURVE",
"320 483 OFFCURVE",
"343 483 CURVE SMOOTH",
"418 483 OFFCURVE",
"451 537 OFFCURVE",
"451 560 CURVE SMOOTH",
"451 566 OFFCURVE",
"448 568 OFFCURVE",
"443 568 CURVE SMOOTH",
"428 568 OFFCURVE",
"413 552 OFFCURVE",
"343 552 CURVE SMOOTH",
"295 552 OFFCURVE",
"239 560 OFFCURVE",
"197 560 CURVE SMOOTH",
"111 560 OFFCURVE",
"54 525 OFFCURVE",
"43 478 CURVE SMOOTH",
"42 474 OFFCURVE",
"41 470 OFFCURVE",
"41 466 CURVE SMOOTH",
"41 461 OFFCURVE",
"43 458 OFFCURVE",
"47 458 CURVE SMOOTH",
"59 458 OFFCURVE",
"76 490 OFFCURVE",
"147 490 CURVE SMOOTH",
"151 490 LINE",
"93 142 LINE SMOOTH",
"83 81 OFFCURVE",
"77 73 OFFCURVE",
"55 52 CURVE SMOOTH",
"41 38 OFFCURVE",
"30 25 OFFCURVE",
"30 10 CURVE SMOOTH",
"30 2 OFFCURVE",
"32 0 OFFCURVE",
"35 0 CURVE SMOOTH"
);
}
);
};
layerId = "56450C88-1299-454A-B666-E6F9AF06B23F";
paths = (
{
closed = 1;
nodes = (
"35 0 OFFCURVE",
"51 13 OFFCURVE",
"78 13 CURVE SMOOTH",
"104 13 OFFCURVE",
"128 0 OFFCURVE",
"150 0 CURVE SMOOTH",
"167 0 OFFCURVE",
"187 8 OFFCURVE",
"213 42 CURVE SMOOTH",
"219 50 OFFCURVE",
"223 57 OFFCURVE",
"223 64 CURVE SMOOTH",
"223 68 OFFCURVE",
"221 71 OFFCURVE",
"216 71 CURVE SMOOTH",
"208 71 OFFCURVE",
"198 62 OFFCURVE",
"179 62 CURVE SMOOTH",
"168 62 OFFCURVE",
"156 64 OFFCURVE",
"147 70 CURVE",
"147 71 LINE",
"155 79 OFFCURVE",
"163 92 OFFCURVE",
"165 106 CURVE SMOOTH",
"188 244 LINE",
"215 244 LINE SMOOTH",
"253 244 OFFCURVE",
"284 234 OFFCURVE",
"299 234 CURVE SMOOTH",
"331 234 OFFCURVE",
"363 287 OFFCURVE",
"363 300 CURVE SMOOTH",
"363 305 OFFCURVE",
"360 306 OFFCURVE",
"355 306 CURVE SMOOTH",
"199 306 LINE",
"229 488 LINE",
"278 488 OFFCURVE",
"312 483 OFFCURVE",
"335 483 CURVE SMOOTH",
"410 483 OFFCURVE",
"443 537 OFFCURVE",
"443 560 CURVE SMOOTH",
"443 566 OFFCURVE",
"440 568 OFFCURVE",
"435 568 CURVE SMOOTH",
"420 568 OFFCURVE",
"405 552 OFFCURVE",
"335 552 CURVE SMOOTH",
"287 552 OFFCURVE",
"231 560 OFFCURVE",
"189 560 CURVE SMOOTH",
"103 560 OFFCURVE",
"46 525 OFFCURVE",
"35 478 CURVE SMOOTH",
"34 474 OFFCURVE",
"33 470 OFFCURVE",
"33 466 CURVE SMOOTH",
"33 461 OFFCURVE",
"35 458 OFFCURVE",
"39 458 CURVE SMOOTH",
"51 458 OFFCURVE",
"68 490 OFFCURVE",
"139 490 CURVE SMOOTH",
"143 490 LINE",
"85 142 LINE SMOOTH",
"75 81 OFFCURVE",
"69 73 OFFCURVE",
"47 52 CURVE SMOOTH",
"33 38 OFFCURVE",
"22 25 OFFCURVE",
"22 10 CURVE SMOOTH",
"22 2 OFFCURVE",
"24 0 OFFCURVE",
"27 0 CURVE SMOOTH"
);
}
);
width = 409;
},
{
anchors = (
{
name = bottom;
position = "{93, 0}";
},
{
name = top;
position = "{289, 560}";
}
);
background = {
anchors = (
{
name = bottom;
position = "{92, 0}";
},
{
name = top;
position = "{288, 560}";
}
);
paths = (
{
closed = 1;
nodes = (
"39 0 OFFCURVE",
"54 14 OFFCURVE",
"74 14 CURVE SMOOTH",
"94 14 OFFCURVE",
"118 0 OFFCURVE",
"134 0 CURVE SMOOTH",
"143 0 OFFCURVE",
"159 5 OFFCURVE",
"186 33 CURVE SMOOTH",
"195 42 OFFCURVE",
"197 47 OFFCURVE",
"197 51 CURVE SMOOTH",
"197 54 OFFCURVE",
"195 56 OFFCURVE",
"192 56 CURVE SMOOTH",
"185 56 OFFCURVE",
"175 47 OFFCURVE",
"158 47 CURVE SMOOTH",
"149 47 OFFCURVE",
"138 50 OFFCURVE",
"126 54 CURVE",
"126 55 LINE",
"134 63 OFFCURVE",
"141 75 OFFCURVE",
"143 89 CURVE SMOOTH",
"171 252 LINE",
"198 252 LINE SMOOTH",
"235 252 OFFCURVE",
"258 242 OFFCURVE",
"273 242 CURVE SMOOTH",
"303 242 OFFCURVE",
"337 286 OFFCURVE",
"337 297 CURVE SMOOTH",
"337 300 OFFCURVE",
"335 302 OFFCURVE",
"330 302 CURVE SMOOTH",
"178 302 LINE",
"212 510 LINE",
"242 510 OFFCURVE",
"286 504 OFFCURVE",
"316 504 CURVE SMOOTH",
"398 504 OFFCURVE",
"430 546 OFFCURVE",
"430 562 CURVE SMOOTH",
"430 566 OFFCURVE",
"429 568 OFFCURVE",
"425 568 CURVE SMOOTH",
"414 568 OFFCURVE",
"397 552 OFFCURVE",
"330 552 CURVE SMOOTH",
"283 552 OFFCURVE",
"226 560 OFFCURVE",
"182 560 CURVE SMOOTH",
"96 560 OFFCURVE",
"56 529 OFFCURVE",
"44 495 CURVE SMOOTH",
"43 492 OFFCURVE",
"42 488 OFFCURVE",
"42 483 CURVE SMOOTH",
"42 480 OFFCURVE",
"43 476 OFFCURVE",
"47 476 CURVE SMOOTH",
"57 476 OFFCURVE",
"68 509 OFFCURVE",
"148 509 CURVE SMOOTH",
"152 509 LINE",
"92 142 LINE SMOOTH",
"80 70 OFFCURVE",
"79 70 OFFCURVE",
"46 41 CURVE SMOOTH",
"33 29 OFFCURVE",
"29 17 OFFCURVE",
"29 7 CURVE SMOOTH",
"29 3 OFFCURVE",
"30 0 OFFCURVE",
"33 0 CURVE SMOOTH"
);
}
);
};
layerId = "0B1DFD06-3317-40CA-B510-4969A0718C16";
paths = (
{
closed = 1;
nodes = (
"40 0 OFFCURVE",
"55 14 OFFCURVE",
"75 14 CURVE SMOOTH",
"95 14 OFFCURVE",
"119 0 OFFCURVE",
"135 0 CURVE SMOOTH",
"144 0 OFFCURVE",
"159 5 OFFCURVE",
"187 33 CURVE SMOOTH",
"196 42 OFFCURVE",
"198 47 OFFCURVE",
"198 51 CURVE SMOOTH",
"198 54 OFFCURVE",
"196 56 OFFCURVE",
"193 56 CURVE SMOOTH",
"186 56 OFFCURVE",
"176 47 OFFCURVE",
"159 47 CURVE SMOOTH",
"150 47 OFFCURVE",
"139 50 OFFCURVE",
"127 54 CURVE",
"127 55 LINE",
"135 63 OFFCURVE",
"142 75 OFFCURVE",
"144 89 CURVE SMOOTH",
"172 252 LINE",
"199 252 LINE SMOOTH",
"236 252 OFFCURVE",
"259 242 OFFCURVE",
"274 242 CURVE SMOOTH",
"304 242 OFFCURVE",
"338 286 OFFCURVE",
"338 297 CURVE SMOOTH",
"338 300 OFFCURVE",
"336 302 OFFCURVE",
"331 302 CURVE SMOOTH",
"179 302 LINE",
"213 510 LINE",
"243 510 OFFCURVE",
"287 504 OFFCURVE",
"317 504 CURVE SMOOTH",
"399 504 OFFCURVE",
"431 546 OFFCURVE",
"431 562 CURVE SMOOTH",
"431 566 OFFCURVE",
"430 568 OFFCURVE",
"425 568 CURVE SMOOTH",
"414 568 OFFCURVE",
"398 552 OFFCURVE",
"331 552 CURVE SMOOTH",
"284 552 OFFCURVE",
"227 560 OFFCURVE",
"183 560 CURVE SMOOTH",
"97 560 OFFCURVE",
"56 529 OFFCURVE",
"45 495 CURVE SMOOTH",
"44 492 OFFCURVE",
"43 488 OFFCURVE",
"43 483 CURVE SMOOTH",
"43 480 OFFCURVE",
"44 476 OFFCURVE",
"48 476 CURVE SMOOTH",
"58 476 OFFCURVE",
"69 509 OFFCURVE",
"149 509 CURVE SMOOTH",
"153 509 LINE",
"93 142 LINE SMOOTH",
"81 69 OFFCURVE",
"79 71 OFFCURVE",
"47 41 CURVE SMOOTH",
"34 29 OFFCURVE",
"30 17 OFFCURVE",
"30 7 CURVE SMOOTH",
"30 3 OFFCURVE",
"31 0 OFFCURVE",
"34 0 CURVE SMOOTH"
);
}
);
width = 405;
}
);
leftKerningGroup = E;
note = F;
unicode = 0046;
},
{
glyphname = G;
layers = (
{
anchors = (
{
name = bottom;
position = "{198, -200}";
},
{
name = top;
position = "{333, 560}";
}
);
background = {
anchors = (
{
name = bottom;
position = "{206, -200}";
},
{
name = top;
position = "{341, 560}";
}
);
paths = (
{
closed = 1;
nodes = (
"308 -206 OFFCURVE",
"386 -108 OFFCURVE",
"406 57 CURVE SMOOTH",
"429 245 LINE SMOOTH",
"434 290 OFFCURVE",
"450 296 OFFCURVE",
"450 310 CURVE SMOOTH",
"450 316 OFFCURVE",
"446 318 OFFCURVE",
"438 318 CURVE SMOOTH",
"409 318 OFFCURVE",
"359 294 OFFCURVE",
"353 250 CURVE SMOOTH",
"336 130 LINE",
"316 95 OFFCURVE",
"286 74 OFFCURVE",
"241 74 CURVE SMOOTH",
"178 74 OFFCURVE",
"146 115 OFFCURVE",
"146 223 CURVE SMOOTH",
"146 382 OFFCURVE",
"216 507 OFFCURVE",
"330 507 CURVE SMOOTH",
"367 507 OFFCURVE",
"396 494 OFFCURVE",
"405 458 CURVE SMOOTH",
"409 442 OFFCURVE",
"408 421 OFFCURVE",
"422 421 CURVE SMOOTH",
"434 421 OFFCURVE",
"443 434 OFFCURVE",
"450 446 CURVE SMOOTH",
"460 464 OFFCURVE",
"466 480 OFFCURVE",
"466 497 CURVE SMOOTH",
"466 542 OFFCURVE",
"421 568 OFFCURVE",
"355 568 CURVE SMOOTH",
"191 568 OFFCURVE",
"50 409 OFFCURVE",
"50 199 CURVE SMOOTH",
"50 63 OFFCURVE",
"110 0 OFFCURVE",
"202 0 CURVE SMOOTH",
"260 0 OFFCURVE",
"298 24 OFFCURVE",
"325 50 CURVE",
"319 10 LINE SMOOTH",
"303 -108 OFFCURVE",
"282 -147 OFFCURVE",
"228 -147 CURVE SMOOTH",
"171 -147 OFFCURVE",
"155 -104 OFFCURVE",
"146 -74 CURVE SMOOTH",
"145 -71 OFFCURVE",
"143 -70 OFFCURVE",
"140 -70 CURVE SMOOTH",
"122 -70 OFFCURVE",
"76 -119 OFFCURVE",
"76 -145 CURVE SMOOTH",
"76 -171 OFFCURVE",
"123 -206 OFFCURVE",
"194 -206 CURVE SMOOTH"
);
}
);
};
layerId = "56450C88-1299-454A-B666-E6F9AF06B23F";
paths = (
{
closed = 1;
nodes = (
"300 -206 OFFCURVE",
"378 -108 OFFCURVE",
"398 57 CURVE SMOOTH",
"421 245 LINE SMOOTH",
"426 290 OFFCURVE",
"442 296 OFFCURVE",
"442 310 CURVE SMOOTH",
"442 316 OFFCURVE",
"438 318 OFFCURVE",
"430 318 CURVE SMOOTH",
"401 318 OFFCURVE",
"351 294 OFFCURVE",
"345 250 CURVE SMOOTH",
"328 130 LINE",
"308 95 OFFCURVE",
"278 74 OFFCURVE",
"233 74 CURVE SMOOTH",
"170 74 OFFCURVE",
"138 115 OFFCURVE",
"138 223 CURVE SMOOTH",
"138 382 OFFCURVE",
"208 507 OFFCURVE",
"322 507 CURVE SMOOTH",
"359 507 OFFCURVE",
"388 494 OFFCURVE",
"397 458 CURVE SMOOTH",
"401 442 OFFCURVE",
"400 421 OFFCURVE",
"414 421 CURVE SMOOTH",
"426 421 OFFCURVE",
"435 434 OFFCURVE",
"442 446 CURVE SMOOTH",
"452 464 OFFCURVE",
"458 480 OFFCURVE",
"458 497 CURVE SMOOTH",
"458 542 OFFCURVE",
"413 568 OFFCURVE",
"347 568 CURVE SMOOTH",
"183 568 OFFCURVE",
"42 409 OFFCURVE",
"42 199 CURVE SMOOTH",
"42 63 OFFCURVE",
"102 0 OFFCURVE",
"194 0 CURVE SMOOTH",
"252 0 OFFCURVE",
"290 24 OFFCURVE",
"317 50 CURVE",
"311 10 LINE SMOOTH",
"295 -108 OFFCURVE",
"274 -147 OFFCURVE",
"220 -147 CURVE SMOOTH",
"163 -147 OFFCURVE",
"147 -104 OFFCURVE",
"138 -74 CURVE SMOOTH",
"137 -71 OFFCURVE",
"135 -70 OFFCURVE",
"132 -70 CURVE SMOOTH",
"114 -70 OFFCURVE",
"68 -119 OFFCURVE",
"68 -145 CURVE SMOOTH",
"68 -171 OFFCURVE",
"115 -206 OFFCURVE",
"186 -206 CURVE SMOOTH"
);
}
);
width = 476;
},
{
anchors = (
{
name = bottom;
position = "{189, -200}";
},
{
name = top;
position = "{347, 560}";
}
);
background = {
anchors = (
{
name = bottom;
position = "{189, -200}";
},
{
name = top;
position = "{347, 560}";
}
);
paths = (
{
closed = 1;
nodes = (
"280 -206 OFFCURVE",
"351 -114 OFFCURVE",
"378 49 CURVE",
"403 255 LINE SMOOTH",
"408 294 OFFCURVE",
"423 301 OFFCURVE",
"423 307 CURVE SMOOTH",
"423 310 OFFCURVE",
"420 312 OFFCURVE",
"414 312 CURVE SMOOTH",
"390 312 OFFCURVE",
"356 279 OFFCURVE",
"353 253 CURVE SMOOTH",
"337 134 LINE",
"308 75 OFFCURVE",
"262 56 OFFCURVE",
"223 56 CURVE SMOOTH",
"159 56 OFFCURVE",
"118 109 OFFCURVE",
"118 214 CURVE SMOOTH",
"118 336 OFFCURVE",
"174 525 OFFCURVE",
"314 525 CURVE SMOOTH",
"363 525 OFFCURVE",
"389 506 OFFCURVE",
"397 466 CURVE SMOOTH",
"400 450 OFFCURVE",
"401 438 OFFCURVE",
"410 438 CURVE SMOOTH",
"416 438 OFFCURVE",
"420 442 OFFCURVE",
"426 450 CURVE SMOOTH",
"443 476 OFFCURVE",
"444 497 OFFCURVE",
"444 502 CURVE SMOOTH",
"444 549 OFFCURVE",
"387 568 OFFCURVE",
"339 568 CURVE SMOOTH",
"208 568 OFFCURVE",
"50 427 OFFCURVE",
"50 201 CURVE SMOOTH",
"50 68 OFFCURVE",
"104 0 OFFCURVE",
"186 0 CURVE SMOOTH",
"230 0 OFFCURVE",
"278 19 OFFCURVE",
"325 65 CURVE",
"314 -1 LINE SMOOTH",
"295 -122 OFFCURVE",
"269 -165 OFFCURVE",
"213 -165 CURVE SMOOTH",
"175 -165 OFFCURVE",
"149 -146 OFFCURVE",
"130 -91 CURVE SMOOTH",
"129 -86 OFFCURVE",
"127 -84 OFFCURVE",
"124 -84 CURVE SMOOTH",
"110 -84 OFFCURVE",
"74 -124 OFFCURVE",
"74 -151 CURVE SMOOTH",
"74 -182 OFFCURVE",
"122 -206 OFFCURVE",
"175 -206 CURVE SMOOTH"
);
}
);
};
layerId = "0B1DFD06-3317-40CA-B510-4969A0718C16";
paths = (
{
closed = 1;
nodes = (
"280 -206 OFFCURVE",
"351 -114 OFFCURVE",
"378 49 CURVE",
"403 255 LINE SMOOTH",
"408 294 OFFCURVE",
"423 301 OFFCURVE",
"423 307 CURVE SMOOTH",
"423 310 OFFCURVE",
"420 312 OFFCURVE",
"414 312 CURVE SMOOTH",
"390 312 OFFCURVE",
"356 279 OFFCURVE",
"353 253 CURVE SMOOTH",
"337 134 LINE",
"308 75 OFFCURVE",
"262 56 OFFCURVE",
"223 56 CURVE SMOOTH",
"159 56 OFFCURVE",
"118 109 OFFCURVE",
"118 214 CURVE SMOOTH",
"118 336 OFFCURVE",
"174 525 OFFCURVE",
"314 525 CURVE SMOOTH",
"363 525 OFFCURVE",
"389 506 OFFCURVE",
"397 466 CURVE SMOOTH",
"400 450 OFFCURVE",
"401 438 OFFCURVE",
"410 438 CURVE SMOOTH",
"416 438 OFFCURVE",
"420 442 OFFCURVE",
"426 450 CURVE SMOOTH",
"443 476 OFFCURVE",
"444 497 OFFCURVE",
"444 502 CURVE SMOOTH",
"444 549 OFFCURVE",
"387 568 OFFCURVE",
"339 568 CURVE SMOOTH",
"208 568 OFFCURVE",
"50 427 OFFCURVE",
"50 201 CURVE SMOOTH",
"50 68 OFFCURVE",
"104 0 OFFCURVE",
"186 0 CURVE SMOOTH",
"230 0 OFFCURVE",
"278 19 OFFCURVE",
"325 65 CURVE",
"314 -1 LINE SMOOTH",
"295 -122 OFFCURVE",
"269 -165 OFFCURVE",
"213 -165 CURVE SMOOTH",
"175 -165 OFFCURVE",
"149 -146 OFFCURVE",
"130 -91 CURVE SMOOTH",
"129 -86 OFFCURVE",
"127 -84 OFFCURVE",
"124 -84 CURVE SMOOTH",
"110 -84 OFFCURVE",
"74 -124 OFFCURVE",
"74 -151 CURVE SMOOTH",
"74 -182 OFFCURVE",
"122 -206 OFFCURVE",
"175 -206 CURVE SMOOTH"
);
}
);
width = 470;
}
);
leftKerningGroup = C;
note = G;
rightKerningGroup = G;
unicode = 0047;
},
{
glyphname = H;
layers = (
{
anchors = (
{
name = bottom;
position = "{255, 0}";
},
{
name = center;
position = "{296, 280}";
},
{
name = top;
position = "{337, 560}";
}
);
background = {
anchors = (
{
name = bottom;
position = "{263, 0}";
},
{
name = center;
position = "{304, 280}";
},
{
name = top;
position = "{345, 560}";
}
);
paths = (
{
closed = 1;
nodes = (
"457 -8 OFFCURVE",
"526 62 OFFCURVE",
"526 98 CURVE SMOOTH",
"526 104 OFFCURVE",
"525 107 OFFCURVE",
"521 107 CURVE SMOOTH",
"508 107 OFFCURVE",
"489 72 OFFCURVE",
"462 72 CURVE SMOOTH",
"452 72 OFFCURVE",
"447 77 OFFCURVE",
"452 105 CURVE SMOOTH",
"508 463 LINE SMOOTH",
"540 666 OFFCURVE",
"603 650 OFFCURVE",
"654 658 CURVE SMOOTH",
"701 665 OFFCURVE",
"716 691 OFFCURVE",
"716 707 CURVE SMOOTH",
"716 713 OFFCURVE",
"714 716 OFFCURVE",
"710 716 CURVE SMOOTH",
"706 716 OFFCURVE",
"703 714 OFFCURVE",
"694 711 CURVE SMOOTH",
"687 709 OFFCURVE",
"675 708 OFFCURVE",
"666 708 CURVE SMOOTH",
"520 702 OFFCURVE",
"452 639 OFFCURVE",
"418 442 CURVE SMOOTH",
"398 331 LINE",
"224 331 LINE",
"242 444 LINE SMOOTH",
"248 486 OFFCURVE",
"261 529 OFFCURVE",
"272 560 CURVE",
"256 560 OFFCURVE",
"242 556 OFFCURVE",
"215 556 CURVE SMOOTH",
"188 556 OFFCURVE",
"168 560 OFFCURVE",
"146 560 CURVE SMOOTH",
"85 560 OFFCURVE",
"38 526 OFFCURVE",
"28 475 CURVE SMOOTH",
"27 470 OFFCURVE",
"26 465 OFFCURVE",
"26 458 CURVE SMOOTH",
"26 453 OFFCURVE",
"28 450 OFFCURVE",
"32 450 CURVE SMOOTH",
"38 450 OFFCURVE",
"42 455 OFFCURVE",
"48 463 CURVE SMOOTH",
"67 487 OFFCURVE",
"87 493 OFFCURVE",
"116 493 CURVE SMOOTH",
"142 493 OFFCURVE",
"154 488 OFFCURVE",
"164 488 CURVE",
"107 142 LINE SMOOTH",
"97 81 OFFCURVE",
"91 73 OFFCURVE",
"70 52 CURVE SMOOTH",
"57 40 OFFCURVE",
"44 26 OFFCURVE",
"44 10 CURVE SMOOTH",
"44 3 OFFCURVE",
"46 0 OFFCURVE",
"50 0 CURVE SMOOTH",
"58 0 OFFCURVE",
"73 13 OFFCURVE",
"100 13 CURVE SMOOTH",
"126 13 OFFCURVE",
"150 0 OFFCURVE",
"171 0 CURVE SMOOTH",
"189 0 OFFCURVE",
"205 10 OFFCURVE",
"230 42 CURVE SMOOTH",
"237 51 OFFCURVE",
"240 59 OFFCURVE",
"240 64 CURVE SMOOTH",
"240 69 OFFCURVE",
"238 71 OFFCURVE",
"234 71 CURVE SMOOTH",
"226 71 OFFCURVE",
"217 62 OFFCURVE",
"198 62 CURVE SMOOTH",
"186 62 OFFCURVE",
"174 65 OFFCURVE",
"168 68 CURVE",
"168 69 LINE",
"177 77 OFFCURVE",
"184 90 OFFCURVE",
"186 105 CURVE SMOOTH",
"214 262 LINE",
"387 262 LINE",
"361 84 LINE SMOOTH",
"351 18 OFFCURVE",
"369 -8 OFFCURVE",
"402 -8 CURVE SMOOTH"
);
}
);
};
layerId = "56450C88-1299-454A-B666-E6F9AF06B23F";
paths = (
{
closed = 1;
nodes = (
"449 -8 OFFCURVE",
"518 62 OFFCURVE",
"518 98 CURVE SMOOTH",
"518 104 OFFCURVE",
"517 107 OFFCURVE",
"513 107 CURVE SMOOTH",
"500 107 OFFCURVE",
"481 72 OFFCURVE",
"454 72 CURVE SMOOTH",
"444 72 OFFCURVE",
"439 77 OFFCURVE",
"444 105 CURVE SMOOTH",
"500 463 LINE SMOOTH",
"532 666 OFFCURVE",
"595 650 OFFCURVE",
"646 658 CURVE SMOOTH",
"693 665 OFFCURVE",
"708 691 OFFCURVE",
"708 707 CURVE SMOOTH",
"708 713 OFFCURVE",
"706 716 OFFCURVE",
"702 716 CURVE SMOOTH",
"698 716 OFFCURVE",
"695 714 OFFCURVE",
"686 711 CURVE SMOOTH",
"679 709 OFFCURVE",
"667 708 OFFCURVE",
"658 708 CURVE SMOOTH",
"512 702 OFFCURVE",
"444 639 OFFCURVE",
"410 442 CURVE SMOOTH",
"390 331 LINE",
"216 331 LINE",
"234 444 LINE SMOOTH",
"240 486 OFFCURVE",
"253 529 OFFCURVE",
"264 560 CURVE",
"248 560 OFFCURVE",
"234 556 OFFCURVE",
"207 556 CURVE SMOOTH",
"180 556 OFFCURVE",
"160 560 OFFCURVE",
"138 560 CURVE SMOOTH",
"77 560 OFFCURVE",
"30 526 OFFCURVE",
"20 475 CURVE SMOOTH",
"19 470 OFFCURVE",
"18 465 OFFCURVE",
"18 458 CURVE SMOOTH",
"18 453 OFFCURVE",
"20 450 OFFCURVE",
"24 450 CURVE SMOOTH",
"30 450 OFFCURVE",
"34 455 OFFCURVE",
"40 463 CURVE SMOOTH",
"59 487 OFFCURVE",
"79 493 OFFCURVE",
"108 493 CURVE SMOOTH",
"134 493 OFFCURVE",
"146 488 OFFCURVE",
"156 488 CURVE",
"99 142 LINE SMOOTH",
"89 81 OFFCURVE",
"83 73 OFFCURVE",
"62 52 CURVE SMOOTH",
"49 40 OFFCURVE",
"36 26 OFFCURVE",
"36 10 CURVE SMOOTH",
"36 3 OFFCURVE",
"38 0 OFFCURVE",
"42 0 CURVE SMOOTH",
"50 0 OFFCURVE",
"65 13 OFFCURVE",
"92 13 CURVE SMOOTH",
"118 13 OFFCURVE",
"142 0 OFFCURVE",
"163 0 CURVE SMOOTH",
"181 0 OFFCURVE",
"197 10 OFFCURVE",
"222 42 CURVE SMOOTH",
"229 51 OFFCURVE",
"232 59 OFFCURVE",
"232 64 CURVE SMOOTH",
"232 69 OFFCURVE",
"230 71 OFFCURVE",
"226 71 CURVE SMOOTH",
"218 71 OFFCURVE",
"209 62 OFFCURVE",
"190 62 CURVE SMOOTH",
"178 62 OFFCURVE",
"166 65 OFFCURVE",
"160 68 CURVE",
"160 69 LINE",
"169 77 OFFCURVE",
"176 90 OFFCURVE",
"178 105 CURVE SMOOTH",
"206 262 LINE",
"379 262 LINE",
"353 84 LINE SMOOTH",
"343 18 OFFCURVE",
"361 -8 OFFCURVE",
"394 -8 CURVE SMOOTH"
);
}
);
width = 568;
},
{
anchors = (
{
name = bottom;
position = "{251, 0}";
},
{
name = center;
position = "{292, 280}";
},
{
name = top;
position = "{337, 560}";
}
);
background = {
anchors = (
{
name = bottom;
position = "{251, 0}";
},
{
name = center;
position = "{292, 280}";
},
{
name = top;
position = "{337, 560}";
}
);
paths = (
{
closed = 1;
nodes = (
"408 -8 OFFCURVE",
"484 51 OFFCURVE",
"484 82 CURVE SMOOTH",
"484 87 OFFCURVE",
"482 90 OFFCURVE",
"479 90 CURVE SMOOTH",
"471 90 OFFCURVE",
"450 61 OFFCURVE",
"427 61 CURVE SMOOTH",
"416 61 OFFCURVE",
"413 66 OFFCURVE",
"418 97 CURVE SMOOTH",
"475 466 LINE SMOOTH",
"498 614 OFFCURVE",
"534 662 OFFCURVE",
"633 674 CURVE SMOOTH",
"675 680 OFFCURVE",
"683 704 OFFCURVE",
"683 711 CURVE SMOOTH",
"683 714 OFFCURVE",
"682 716 OFFCURVE",
"679 716 CURVE SMOOTH",
"677 716 OFFCURVE",
"675 715 OFFCURVE",
"669 713 CURVE SMOOTH",
"662 711 OFFCURVE",
"653 710 OFFCURVE",
"643 709 CURVE SMOOTH",
"505 699 OFFCURVE",
"441 626 OFFCURVE",
"412 454 CURVE SMOOTH",
"390 324 LINE",
"196 324 LINE",
"218 462 LINE SMOOTH",
"222 486 OFFCURVE",
"225 515 OFFCURVE",
"239 560 CURVE",
"225 560 OFFCURVE",
"215 557 OFFCURVE",
"191 557 CURVE SMOOTH",
"167 557 OFFCURVE",
"146 560 OFFCURVE",
"128 560 CURVE SMOOTH",
"77 560 OFFCURVE",
"40 534 OFFCURVE",
"28 489 CURVE SMOOTH",
"27 485 OFFCURVE",
"26 480 OFFCURVE",
"26 475 CURVE SMOOTH",
"26 471 OFFCURVE",
"27 468 OFFCURVE",
"30 468 CURVE SMOOTH",
"34 468 OFFCURVE",
"37 474 OFFCURVE",
"43 482 CURVE SMOOTH",
"58 503 OFFCURVE",
"80 512 OFFCURVE",
"111 512 CURVE SMOOTH",
"130 512 OFFCURVE",
"153 508 OFFCURVE",
"165 508 CURVE",
"106 139 LINE SMOOTH",
"95 77 OFFCURVE",
"110 91 OFFCURVE",
"62 41 CURVE SMOOTH",
"50 29 OFFCURVE",
"44 20 OFFCURVE",
"44 8 CURVE SMOOTH",
"44 3 OFFCURVE",
"45 0 OFFCURVE",
"48 0 CURVE SMOOTH",
"55 0 OFFCURVE",
"69 14 OFFCURVE",
"89 14 CURVE SMOOTH",
"109 14 OFFCURVE",
"133 0 OFFCURVE",
"149 0 CURVE SMOOTH",
"155 0 OFFCURVE",
"169 2 OFFCURVE",
"198 33 CURVE SMOOTH",
"207 42 OFFCURVE",
"208 46 OFFCURVE",
"208 50 CURVE SMOOTH",
"208 54 OFFCURVE",
"206 56 OFFCURVE",
"203 56 CURVE SMOOTH",
"195 56 OFFCURVE",
"187 47 OFFCURVE",
"170 47 CURVE SMOOTH",
"160 47 OFFCURVE",
"154 50 OFFCURVE",
"142 54 CURVE",
"142 55 LINE",
"149 63 OFFCURVE",
"155 75 OFFCURVE",
"157 89 CURVE SMOOTH",
"188 270 LINE",
"381 270 LINE",
"352 74 LINE SMOOTH",
"345 22 OFFCURVE",
"356 -8 OFFCURVE",
"378 -8 CURVE SMOOTH"
);
}
);
};
layerId = "0B1DFD06-3317-40CA-B510-4969A0718C16";
paths = (
{
closed = 1;
nodes = (
"408 -8 OFFCURVE",
"484 51 OFFCURVE",
"484 82 CURVE SMOOTH",
"484 87 OFFCURVE",
"482 90 OFFCURVE",
"479 90 CURVE SMOOTH",
"471 90 OFFCURVE",
"450 61 OFFCURVE",
"427 61 CURVE SMOOTH",
"416 61 OFFCURVE",
"413 66 OFFCURVE",
"418 97 CURVE SMOOTH",
"475 466 LINE SMOOTH",
"498 614 OFFCURVE",
"534 662 OFFCURVE",
"633 674 CURVE SMOOTH",
"675 680 OFFCURVE",
"683 704 OFFCURVE",
"683 711 CURVE SMOOTH",
"683 714 OFFCURVE",
"682 716 OFFCURVE",
"679 716 CURVE SMOOTH",
"677 716 OFFCURVE",
"675 715 OFFCURVE",
"669 713 CURVE SMOOTH",
"662 711 OFFCURVE",
"653 710 OFFCURVE",
"643 709 CURVE SMOOTH",
"505 699 OFFCURVE",
"441 626 OFFCURVE",
"412 454 CURVE SMOOTH",
"390 324 LINE",
"196 324 LINE",
"218 462 LINE SMOOTH",
"222 486 OFFCURVE",
"225 515 OFFCURVE",
"239 560 CURVE",
"225 560 OFFCURVE",
"215 557 OFFCURVE",
"191 557 CURVE SMOOTH",
"167 557 OFFCURVE",
"146 560 OFFCURVE",
"128 560 CURVE SMOOTH",
"77 560 OFFCURVE",
"40 534 OFFCURVE",
"28 489 CURVE SMOOTH",
"27 485 OFFCURVE",
"26 480 OFFCURVE",
"26 475 CURVE SMOOTH",
"26 471 OFFCURVE",
"27 468 OFFCURVE",
"30 468 CURVE SMOOTH",
"34 468 OFFCURVE",
"37 474 OFFCURVE",
"43 482 CURVE SMOOTH",
"58 503 OFFCURVE",
"80 512 OFFCURVE",
"111 512 CURVE SMOOTH",
"130 512 OFFCURVE",
"153 508 OFFCURVE",
"165 508 CURVE",
"106 139 LINE SMOOTH",
"95 68 OFFCURVE",
"94 71 OFFCURVE",
"62 41 CURVE SMOOTH",
"50 29 OFFCURVE",
"44 20 OFFCURVE",
"44 8 CURVE SMOOTH",
"44 3 OFFCURVE",
"45 0 OFFCURVE",
"48 0 CURVE SMOOTH",
"55 0 OFFCURVE",
"69 14 OFFCURVE",
"89 14 CURVE SMOOTH",
"109 14 OFFCURVE",
"133 0 OFFCURVE",
"149 0 CURVE SMOOTH",
"155 0 OFFCURVE",
"169 2 OFFCURVE",
"198 33 CURVE SMOOTH",
"207 42 OFFCURVE",
"208 46 OFFCURVE",
"208 50 CURVE SMOOTH",
"208 54 OFFCURVE",
"206 56 OFFCURVE",
"203 56 CURVE SMOOTH",
"195 56 OFFCURVE",
"187 47 OFFCURVE",
"170 47 CURVE SMOOTH",
"160 47 OFFCURVE",
"154 50 OFFCURVE",
"142 54 CURVE",
"142 55 LINE",
"149 63 OFFCURVE",
"155 75 OFFCURVE",
"157 89 CURVE SMOOTH",
"188 270 LINE",
"381 270 LINE",
"352 74 LINE SMOOTH",
"345 22 OFFCURVE",
"356 -8 OFFCURVE",
"378 -8 CURVE SMOOTH"
);
}
);
width = 551;
}
);
leftKerningGroup = H;
note = H;
rightKerningGroup = H;
unicode = 0048;
},
{
glyphname = Hbar;
layers = (
{
background = {
components = (
{
locked = 1;
name = H;
transform = "{1, 0, 0, 1, 5, 0}";
}
);
paths = (
{
closed = 1;
nodes = (
"35 378 OFFCURVE",
"48 382 OFFCURVE",
"66 382 CURVE SMOOTH",
"531 382 LINE SMOOTH",
"565 382 OFFCURVE",
"608 410 OFFCURVE",
"608 431 CURVE SMOOTH",
"608 438 OFFCURVE",
"606 441 OFFCURVE",
"599 441 CURVE SMOOTH",
"592 441 OFFCURVE",
"580 437 OFFCURVE",
"561 437 CURVE SMOOTH",
"96 437 LINE SMOOTH",
"62 437 OFFCURVE",
"19 410 OFFCURVE",
"19 388 CURVE SMOOTH",
"19 382 OFFCURVE",
"21 378 OFFCURVE",
"28 378 CURVE SMOOTH"
);
}
);
};
components = (
{
locked = 1;
name = H;
transform = "{1, 0, 0, 1, -11, 0}";
}
);
layerId = "56450C88-1299-454A-B666-E6F9AF06B23F";
paths = (
{
closed = 1;
nodes = (
"27 378 OFFCURVE",
"40 382 OFFCURVE",
"58 382 CURVE SMOOTH",
"523 382 LINE SMOOTH",
"557 382 OFFCURVE",
"600 410 OFFCURVE",
"600 431 CURVE SMOOTH",
"600 438 OFFCURVE",
"598 441 OFFCURVE",
"591 441 CURVE SMOOTH",
"584 441 OFFCURVE",
"572 437 OFFCURVE",
"553 437 CURVE SMOOTH",
"88 437 LINE SMOOTH",
"54 437 OFFCURVE",
"11 410 OFFCURVE",
"11 388 CURVE SMOOTH",
"11 382 OFFCURVE",
"13 378 OFFCURVE",
"20 378 CURVE SMOOTH"
);
}
);
width = 579;
},
{
background = {
components = (
{
locked = 1;
name = H;
}
);
paths = (
{
closed = 1;
nodes = (
"34 398 OFFCURVE",
"45 400 OFFCURVE",
"62 400 CURVE SMOOTH",
"514 400 LINE SMOOTH",
"550 400 OFFCURVE",
"577 428 OFFCURVE",
"577 440 CURVE SMOOTH",
"577 443 OFFCURVE",
"574 446 OFFCURVE",
"570 446 CURVE SMOOTH",
"562 446 OFFCURVE",
"551 443 OFFCURVE",
"534 443 CURVE SMOOTH",
"82 443 LINE SMOOTH",
"46 443 OFFCURVE",
"19 415 OFFCURVE",
"19 403 CURVE SMOOTH",
"19 400 OFFCURVE",
"22 398 OFFCURVE",
"26 398 CURVE SMOOTH"
);
}
);
};
components = (
{
locked = 1;
name = H;
}
);
layerId = "0B1DFD06-3317-40CA-B510-4969A0718C16";
paths = (
{
closed = 1;
nodes = (
"34 398 OFFCURVE",
"45 400 OFFCURVE",
"62 400 CURVE SMOOTH",
"514 400 LINE SMOOTH",
"550 400 OFFCURVE",
"577 428 OFFCURVE",
"577 440 CURVE SMOOTH",
"577 443 OFFCURVE",
"574 446 OFFCURVE",
"570 446 CURVE SMOOTH",
"562 446 OFFCURVE",
"551 443 OFFCURVE",
"534 443 CURVE SMOOTH",
"82 443 LINE SMOOTH",
"46 443 OFFCURVE",
"19 415 OFFCURVE",
"19 403 CURVE SMOOTH",
"19 400 OFFCURVE",
"22 398 OFFCURVE",
"26 398 CURVE SMOOTH"
);
}
);
width = 557;
}
);
note = Hbar;
unicode = 0126;
},
{
glyphname = I;
layers = (
{
anchors = (
{
name = bottom;
position = "{114, 0}";
},
{
name = ogonek;
position = "{197, 8}";
},
{
name = top;
position = "{210, 560}";
},
{
name = topleft;
position = "{81, 529}";
}
);
background = {
anchors = (
{
name = bottom;
position = "{122, 0}";
},
{
name = ogonek;
position = "{205, 8}";
},
{
name = top;
position = "{218, 560}";
},
{
name = topleft;
position = "{89, 529}";
}
);
paths = (
{
closed = 1;
nodes = (
"47 0 OFFCURVE",
"64 13 OFFCURVE",
"102 13 CURVE SMOOTH",
"139 13 OFFCURVE",
"161 0 OFFCURVE",
"183 0 CURVE SMOOTH",
"202 0 OFFCURVE",
"225 9 OFFCURVE",
"247 40 CURVE SMOOTH",
"255 53 OFFCURVE",
"257 59 OFFCURVE",
"257 64 CURVE SMOOTH",
"257 68 OFFCURVE",
"255 71 OFFCURVE",
"251 71 CURVE SMOOTH",
"245 71 OFFCURVE",
"238 63 OFFCURVE",
"215 63 CURVE SMOOTH",
"202 63 OFFCURVE",
"190 65 OFFCURVE",
"174 68 CURVE",
"174 69 LINE",
"183 77 OFFCURVE",
"190 94 OFFCURVE",
"192 112 CURVE SMOOTH",
"248 502 LINE",
"260 503 OFFCURVE",
"276 503 OFFCURVE",
"288 505 CURVE SMOOTH",
"314 508 OFFCURVE",
"313 516 OFFCURVE",
"328 541 CURVE SMOOTH",
"333 549 OFFCURVE",
"335 553 OFFCURVE",
"335 558 CURVE SMOOTH",
"335 562 OFFCURVE",
"334 566 OFFCURVE",
"328 566 CURVE SMOOTH",
"322 566 OFFCURVE",
"321 565 OFFCURVE",
"274 562 CURVE SMOOTH",
"247 560 OFFCURVE",
"204 559 OFFCURVE",
"145 560 CURVE SMOOTH",
"113 560 OFFCURVE",
"91 545 OFFCURVE",
"77 518 CURVE SMOOTH",
"74 512 OFFCURVE",
"71 503 OFFCURVE",
"71 497 CURVE SMOOTH",
"71 492 OFFCURVE",
"73 488 OFFCURVE",
"78 488 CURVE SMOOTH",
"84 488 OFFCURVE",
"101 493 OFFCURVE",
"129 496 CURVE SMOOTH",
"146 498 OFFCURVE",
"154 498 OFFCURVE",
"162 498 CURVE",
"111 142 LINE SMOOTH",
"107 110 OFFCURVE",
"103 85 OFFCURVE",
"92 76 CURVE SMOOTH",
"86 70 OFFCURVE",
"67 63 OFFCURVE",
"61 60 CURVE SMOOTH",
"42 50 OFFCURVE",
"30 21 OFFCURVE",
"30 8 CURVE SMOOTH",
"30 3 OFFCURVE",
"31 0 OFFCURVE",
"36 0 CURVE SMOOTH"
);
}
);
};
layerId = "56450C88-1299-454A-B666-E6F9AF06B23F";
paths = (
{
closed = 1;
nodes = (
"39 0 OFFCURVE",
"56 13 OFFCURVE",
"94 13 CURVE SMOOTH",
"131 13 OFFCURVE",
"153 0 OFFCURVE",
"175 0 CURVE SMOOTH",
"194 0 OFFCURVE",
"217 9 OFFCURVE",
"239 40 CURVE SMOOTH",
"247 53 OFFCURVE",
"249 59 OFFCURVE",
"249 64 CURVE SMOOTH",
"249 68 OFFCURVE",
"247 71 OFFCURVE",
"243 71 CURVE SMOOTH",
"237 71 OFFCURVE",
"230 63 OFFCURVE",
"207 63 CURVE SMOOTH",
"194 63 OFFCURVE",
"182 65 OFFCURVE",
"166 68 CURVE",
"166 69 LINE",
"175 77 OFFCURVE",
"182 94 OFFCURVE",
"184 112 CURVE SMOOTH",
"240 502 LINE",
"252 503 OFFCURVE",
"268 503 OFFCURVE",
"280 505 CURVE SMOOTH",
"306 508 OFFCURVE",
"305 516 OFFCURVE",
"320 541 CURVE SMOOTH",
"325 549 OFFCURVE",
"327 553 OFFCURVE",
"327 558 CURVE SMOOTH",
"327 562 OFFCURVE",
"326 566 OFFCURVE",
"320 566 CURVE SMOOTH",
"314 566 OFFCURVE",
"313 565 OFFCURVE",
"266 562 CURVE SMOOTH",
"239 560 OFFCURVE",
"196 559 OFFCURVE",
"137 560 CURVE SMOOTH",
"105 560 OFFCURVE",
"83 545 OFFCURVE",
"69 518 CURVE SMOOTH",
"66 512 OFFCURVE",
"63 503 OFFCURVE",
"63 497 CURVE SMOOTH",
"63 492 OFFCURVE",
"65 488 OFFCURVE",
"70 488 CURVE SMOOTH",
"76 488 OFFCURVE",
"93 493 OFFCURVE",
"121 496 CURVE SMOOTH",
"138 498 OFFCURVE",
"146 498 OFFCURVE",
"154 498 CURVE",
"103 142 LINE SMOOTH",
"99 110 OFFCURVE",
"95 85 OFFCURVE",
"84 76 CURVE SMOOTH",
"78 70 OFFCURVE",
"59 63 OFFCURVE",
"53 60 CURVE SMOOTH",
"34 50 OFFCURVE",
"22 21 OFFCURVE",
"22 8 CURVE SMOOTH",
"22 3 OFFCURVE",
"23 0 OFFCURVE",
"28 0 CURVE SMOOTH"
);
}
);
width = 321;
},
{
anchors = (
{
name = bottom;
position = "{104, 0}";
},
{
name = ogonek;
position = "{167, 5}";
},
{
name = top;
position = "{204, 560}";
},
{
name = topleft;
position = "{90, 537}";
}
);
background = {
anchors = (
{
name = bottom;
position = "{104, 0}";
},
{
name = ogonek;
position = "{167, 5}";
},
{
name = top;
position = "{204, 560}";
},
{
name = topleft;
position = "{90, 537}";
}
);
paths = (
{
closed = 1;
nodes = (
"42 0 OFFCURVE",
"66 13 OFFCURVE",
"90 13 CURVE SMOOTH",
"114 13 OFFCURVE",
"145 0 OFFCURVE",
"162 0 CURVE SMOOTH",
"178 0 OFFCURVE",
"198 10 OFFCURVE",
"218 32 CURVE SMOOTH",
"227 43 OFFCURVE",
"228 48 OFFCURVE",
"228 51 CURVE SMOOTH",
"228 54 OFFCURVE",
"227 56 OFFCURVE",
"224 56 CURVE SMOOTH",
"218 56 OFFCURVE",
"211 46 OFFCURVE",
"191 46 CURVE SMOOTH",
"176 46 OFFCURVE",
"161 51 OFFCURVE",
"146 53 CURVE",
"146 54 LINE",
"154 62 OFFCURVE",
"160 75 OFFCURVE",
"161 86 CURVE SMOOTH",
"222 515 LINE",
"234 516 OFFCURVE",
"250 517 OFFCURVE",
"262 518 CURVE SMOOTH",
"286 519 OFFCURVE",
"290 529 OFFCURVE",
"300 546 CURVE SMOOTH",
"303 551 OFFCURVE",
"306 557 OFFCURVE",
"306 562 CURVE SMOOTH",
"306 565 OFFCURVE",
"304 567 OFFCURVE",
"301 567 CURVE SMOOTH",
"294 567 OFFCURVE",
"286 561 OFFCURVE",
"254 560 CURVE SMOOTH",
"230 559 OFFCURVE",
"176 558 OFFCURVE",
"140 557 CURVE SMOOTH",
"114 556 OFFCURVE",
"99 545 OFFCURVE",
"86 526 CURVE SMOOTH",
"82 520 OFFCURVE",
"79 514 OFFCURVE",
"79 509 CURVE SMOOTH",
"79 505 OFFCURVE",
"81 504 OFFCURVE",
"84 504 CURVE SMOOTH",
"91 504 OFFCURVE",
"104 510 OFFCURVE",
"131 512 CURVE SMOOTH",
"146 513 OFFCURVE",
"147 513 OFFCURVE",
"162 513 CURVE",
"108 131 LINE SMOOTH",
"102 89 OFFCURVE",
"98 69 OFFCURVE",
"83 59 CURVE SMOOTH",
"79 57 OFFCURVE",
"80 57 OFFCURVE",
"60 49 CURVE SMOOTH",
"42 42 OFFCURVE",
"29 17 OFFCURVE",
"29 6 CURVE SMOOTH",
"29 2 OFFCURVE",
"30 0 OFFCURVE",
"34 0 CURVE SMOOTH"
);
}
);
};
layerId = "0B1DFD06-3317-40CA-B510-4969A0718C16";
paths = (
{
closed = 1;
nodes = (
"43 0 OFFCURVE",
"67 13 OFFCURVE",
"91 13 CURVE SMOOTH",
"115 13 OFFCURVE",
"146 0 OFFCURVE",
"163 0 CURVE SMOOTH",
"179 0 OFFCURVE",
"199 10 OFFCURVE",
"219 32 CURVE SMOOTH",
"229 43 OFFCURVE",
"229 48 OFFCURVE",
"229 51 CURVE SMOOTH",
"229 54 OFFCURVE",
"228 56 OFFCURVE",
"225 56 CURVE SMOOTH",
"219 56 OFFCURVE",
"212 46 OFFCURVE",
"192 46 CURVE SMOOTH",
"177 46 OFFCURVE",
"162 51 OFFCURVE",
"147 53 CURVE",
"147 54 LINE",
"155 62 OFFCURVE",
"160 75 OFFCURVE",
"162 86 CURVE SMOOTH",
"223 515 LINE",
"235 516 OFFCURVE",
"251 517 OFFCURVE",
"263 518 CURVE SMOOTH",
"287 520 OFFCURVE",
"291 529 OFFCURVE",
"301 546 CURVE SMOOTH",
"304 551 OFFCURVE",
"307 557 OFFCURVE",
"307 562 CURVE SMOOTH",
"307 565 OFFCURVE",
"305 567 OFFCURVE",
"302 567 CURVE SMOOTH",
"295 567 OFFCURVE",
"287 561 OFFCURVE",
"255 560 CURVE SMOOTH",
"231 559 OFFCURVE",
"177 558 OFFCURVE",
"141 557 CURVE SMOOTH",
"115 556 OFFCURVE",
"100 545 OFFCURVE",
"87 526 CURVE SMOOTH",
"83 520 OFFCURVE",
"80 514 OFFCURVE",
"80 509 CURVE SMOOTH",
"80 505 OFFCURVE",
"82 504 OFFCURVE",
"85 504 CURVE SMOOTH",
"92 504 OFFCURVE",
"105 510 OFFCURVE",
"132 512 CURVE SMOOTH",
"147 513 OFFCURVE",
"148 513 OFFCURVE",
"163 513 CURVE",
"109 131 LINE SMOOTH",
"103 89 OFFCURVE",
"100 67 OFFCURVE",
"84 59 CURVE SMOOTH",
"80 57 OFFCURVE",
"81 57 OFFCURVE",
"61 49 CURVE SMOOTH",
"43 42 OFFCURVE",
"30 17 OFFCURVE",
"30 6 CURVE SMOOTH",
"30 2 OFFCURVE",
"31 0 OFFCURVE",
"35 0 CURVE SMOOTH"
);
}
);
width = 309;
}
);
leftKerningGroup = I;
note = I;
rightKerningGroup = I;
unicode = 0049;
},
{
glyphname = J;
layers = (
{
anchors = (
{
name = bottom;
position = "{74, -170}";
},
{
name = top;
position = "{276, 560}";
}
);
background = {
anchors = (
{
name = bottom;
position = "{82, -170}";
},
{
name = top;
position = "{284, 560}";
}
);
paths = (
{
closed = 1;
nodes = (
"199 -170 OFFCURVE",
"287 -62 OFFCURVE",
"312 117 CURVE SMOOTH",
"358 444 LINE SMOOTH",
"363 478 OFFCURVE",
"373 522 OFFCURVE",
"387 560 CURVE",
"370 556 OFFCURVE",
"353 552 OFFCURVE",
"326 552 CURVE SMOOTH",
"287 552 OFFCURVE",
"229 560 OFFCURVE",
"196 560 CURVE SMOOTH",
"129 560 OFFCURVE",
"74 527 OFFCURVE",
"60 473 CURVE SMOOTH",
"59 469 OFFCURVE",
"58 464 OFFCURVE",
"58 459 CURVE SMOOTH",
"58 454 OFFCURVE",
"59 450 OFFCURVE",
"64 450 CURVE SMOOTH",
"70 450 OFFCURVE",
"75 457 OFFCURVE",
"82 463 CURVE SMOOTH",
"109 487 OFFCURVE",
"140 491 OFFCURVE",
"168 491 CURVE SMOOTH",
"216 491 OFFCURVE",
"246 479 OFFCURVE",
"273 479 CURVE SMOOTH",
"278 479 LINE",
"219 70 LINE SMOOTH",
"201 -58 OFFCURVE",
"175 -109 OFFCURVE",
"122 -109 CURVE SMOOTH",
"76 -109 OFFCURVE",
"55 -72 OFFCURVE",
"46 -2 CURVE SMOOTH",
"45 6 OFFCURVE",
"43 9 OFFCURVE",
"38 9 CURVE SMOOTH",
"19 9 OFFCURVE",
"-37 -35 OFFCURVE",
"-36 -66 CURVE SMOOTH",
"-35 -87 OFFCURVE",
"-10 -170 OFFCURVE",
"87 -170 CURVE SMOOTH"
);
}
);
};
layerId = "56450C88-1299-454A-B666-E6F9AF06B23F";
paths = (
{
closed = 1;
nodes = (
"191 -170 OFFCURVE",
"279 -62 OFFCURVE",
"304 117 CURVE SMOOTH",
"350 444 LINE SMOOTH",
"355 478 OFFCURVE",
"365 522 OFFCURVE",
"379 560 CURVE",
"362 556 OFFCURVE",
"345 552 OFFCURVE",
"318 552 CURVE SMOOTH",
"279 552 OFFCURVE",
"221 560 OFFCURVE",
"188 560 CURVE SMOOTH",
"121 560 OFFCURVE",
"66 527 OFFCURVE",
"52 473 CURVE SMOOTH",
"51 469 OFFCURVE",
"50 464 OFFCURVE",
"50 459 CURVE SMOOTH",
"50 454 OFFCURVE",
"51 450 OFFCURVE",
"56 450 CURVE SMOOTH",
"62 450 OFFCURVE",
"67 457 OFFCURVE",
"74 463 CURVE SMOOTH",
"101 487 OFFCURVE",
"132 491 OFFCURVE",
"160 491 CURVE SMOOTH",
"208 491 OFFCURVE",
"238 479 OFFCURVE",
"265 479 CURVE SMOOTH",
"270 479 LINE",
"211 70 LINE SMOOTH",
"193 -58 OFFCURVE",
"167 -109 OFFCURVE",
"114 -109 CURVE SMOOTH",
"68 -109 OFFCURVE",
"47 -72 OFFCURVE",
"38 -2 CURVE SMOOTH",
"37 6 OFFCURVE",
"35 9 OFFCURVE",
"30 9 CURVE SMOOTH",
"11 9 OFFCURVE",
"-45 -35 OFFCURVE",
"-44 -66 CURVE SMOOTH",
"-43 -87 OFFCURVE",
"-18 -170 OFFCURVE",
"79 -170 CURVE SMOOTH"
);
}
);
width = 383;
},
{
anchors = (
{
name = bottom;
position = "{86, -170}";
},
{
name = top;
position = "{259, 560}";
}
);
background = {
anchors = (
{
name = bottom;
position = "{86, -170}";
},
{
name = top;
position = "{259, 560}";
}
);
paths = (
{
closed = 1;
nodes = (
"179 -170 OFFCURVE",
"254 -73 OFFCURVE",
"282 108 CURVE SMOOTH",
"338 470 LINE SMOOTH",
"342 494 OFFCURVE",
"343 516 OFFCURVE",
"358 560 CURVE",
"342 554 OFFCURVE",
"332 552 OFFCURVE",
"308 552 CURVE SMOOTH",
"263 552 OFFCURVE",
"237 560 OFFCURVE",
"195 560 CURVE SMOOTH",
"116 560 OFFCURVE",
"74 534 OFFCURVE",
"62 477 CURVE SMOOTH",
"61 472 OFFCURVE",
"61 471 OFFCURVE",
"61 468 CURVE SMOOTH",
"61 465 OFFCURVE",
"63 462 OFFCURVE",
"67 462 CURVE SMOOTH",
"71 462 OFFCURVE",
"74 465 OFFCURVE",
"82 474 CURVE SMOOTH",
"96 490 OFFCURVE",
"117 512 OFFCURVE",
"174 512 CURVE SMOOTH",
"218 512 OFFCURVE",
"249 499 OFFCURVE",
"279 499 CURVE SMOOTH",
"283 499 LINE",
"214 59 LINE SMOOTH",
"192 -78 OFFCURVE",
"164 -126 OFFCURVE",
"105 -126 CURVE SMOOTH",
"37 -126 OFFCURVE",
"29 -62 OFFCURVE",
"25 -22 CURVE SMOOTH",
"24 -13 OFFCURVE",
"23 -12 OFFCURVE",
"14 -15 CURVE SMOOTH",
"-9 -24 OFFCURVE",
"-37 -47 OFFCURVE",
"-36 -75 CURVE SMOOTH",
"-35 -103 OFFCURVE",
"-5 -170 OFFCURVE",
"78 -170 CURVE SMOOTH"
);
}
);
};
layerId = "0B1DFD06-3317-40CA-B510-4969A0718C16";
paths = (
{
closed = 1;
nodes = (
"179 -170 OFFCURVE",
"254 -73 OFFCURVE",
"282 108 CURVE SMOOTH",
"338 470 LINE SMOOTH",
"342 494 OFFCURVE",
"343 516 OFFCURVE",
"358 560 CURVE",
"342 554 OFFCURVE",
"332 552 OFFCURVE",
"308 552 CURVE SMOOTH",
"263 552 OFFCURVE",
"237 560 OFFCURVE",
"195 560 CURVE SMOOTH",
"116 560 OFFCURVE",
"74 534 OFFCURVE",
"62 477 CURVE SMOOTH",
"61 472 OFFCURVE",
"61 471 OFFCURVE",
"61 468 CURVE SMOOTH",
"61 465 OFFCURVE",
"63 462 OFFCURVE",
"67 462 CURVE SMOOTH",
"71 462 OFFCURVE",
"74 465 OFFCURVE",
"82 474 CURVE SMOOTH",
"96 490 OFFCURVE",
"117 512 OFFCURVE",
"174 512 CURVE SMOOTH",
"218 512 OFFCURVE",
"249 499 OFFCURVE",
"279 499 CURVE SMOOTH",
"283 499 LINE",
"214 59 LINE SMOOTH",
"192 -78 OFFCURVE",
"164 -126 OFFCURVE",
"105 -126 CURVE SMOOTH",
"37 -126 OFFCURVE",
"29 -62 OFFCURVE",
"25 -22 CURVE SMOOTH",
"24 -13 OFFCURVE",
"23 -12 OFFCURVE",
"14 -15 CURVE SMOOTH",
"-9 -24 OFFCURVE",
"-37 -47 OFFCURVE",
"-36 -75 CURVE SMOOTH",
"-35 -103 OFFCURVE",
"-5 -170 OFFCURVE",
"78 -170 CURVE SMOOTH"
);
}
);
width = 370;
}
);
leftKerningGroup = J;
note = J;
rightKerningGroup = J;
unicode = 004A;
},
{
glyphname = K;
layers = (
{
anchors = (
{
name = bottom;
position = "{297, 0}";
},
{
name = top;
position = "{294, 560}";
}
);
background = {
paths = (
{
closed = 1;
nodes = (
"431 -10 OFFCURVE",
"489 78 OFFCURVE",
"489 123 CURVE SMOOTH",
"489 131 OFFCURVE",
"487 135 OFFCURVE",
"482 135 CURVE SMOOTH",
"475 135 OFFCURVE",
"471 130 OFFCURVE",
"464 118 CURVE SMOOTH",
"456 106 OFFCURVE",
"438 76 OFFCURVE",
"416 76 CURVE SMOOTH",
"400 76 OFFCURVE",
"390 92 OFFCURVE",
"373 123 CURVE SMOOTH",
"270 310 LINE",
"424 496 LINE SMOOTH",
"464 544 OFFCURVE",
"503 585 OFFCURVE",
"542 613 CURVE SMOOTH",
"586 645 OFFCURVE",
"611 649 OFFCURVE",
"645 651 CURVE SMOOTH",
"681 653 OFFCURVE",
"708 681 OFFCURVE",
"708 701 CURVE SMOOTH",
"708 706 OFFCURVE",
"706 710 OFFCURVE",
"701 710 CURVE SMOOTH",
"697 710 OFFCURVE",
"694 707 OFFCURVE",
"685 705 CURVE SMOOTH",
"676 702 OFFCURVE",
"668 702 OFFCURVE",
"658 702 CURVE SMOOTH",
"615 700 OFFCURVE",
"570 698 OFFCURVE",
"513 662 CURVE SMOOTH",
"448 623 OFFCURVE",
"394 562 OFFCURVE",
"334 490 CURVE SMOOTH",
"229 363 LINE",
"243 452 LINE SMOOTH",
"251 496 OFFCURVE",
"256 522 OFFCURVE",
"268 560 CURVE",
"252 560 OFFCURVE",
"240 556 OFFCURVE",
"215 556 CURVE SMOOTH",
"112 556 OFFCURVE",
"46 564 OFFCURVE",
"28 475 CURVE SMOOTH",
"27 470 OFFCURVE",
"26 465 OFFCURVE",
"26 458 CURVE SMOOTH",
"26 453 OFFCURVE",
"28 450 OFFCURVE",
"32 450 CURVE SMOOTH",
"38 450 OFFCURVE",
"42 455 OFFCURVE",
"48 463 CURVE SMOOTH",
"66 487 OFFCURVE",
"87 493 OFFCURVE",
"116 493 CURVE SMOOTH",
"142 493 OFFCURVE",
"154 488 OFFCURVE",
"166 488 CURVE",
"110 140 LINE SMOOTH",
"101 86 OFFCURVE",
"95 72 OFFCURVE",
"72 50 CURVE SMOOTH",
"60 38 OFFCURVE",
"47 25 OFFCURVE",
"47 8 CURVE SMOOTH",
"47 0 OFFCURVE",
"49 -2 OFFCURVE",
"52 -2 CURVE SMOOTH",
"60 -2 OFFCURVE",
"76 11 OFFCURVE",
"103 11 CURVE SMOOTH",
"129 11 OFFCURVE",
"149 -2 OFFCURVE",
"172 -2 CURVE SMOOTH",
"190 -2 OFFCURVE",
"206 5 OFFCURVE",
"231 41 CURVE SMOOTH",
"237 49 OFFCURVE",
"240 57 OFFCURVE",
"240 63 CURVE SMOOTH",
"240 68 OFFCURVE",
"238 70 OFFCURVE",
"234 70 CURVE SMOOTH",
"226 70 OFFCURVE",
"218 61 OFFCURVE",
"198 61 CURVE SMOOTH",
"186 61 OFFCURVE",
"174 63 OFFCURVE",
"168 66 CURVE",
"168 67 LINE",
"177 75 OFFCURVE",
"184 89 OFFCURVE",
"186 103 CURVE SMOOTH",
"211 253 LINE",
"285 112 LINE SMOOTH",
"325 37 OFFCURVE",
"353 -10 OFFCURVE",
"386 -10 CURVE SMOOTH"
);
}
);
};
layerId = "56450C88-1299-454A-B666-E6F9AF06B23F";
paths = (
{
closed = 1;
nodes = (
"423 -8 OFFCURVE",
"481 80 OFFCURVE",
"481 125 CURVE SMOOTH",
"481 133 OFFCURVE",
"479 137 OFFCURVE",
"474 137 CURVE SMOOTH",
"467 137 OFFCURVE",
"463 132 OFFCURVE",
"456 120 CURVE SMOOTH",
"449 108 OFFCURVE",
"430 78 OFFCURVE",
"408 78 CURVE SMOOTH",
"392 78 OFFCURVE",
"382 92 OFFCURVE",
"365 123 CURVE SMOOTH",
"262 310 LINE",
"416 496 LINE SMOOTH",
"456 544 OFFCURVE",
"495 585 OFFCURVE",
"534 613 CURVE SMOOTH",
"578 645 OFFCURVE",
"603 649 OFFCURVE",
"637 651 CURVE SMOOTH",
"673 653 OFFCURVE",
"700 681 OFFCURVE",
"700 701 CURVE SMOOTH",
"700 706 OFFCURVE",
"698 710 OFFCURVE",
"693 710 CURVE SMOOTH",
"689 710 OFFCURVE",
"686 707 OFFCURVE",
"677 705 CURVE SMOOTH",
"668 702 OFFCURVE",
"660 702 OFFCURVE",
"650 702 CURVE SMOOTH",
"607 700 OFFCURVE",
"562 698 OFFCURVE",
"505 662 CURVE SMOOTH",
"440 623 OFFCURVE",
"386 562 OFFCURVE",
"326 490 CURVE SMOOTH",
"221 363 LINE",
"235 452 LINE SMOOTH",
"243 496 OFFCURVE",
"248 522 OFFCURVE",
"260 560 CURVE",
"244 560 OFFCURVE",
"232 556 OFFCURVE",
"207 556 CURVE SMOOTH",
"104 556 OFFCURVE",
"38 564 OFFCURVE",
"20 475 CURVE SMOOTH",
"19 470 OFFCURVE",
"18 465 OFFCURVE",
"18 458 CURVE SMOOTH",
"18 453 OFFCURVE",
"20 450 OFFCURVE",
"24 450 CURVE SMOOTH",
"30 450 OFFCURVE",
"34 455 OFFCURVE",
"40 463 CURVE SMOOTH",
"58 487 OFFCURVE",
"79 493 OFFCURVE",
"108 493 CURVE SMOOTH",
"134 493 OFFCURVE",
"146 488 OFFCURVE",
"158 488 CURVE",
"102 140 LINE SMOOTH",
"93 86 OFFCURVE",
"87 72 OFFCURVE",
"64 50 CURVE SMOOTH",
"52 38 OFFCURVE",
"39 25 OFFCURVE",
"39 8 CURVE SMOOTH",
"39 0 OFFCURVE",
"41 -2 OFFCURVE",
"44 -2 CURVE SMOOTH",
"52 -2 OFFCURVE",
"68 11 OFFCURVE",
"95 11 CURVE SMOOTH",
"121 11 OFFCURVE",
"141 -2 OFFCURVE",
"164 -2 CURVE SMOOTH",
"182 -2 OFFCURVE",
"198 5 OFFCURVE",
"223 41 CURVE SMOOTH",
"229 49 OFFCURVE",
"232 57 OFFCURVE",
"232 63 CURVE SMOOTH",
"232 68 OFFCURVE",
"230 70 OFFCURVE",
"226 70 CURVE SMOOTH",
"218 70 OFFCURVE",
"210 61 OFFCURVE",
"190 61 CURVE SMOOTH",
"178 61 OFFCURVE",
"166 63 OFFCURVE",
"160 66 CURVE",
"160 67 LINE",
"169 75 OFFCURVE",
"176 89 OFFCURVE",
"178 103 CURVE SMOOTH",
"203 253 LINE",
"277 112 LINE SMOOTH",
"317 37 OFFCURVE",
"345 -8 OFFCURVE",
"378 -8 CURVE SMOOTH"
);
}
);
width = 514;
},
{
anchors = (
{
name = bottom;
position = "{223, 0}";
},
{
name = top;
position = "{276, 560}";
}
);
background = {
paths = (
{
closed = 1;
nodes = (
"403 -8 OFFCURVE",
"456 72 OFFCURVE",
"456 100 CURVE SMOOTH",
"456 104 OFFCURVE",
"455 109 OFFCURVE",
"450 109 CURVE SMOOTH",
"445 109 OFFCURVE",
"441 103 OFFCURVE",
"435 95 CURVE SMOOTH",
"423 79 OFFCURVE",
"405 60 OFFCURVE",
"390 60 CURVE SMOOTH",
"375 60 OFFCURVE",
"366 76 OFFCURVE",
"347 113 CURVE SMOOTH",
"245 310 LINE",
"347 458 LINE SMOOTH",
"417 560 OFFCURVE",
"462 614 OFFCURVE",
"498 636 CURVE SMOOTH",
"545 665 OFFCURVE",
"576 659 OFFCURVE",
"624 666 CURVE SMOOTH",
"662 672 OFFCURVE",
"674 689 OFFCURVE",
"674 703 CURVE SMOOTH",
"674 707 OFFCURVE",
"672 708 OFFCURVE",
"670 708 CURVE SMOOTH",
"667 708 OFFCURVE",
"666 707 OFFCURVE",
"660 705 CURVE SMOOTH",
"654 703 OFFCURVE",
"651 702 OFFCURVE",
"637 701 CURVE SMOOTH",
"572 696 OFFCURVE",
"523 692 OFFCURVE",
"477 669 CURVE SMOOTH",
"418 640 OFFCURVE",
"375 586 OFFCURVE",
"303 482 CURVE SMOOTH",
"194 324 LINE",
"215 462 LINE SMOOTH",
"220 496 OFFCURVE",
"229 531 OFFCURVE",
"239 560 CURVE",
"222 560 OFFCURVE",
"214 557 OFFCURVE",
"191 557 CURVE SMOOTH",
"167 557 OFFCURVE",
"146 560 OFFCURVE",
"128 560 CURVE SMOOTH",
"77 560 OFFCURVE",
"39 534 OFFCURVE",
"28 489 CURVE SMOOTH",
"27 485 OFFCURVE",
"26 480 OFFCURVE",
"26 475 CURVE SMOOTH",
"26 471 OFFCURVE",
"27 468 OFFCURVE",
"30 468 CURVE SMOOTH",
"34 468 OFFCURVE",
"37 474 OFFCURVE",
"43 482 CURVE SMOOTH",
"58 502 OFFCURVE",
"80 512 OFFCURVE",
"111 512 CURVE SMOOTH",
"130 512 OFFCURVE",
"151 508 OFFCURVE",
"163 508 CURVE",
"104 139 LINE SMOOTH",
"94 78 OFFCURVE",
"108 91 OFFCURVE",
"60 41 CURVE SMOOTH",
"48 29 OFFCURVE",
"43 20 OFFCURVE",
"43 8 CURVE SMOOTH",
"43 3 OFFCURVE",
"44 0 OFFCURVE",
"47 0 CURVE SMOOTH",
"53 0 OFFCURVE",
"67 14 OFFCURVE",
"87 14 CURVE SMOOTH",
"107 14 OFFCURVE",
"131 0 OFFCURVE",
"147 0 CURVE SMOOTH",
"154 0 OFFCURVE",
"167 2 OFFCURVE",
"196 33 CURVE SMOOTH",
"205 42 OFFCURVE",
"207 47 OFFCURVE",
"207 51 CURVE SMOOTH",
"207 54 OFFCURVE",
"205 56 OFFCURVE",
"202 56 CURVE SMOOTH",
"195 56 OFFCURVE",
"186 47 OFFCURVE",
"168 47 CURVE SMOOTH",
"159 47 OFFCURVE",
"152 50 OFFCURVE",
"140 54 CURVE",
"140 55 LINE",
"147 62 OFFCURVE",
"153 74 OFFCURVE",
"155 89 CURVE SMOOTH",
"188 288 LINE",
"280 108 LINE SMOOTH",
"314 42 OFFCURVE",
"340 -8 OFFCURVE",
"368 -8 CURVE SMOOTH"
);
}
);
};
layerId = "0B1DFD06-3317-40CA-B510-4969A0718C16";
paths = (
{
closed = 1;
nodes = (
"403 -8 OFFCURVE",
"456 72 OFFCURVE",
"456 100 CURVE SMOOTH",
"456 104 OFFCURVE",
"455 109 OFFCURVE",
"450 109 CURVE SMOOTH",
"445 109 OFFCURVE",
"441 103 OFFCURVE",
"435 95 CURVE SMOOTH",
"423 79 OFFCURVE",
"405 60 OFFCURVE",
"390 60 CURVE SMOOTH",
"375 60 OFFCURVE",
"366 76 OFFCURVE",
"347 113 CURVE SMOOTH",
"245 310 LINE",
"347 458 LINE SMOOTH",
"417 560 OFFCURVE",
"462 614 OFFCURVE",
"498 636 CURVE SMOOTH",
"545 665 OFFCURVE",
"576 659 OFFCURVE",
"624 666 CURVE SMOOTH",
"662 672 OFFCURVE",
"674 689 OFFCURVE",
"674 703 CURVE SMOOTH",
"674 707 OFFCURVE",
"672 708 OFFCURVE",
"670 708 CURVE SMOOTH",
"667 708 OFFCURVE",
"666 707 OFFCURVE",
"660 705 CURVE SMOOTH",
"654 703 OFFCURVE",
"651 702 OFFCURVE",
"637 701 CURVE SMOOTH",
"572 696 OFFCURVE",
"523 692 OFFCURVE",
"477 669 CURVE SMOOTH",
"418 640 OFFCURVE",
"375 586 OFFCURVE",
"303 482 CURVE SMOOTH",
"194 324 LINE",
"215 462 LINE SMOOTH",
"220 496 OFFCURVE",
"229 531 OFFCURVE",
"239 560 CURVE",
"222 560 OFFCURVE",
"214 557 OFFCURVE",
"191 557 CURVE SMOOTH",
"167 557 OFFCURVE",
"146 560 OFFCURVE",
"128 560 CURVE SMOOTH",
"77 560 OFFCURVE",
"39 534 OFFCURVE",
"28 489 CURVE SMOOTH",
"27 485 OFFCURVE",
"26 480 OFFCURVE",
"26 475 CURVE SMOOTH",
"26 471 OFFCURVE",
"27 468 OFFCURVE",
"30 468 CURVE SMOOTH",
"34 468 OFFCURVE",
"37 474 OFFCURVE",
"43 482 CURVE SMOOTH",
"58 502 OFFCURVE",
"80 512 OFFCURVE",
"111 512 CURVE SMOOTH",
"130 512 OFFCURVE",
"151 508 OFFCURVE",
"163 508 CURVE",
"104 139 LINE SMOOTH",
"93 68 OFFCURVE",
"92 71 OFFCURVE",
"60 41 CURVE SMOOTH",
"48 29 OFFCURVE",
"43 20 OFFCURVE",
"43 8 CURVE SMOOTH",
"43 3 OFFCURVE",
"44 0 OFFCURVE",
"47 0 CURVE SMOOTH",
"53 0 OFFCURVE",
"67 14 OFFCURVE",
"87 14 CURVE SMOOTH",
"107 14 OFFCURVE",
"131 0 OFFCURVE",
"147 0 CURVE SMOOTH",
"154 0 OFFCURVE",
"167 2 OFFCURVE",
"196 33 CURVE SMOOTH",
"205 42 OFFCURVE",
"207 47 OFFCURVE",
"207 51 CURVE SMOOTH",
"207 54 OFFCURVE",
"205 56 OFFCURVE",
"202 56 CURVE SMOOTH",
"195 56 OFFCURVE",
"186 47 OFFCURVE",
"168 47 CURVE SMOOTH",
"159 47 OFFCURVE",
"152 50 OFFCURVE",
"140 54 CURVE",
"140 55 LINE",
"147 62 OFFCURVE",
"153 74 OFFCURVE",
"155 89 CURVE SMOOTH",
"188 288 LINE",
"280 108 LINE SMOOTH",
"314 42 OFFCURVE",
"340 -8 OFFCURVE",
"368 -8 CURVE SMOOTH"
);
}
);
width = 496;
}
);
leftKerningGroup = H;
note = K;
rightKerningGroup = K;
unicode = 004B;
},
{
glyphname = L;
layers = (
{
anchors = (
{
name = bottom;
position = "{158, 0}";
},
{
name = center;
position = "{292, 280}";
},
{
name = top;
position = "{304, 600}";
},
{
name = topright;
position = "{437, 600}";
}
);
background = {
anchors = (
{
name = bottom;
position = "{166, 0}";
},
{
name = center;
position = "{300, 280}";
},
{
name = top;
position = "{312, 600}";
},
{
name = topright;
position = "{445, 600}";
}
);
paths = (
{
closed = 1;
nodes = (
"-9 0 OFFCURVE",
"-6 14 OFFCURVE",
"43 14 CURVE SMOOTH",
"93 14 OFFCURVE",
"167 0 OFFCURVE",
"215 0 CURVE SMOOTH",
"314 0 OFFCURVE",
"385 56 OFFCURVE",
"385 98 CURVE SMOOTH",
"385 106 OFFCURVE",
"383 110 OFFCURVE",
"378 110 CURVE SMOOTH",
"371 110 OFFCURVE",
"364 104 OFFCURVE",
"361 102 CURVE SMOOTH",
"333 82 OFFCURVE",
"308 70 OFFCURVE",
"241 70 CURVE SMOOTH",
"206 70 OFFCURVE",
"159 74 OFFCURVE",
"135 78 CURVE",
"135 79 LINE",
"147 93 OFFCURVE",
"157 113 OFFCURVE",
"163 146 CURVE SMOOTH",
"212 447 LINE SMOOTH",
"222 506 OFFCURVE",
"233 533 OFFCURVE",
"255 549 CURVE SMOOTH",
"265 557 OFFCURVE",
"278 560 OFFCURVE",
"294 560 CURVE SMOOTH",
"322 560 OFFCURVE",
"335 550 OFFCURVE",
"346 550 CURVE SMOOTH",
"366 550 OFFCURVE",
"412 581 OFFCURVE",
"412 594 CURVE SMOOTH",
"412 597 OFFCURVE",
"407 600 OFFCURVE",
"393 605 CURVE SMOOTH",
"372 612 OFFCURVE",
"355 616 OFFCURVE",
"328 616 CURVE SMOOTH",
"275 616 OFFCURVE",
"235 594 OFFCURVE",
"198 560 CURVE SMOOTH",
"155 521 OFFCURVE",
"132 481 OFFCURVE",
"124 433 CURVE SMOOTH",
"80 166 LINE SMOOTH",
"74 126 OFFCURVE",
"66 101 OFFCURVE",
"54 83 CURVE",
"50 83 OFFCURVE",
"42 83 OFFCURVE",
"36 83 CURVE SMOOTH",
"5 83 OFFCURVE",
"-28 46 OFFCURVE",
"-28 10 CURVE SMOOTH",
"-28 2 OFFCURVE",
"-26 0 OFFCURVE",
"-21 0 CURVE SMOOTH"
);
}
);
};
layerId = "56450C88-1299-454A-B666-E6F9AF06B23F";
paths = (
{
closed = 1;
nodes = (
"-17 0 OFFCURVE",
"-14 14 OFFCURVE",
"35 14 CURVE SMOOTH",
"85 14 OFFCURVE",
"159 0 OFFCURVE",
"207 0 CURVE SMOOTH",
"306 0 OFFCURVE",
"377 56 OFFCURVE",
"377 98 CURVE SMOOTH",
"377 106 OFFCURVE",
"375 110 OFFCURVE",
"370 110 CURVE SMOOTH",
"363 110 OFFCURVE",
"356 104 OFFCURVE",
"353 102 CURVE SMOOTH",
"325 82 OFFCURVE",
"300 70 OFFCURVE",
"233 70 CURVE SMOOTH",
"198 70 OFFCURVE",
"151 74 OFFCURVE",
"127 78 CURVE",
"127 79 LINE",
"139 93 OFFCURVE",
"149 113 OFFCURVE",
"155 146 CURVE SMOOTH",
"204 447 LINE SMOOTH",
"214 506 OFFCURVE",
"225 533 OFFCURVE",
"247 549 CURVE SMOOTH",
"257 557 OFFCURVE",
"270 560 OFFCURVE",
"286 560 CURVE SMOOTH",
"314 560 OFFCURVE",
"327 550 OFFCURVE",
"338 550 CURVE SMOOTH",
"358 550 OFFCURVE",
"404 581 OFFCURVE",
"404 594 CURVE SMOOTH",
"404 597 OFFCURVE",
"399 600 OFFCURVE",
"385 605 CURVE SMOOTH",
"364 612 OFFCURVE",
"347 616 OFFCURVE",
"320 616 CURVE SMOOTH",
"267 616 OFFCURVE",
"227 594 OFFCURVE",
"190 560 CURVE SMOOTH",
"147 521 OFFCURVE",
"124 481 OFFCURVE",
"116 433 CURVE SMOOTH",
"72 166 LINE SMOOTH",
"66 126 OFFCURVE",
"58 101 OFFCURVE",
"46 83 CURVE",
"42 83 OFFCURVE",
"34 83 OFFCURVE",
"28 83 CURVE SMOOTH",
"-3 83 OFFCURVE",
"-36 46 OFFCURVE",
"-36 10 CURVE SMOOTH",
"-36 2 OFFCURVE",
"-34 0 OFFCURVE",
"-29 0 CURVE SMOOTH"
);
}
);
width = 408;
},
{
anchors = (
{
name = bottom;
position = "{147, 0}";
},
{
name = center;
position = "{285, 280}";
},
{
name = top;
position = "{326, 600}";
},
{
name = topright;
position = "{412, 600}";
}
);
background = {
anchors = (
{
name = bottom;
position = "{147, 0}";
},
{
name = center;
position = "{285, 280}";
},
{
name = top;
position = "{326, 600}";
},
{
name = topright;
position = "{412, 600}";
}
);
paths = (
{
closed = 1;
nodes = (
"-14 0 OFFCURVE",
"-11 14 OFFCURVE",
"41 14 CURVE SMOOTH",
"93 14 OFFCURVE",
"158 0 OFFCURVE",
"203 0 CURVE SMOOTH",
"293 0 OFFCURVE",
"364 54 OFFCURVE",
"364 83 CURVE SMOOTH",
"364 88 OFFCURVE",
"363 92 OFFCURVE",
"359 92 CURVE SMOOTH",
"357 92 OFFCURVE",
"353 90 OFFCURVE",
"348 87 CURVE SMOOTH",
"315 66 OFFCURVE",
"271 53 OFFCURVE",
"221 53 CURVE SMOOTH",
"194 53 OFFCURVE",
"125 57 OFFCURVE",
"102 62 CURVE",
"102 63 LINE",
"115 75 OFFCURVE",
"126 98 OFFCURVE",
"130 120 CURVE SMOOTH",
"189 457 LINE SMOOTH",
"197 506 OFFCURVE",
"210 540 OFFCURVE",
"233 559 CURVE SMOOTH",
"246 571 OFFCURVE",
"264 578 OFFCURVE",
"286 578 CURVE SMOOTH",
"310 578 OFFCURVE",
"325 570 OFFCURVE",
"334 570 CURVE SMOOTH",
"347 570 OFFCURVE",
"382 585 OFFCURVE",
"382 595 CURVE SMOOTH",
"382 598 OFFCURVE",
"380 601 OFFCURVE",
"372 605 CURVE SMOOTH",
"358 612 OFFCURVE",
"334 616 OFFCURVE",
"313 616 CURVE SMOOTH",
"268 616 OFFCURVE",
"230 598 OFFCURVE",
"193 562 CURVE SMOOTH",
"150 520 OFFCURVE",
"134 482 OFFCURVE",
"127 441 CURVE SMOOTH",
"78 154 LINE SMOOTH",
"69 102 OFFCURVE",
"58 82 OFFCURVE",
"46 66 CURVE",
"40 66 OFFCURVE",
"36 66 OFFCURVE",
"27 66 CURVE SMOOTH",
"2 66 OFFCURVE",
"-29 29 OFFCURVE",
"-29 7 CURVE SMOOTH",
"-29 4 OFFCURVE",
"-28 0 OFFCURVE",
"-24 0 CURVE SMOOTH"
);
}
);
};
layerId = "0B1DFD06-3317-40CA-B510-4969A0718C16";
paths = (
{
closed = 1;
nodes = (
"-13 0 OFFCURVE",
"-10 14 OFFCURVE",
"42 14 CURVE SMOOTH",
"94 14 OFFCURVE",
"159 0 OFFCURVE",
"204 0 CURVE SMOOTH",
"294 0 OFFCURVE",
"365 54 OFFCURVE",
"365 83 CURVE SMOOTH",
"365 88 OFFCURVE",
"364 92 OFFCURVE",
"360 92 CURVE SMOOTH",
"358 92 OFFCURVE",
"354 90 OFFCURVE",
"349 87 CURVE SMOOTH",
"315 67 OFFCURVE",
"272 53 OFFCURVE",
"222 53 CURVE SMOOTH",
"195 53 OFFCURVE",
"126 57 OFFCURVE",
"103 62 CURVE",
"103 63 LINE",
"116 75 OFFCURVE",
"127 98 OFFCURVE",
"131 120 CURVE SMOOTH",
"190 457 LINE SMOOTH",
"199 506 OFFCURVE",
"211 541 OFFCURVE",
"234 559 CURVE SMOOTH",
"248 570 OFFCURVE",
"265 578 OFFCURVE",
"287 578 CURVE SMOOTH",
"311 578 OFFCURVE",
"326 570 OFFCURVE",
"335 570 CURVE SMOOTH",
"348 570 OFFCURVE",
"383 585 OFFCURVE",
"383 595 CURVE SMOOTH",
"383 598 OFFCURVE",
"381 601 OFFCURVE",
"373 605 CURVE SMOOTH",
"359 612 OFFCURVE",
"335 616 OFFCURVE",
"314 616 CURVE SMOOTH",
"269 616 OFFCURVE",
"231 598 OFFCURVE",
"194 562 CURVE SMOOTH",
"151 520 OFFCURVE",
"135 482 OFFCURVE",
"128 441 CURVE SMOOTH",
"79 154 LINE SMOOTH",
"70 102 OFFCURVE",
"59 82 OFFCURVE",
"47 66 CURVE",
"41 66 OFFCURVE",
"37 66 OFFCURVE",
"28 66 CURVE SMOOTH",
"3 66 OFFCURVE",
"-28 29 OFFCURVE",
"-28 7 CURVE SMOOTH",
"-28 4 OFFCURVE",
"-27 0 OFFCURVE",
"-23 0 CURVE SMOOTH"
);
}
);
width = 395;
}
);
leftKerningGroup = L;
note = L;
rightKerningGroup = L;
unicode = 004C;
},
{
glyphname = Lslash;
layers = (
{
background = {
components = (
{
name = L;
transform = "{1, 0, 0, 1, 16, 0}";
}
);
paths = (
{
closed = 1;
nodes = (
"41 182 OFFCURVE",
"46 187 OFFCURVE",
"64 198 CURVE SMOOTH",
"297 326 LINE SMOOTH",
"314 336 OFFCURVE",
"325 362 OFFCURVE",
"325 392 CURVE SMOOTH",
"325 398 OFFCURVE",
"323 402 OFFCURVE",
"319 402 CURVE SMOOTH",
"314 402 OFFCURVE",
"310 397 OFFCURVE",
"291 386 CURVE SMOOTH",
"58 258 LINE SMOOTH",
"42 249 OFFCURVE",
"30 222 OFFCURVE",
"30 192 CURVE SMOOTH",
"30 186 OFFCURVE",
"32 182 OFFCURVE",
"36 182 CURVE SMOOTH"
);
}
);
};
components = (
{
name = L;
}
);
layerId = "56450C88-1299-454A-B666-E6F9AF06B23F";
paths = (
{
closed = 1;
nodes = (
"33 182 OFFCURVE",
"38 187 OFFCURVE",
"56 198 CURVE SMOOTH",
"289 326 LINE SMOOTH",
"306 336 OFFCURVE",
"317 362 OFFCURVE",
"317 392 CURVE SMOOTH",
"317 398 OFFCURVE",
"315 402 OFFCURVE",
"311 402 CURVE SMOOTH",
"306 402 OFFCURVE",
"302 397 OFFCURVE",
"283 386 CURVE SMOOTH",
"50 258 LINE SMOOTH",
"34 249 OFFCURVE",
"22 222 OFFCURVE",
"22 192 CURVE SMOOTH",
"22 186 OFFCURVE",
"24 182 OFFCURVE",
"28 182 CURVE SMOOTH"
);
}
);
width = 408;
},
{
background = {
components = (
{
name = L;
}
);
paths = (
{
closed = 1;
nodes = (
"33 198 OFFCURVE",
"36 204 OFFCURVE",
"58 216 CURVE SMOOTH",
"270 334 LINE SMOOTH",
"286 342 OFFCURVE",
"292 369 OFFCURVE",
"292 379 CURVE SMOOTH",
"292 382 OFFCURVE",
"291 386 OFFCURVE",
"287 386 CURVE SMOOTH",
"282 386 OFFCURVE",
"279 380 OFFCURVE",
"258 368 CURVE SMOOTH",
"45 250 LINE SMOOTH",
"30 242 OFFCURVE",
"23 215 OFFCURVE",
"23 205 CURVE SMOOTH",
"23 202 OFFCURVE",
"24 198 OFFCURVE",
"28 198 CURVE SMOOTH"
);
}
);
};
components = (
{
name = L;
}
);
layerId = "0B1DFD06-3317-40CA-B510-4969A0718C16";
paths = (
{
closed = 1;
nodes = (
"33 198 OFFCURVE",
"36 204 OFFCURVE",
"58 216 CURVE SMOOTH",
"270 334 LINE SMOOTH",
"286 342 OFFCURVE",
"292 369 OFFCURVE",
"292 379 CURVE SMOOTH",
"292 382 OFFCURVE",
"291 386 OFFCURVE",
"287 386 CURVE SMOOTH",
"282 386 OFFCURVE",
"279 380 OFFCURVE",
"258 368 CURVE SMOOTH",
"45 250 LINE SMOOTH",
"30 242 OFFCURVE",
"23 215 OFFCURVE",
"23 205 CURVE SMOOTH",
"23 202 OFFCURVE",
"24 198 OFFCURVE",
"28 198 CURVE SMOOTH"
);
}
);
width = 395;
}
);
leftMetricsKey = L;
note = Lslash;
rightMetricsKey = L;
unicode = 0141;
},
{
glyphname = M;
layers = (
{
anchors = (
{
name = bottom;
position = "{275, 0}";
},
{
name = top;
position = "{372, 560}";
}
);
background = {
anchors = (
{
name = bottom;
position = "{283, 0}";
},
{
name = top;
position = "{380, 560}";
}
);
paths = (
{
closed = 1;
nodes = (
"47 0 OFFCURVE",
"62 13 OFFCURVE",
"90 13 CURVE SMOOTH",
"116 13 OFFCURVE",
"127 0 OFFCURVE",
"150 0 CURVE SMOOTH",
"170 0 OFFCURVE",
"185 8 OFFCURVE",
"210 42 CURVE SMOOTH",
"216 51 OFFCURVE",
"219 57 OFFCURVE",
"219 63 CURVE SMOOTH",
"219 69 OFFCURVE",
"217 71 OFFCURVE",
"213 71 CURVE SMOOTH",
"205 71 OFFCURVE",
"198 62 OFFCURVE",
"179 62 CURVE SMOOTH",
"169 62 OFFCURVE",
"156 65 OFFCURVE",
"150 68 CURVE",
"150 69 LINE",
"158 76 OFFCURVE",
"164 100 OFFCURVE",
"166 107 CURVE SMOOTH",
"215 352 LINE",
"216 351 LINE",
"218 340 OFFCURVE",
"246 215 OFFCURVE",
"248 207 CURVE SMOOTH",
"266 126 OFFCURVE",
"268 102 OFFCURVE",
"274 40 CURVE SMOOTH",
"275 33 OFFCURVE",
"276 30 OFFCURVE",
"279 30 CURVE SMOOTH",
"292 30 OFFCURVE",
"331 80 OFFCURVE",
"353 116 CURVE",
"384 195 OFFCURVE",
"438 300 OFFCURVE",
"482 370 CURVE",
"483 370 LINE",
"466 228 OFFCURVE",
"474 314 OFFCURVE",
"453 89 CURVE SMOOTH",
"451 69 OFFCURVE",
"442 69 OFFCURVE",
"421 52 CURVE SMOOTH",
"402 37 OFFCURVE",
"395 24 OFFCURVE",
"395 10 CURVE SMOOTH",
"395 2 OFFCURVE",
"398 0 OFFCURVE",
"401 0 CURVE SMOOTH",
"409 0 OFFCURVE",
"424 13 OFFCURVE",
"451 13 CURVE SMOOTH",
"478 13 OFFCURVE",
"502 0 OFFCURVE",
"523 0 CURVE SMOOTH",
"538 0 OFFCURVE",
"558 6 OFFCURVE",
"586 42 CURVE SMOOTH",
"594 51 OFFCURVE",
"596 58 OFFCURVE",
"596 63 CURVE SMOOTH",
"596 69 OFFCURVE",
"594 71 OFFCURVE",
"590 71 CURVE SMOOTH",
"582 71 OFFCURVE",
"571 62 OFFCURVE",
"552 62 CURVE SMOOTH",
"542 62 OFFCURVE",
"530 65 OFFCURVE",
"520 70 CURVE",
"520 71 LINE",
"529 79 OFFCURVE",
"537 97 OFFCURVE",
"539 118 CURVE SMOOTH",
"560 299 OFFCURVE",
"562 386 OFFCURVE",
"577 480 CURVE SMOOTH",
"591 578 OFFCURVE",
"610 625 OFFCURVE",
"651 645 CURVE SMOOTH",
"674 656 OFFCURVE",
"696 657 OFFCURVE",
"727 658 CURVE SMOOTH",
"758 658 OFFCURVE",
"790 685 OFFCURVE",
"790 707 CURVE SMOOTH",
"790 713 OFFCURVE",
"788 716 OFFCURVE",
"784 716 CURVE SMOOTH",
"780 716 OFFCURVE",
"777 714 OFFCURVE",
"768 711 CURVE SMOOTH",
"761 709 OFFCURVE",
"749 708 OFFCURVE",
"740 708 CURVE SMOOTH",
"697 708 OFFCURVE",
"660 705 OFFCURVE",
"625 688 CURVE SMOOTH",
"574 663 OFFCURVE",
"545 620 OFFCURVE",
"504 536 CURVE SMOOTH",
"469 464 OFFCURVE",
"480 476 OFFCURVE",
"333 210 CURVE",
"332 217 OFFCURVE",
"329 229 OFFCURVE",
"326 238 CURVE SMOOTH",
"301 345 LINE SMOOTH",
"282 425 OFFCURVE",
"270 480 OFFCURVE",
"270 523 CURVE SMOOTH",
"270 534 OFFCURVE",
"271 549 OFFCURVE",
"272 560 CURVE",
"256 560 OFFCURVE",
"242 556 OFFCURVE",
"215 556 CURVE SMOOTH",
"188 556 OFFCURVE",
"168 560 OFFCURVE",
"146 560 CURVE SMOOTH",
"82 560 OFFCURVE",
"38 525 OFFCURVE",
"27 471 CURVE SMOOTH",
"26 466 OFFCURVE",
"26 462 OFFCURVE",
"26 458 CURVE SMOOTH",
"26 452 OFFCURVE",
"29 450 OFFCURVE",
"33 450 CURVE SMOOTH",
"38 450 OFFCURVE",
"42 455 OFFCURVE",
"48 463 CURVE SMOOTH",
"67 487 OFFCURVE",
"87 493 OFFCURVE",
"116 493 CURVE SMOOTH",
"142 493 OFFCURVE",
"154 488 OFFCURVE",
"167 488 CURVE SMOOTH",
"172 488 LINE",
"98 135 LINE SMOOTH",
"86 78 OFFCURVE",
"81 73 OFFCURVE",
"59 52 CURVE SMOOTH",
"43 37 OFFCURVE",
"34 25 OFFCURVE",
"34 10 CURVE SMOOTH",
"34 2 OFFCURVE",
"36 0 OFFCURVE",
"39 0 CURVE SMOOTH"
);
}
);
};
layerId = "56450C88-1299-454A-B666-E6F9AF06B23F";
paths = (
{
closed = 1;
nodes = (
"39 0 OFFCURVE",
"54 13 OFFCURVE",
"82 13 CURVE SMOOTH",
"108 13 OFFCURVE",
"119 0 OFFCURVE",
"142 0 CURVE SMOOTH",
"162 0 OFFCURVE",
"177 8 OFFCURVE",
"202 42 CURVE SMOOTH",
"208 51 OFFCURVE",
"211 57 OFFCURVE",
"211 63 CURVE SMOOTH",
"211 69 OFFCURVE",
"209 71 OFFCURVE",
"205 71 CURVE SMOOTH",
"197 71 OFFCURVE",
"190 62 OFFCURVE",
"171 62 CURVE SMOOTH",
"161 62 OFFCURVE",
"148 65 OFFCURVE",
"142 68 CURVE",
"142 69 LINE",
"150 76 OFFCURVE",
"156 100 OFFCURVE",
"158 107 CURVE SMOOTH",
"207 352 LINE",
"208 351 LINE",
"210 340 OFFCURVE",
"238 215 OFFCURVE",
"240 207 CURVE SMOOTH",
"258 126 OFFCURVE",
"260 102 OFFCURVE",
"266 40 CURVE SMOOTH",
"267 33 OFFCURVE",
"268 30 OFFCURVE",
"271 30 CURVE SMOOTH",
"284 30 OFFCURVE",
"323 80 OFFCURVE",
"345 116 CURVE",
"376 195 OFFCURVE",
"430 300 OFFCURVE",
"474 370 CURVE",
"475 370 LINE",
"458 228 OFFCURVE",
"466 314 OFFCURVE",
"445 89 CURVE SMOOTH",
"443 69 OFFCURVE",
"434 69 OFFCURVE",
"413 52 CURVE SMOOTH",
"394 37 OFFCURVE",
"387 24 OFFCURVE",
"387 10 CURVE SMOOTH",
"387 2 OFFCURVE",
"390 0 OFFCURVE",
"393 0 CURVE SMOOTH",
"401 0 OFFCURVE",
"416 13 OFFCURVE",
"443 13 CURVE SMOOTH",
"470 13 OFFCURVE",
"494 0 OFFCURVE",
"515 0 CURVE SMOOTH",
"530 0 OFFCURVE",
"550 6 OFFCURVE",
"578 42 CURVE SMOOTH",
"586 51 OFFCURVE",
"588 58 OFFCURVE",
"588 63 CURVE SMOOTH",
"588 69 OFFCURVE",
"586 71 OFFCURVE",
"582 71 CURVE SMOOTH",
"574 71 OFFCURVE",
"563 62 OFFCURVE",
"544 62 CURVE SMOOTH",
"534 62 OFFCURVE",
"522 65 OFFCURVE",
"512 70 CURVE",
"512 71 LINE",
"521 79 OFFCURVE",
"529 97 OFFCURVE",
"531 118 CURVE SMOOTH",
"552 299 OFFCURVE",
"554 386 OFFCURVE",
"569 480 CURVE SMOOTH",
"583 578 OFFCURVE",
"602 625 OFFCURVE",
"643 645 CURVE SMOOTH",
"666 656 OFFCURVE",
"688 657 OFFCURVE",
"719 658 CURVE SMOOTH",
"750 658 OFFCURVE",
"782 685 OFFCURVE",
"782 707 CURVE SMOOTH",
"782 713 OFFCURVE",
"780 716 OFFCURVE",
"776 716 CURVE SMOOTH",
"772 716 OFFCURVE",
"769 714 OFFCURVE",
"760 711 CURVE SMOOTH",
"753 709 OFFCURVE",
"741 708 OFFCURVE",
"732 708 CURVE SMOOTH",
"689 708 OFFCURVE",
"652 705 OFFCURVE",
"617 688 CURVE SMOOTH",
"566 663 OFFCURVE",
"537 620 OFFCURVE",
"496 536 CURVE SMOOTH",
"461 464 OFFCURVE",
"472 476 OFFCURVE",
"325 210 CURVE",
"324 217 OFFCURVE",
"321 229 OFFCURVE",
"318 238 CURVE SMOOTH",
"293 345 LINE SMOOTH",
"274 425 OFFCURVE",
"262 480 OFFCURVE",
"262 523 CURVE SMOOTH",
"262 534 OFFCURVE",
"263 549 OFFCURVE",
"264 560 CURVE",
"248 560 OFFCURVE",
"234 556 OFFCURVE",
"207 556 CURVE SMOOTH",
"180 556 OFFCURVE",
"160 560 OFFCURVE",
"138 560 CURVE SMOOTH",
"74 560 OFFCURVE",
"30 525 OFFCURVE",
"19 471 CURVE SMOOTH",
"18 466 OFFCURVE",
"18 462 OFFCURVE",
"18 458 CURVE SMOOTH",
"18 452 OFFCURVE",
"21 450 OFFCURVE",
"25 450 CURVE SMOOTH",
"30 450 OFFCURVE",
"34 455 OFFCURVE",
"40 463 CURVE SMOOTH",
"59 487 OFFCURVE",
"79 493 OFFCURVE",
"108 493 CURVE SMOOTH",
"134 493 OFFCURVE",
"146 488 OFFCURVE",
"159 488 CURVE SMOOTH",
"164 488 LINE",
"90 135 LINE SMOOTH",
"78 78 OFFCURVE",
"73 73 OFFCURVE",
"51 52 CURVE SMOOTH",
"35 37 OFFCURVE",
"26 25 OFFCURVE",
"26 10 CURVE SMOOTH",
"26 2 OFFCURVE",
"28 0 OFFCURVE",
"31 0 CURVE SMOOTH"
);
}
);
width = 642;
},
{
anchors = (
{
name = bottom;
position = "{266, 0}";
},
{
name = top;
position = "{354, 560}";
}
);
background = {
anchors = (
{
name = bottom;
position = "{266, 0}";
},
{
name = top;
position = "{354, 560}";
}
);
paths = (
{
closed = 1;
nodes = (
"37 0 OFFCURVE",
"50 14 OFFCURVE",
"70 14 CURVE SMOOTH",
"90 14 OFFCURVE",
"107 0 OFFCURVE",
"123 0 CURVE SMOOTH",
"130 0 OFFCURVE",
"143 2 OFFCURVE",
"172 33 CURVE SMOOTH",
"181 42 OFFCURVE",
"182 47 OFFCURVE",
"182 51 CURVE SMOOTH",
"182 54 OFFCURVE",
"181 56 OFFCURVE",
"178 56 CURVE SMOOTH",
"172 56 OFFCURVE",
"164 47 OFFCURVE",
"148 47 CURVE SMOOTH",
"138 47 OFFCURVE",
"128 50 OFFCURVE",
"116 54 CURVE",
"116 55 LINE",
"125 65 OFFCURVE",
"129 77 OFFCURVE",
"131 89 CURVE SMOOTH",
"198 414 LINE",
"199 414 LINE",
"209 360 OFFCURVE",
"223 294 OFFCURVE",
"234 241 CURVE SMOOTH",
"257 130 OFFCURVE",
"260 102 OFFCURVE",
"263 42 CURVE SMOOTH",
"263 35 OFFCURVE",
"266 34 OFFCURVE",
"269 34 CURVE SMOOTH",
"281 34 OFFCURVE",
"308 82 OFFCURVE",
"321 110 CURVE",
"354 198 OFFCURVE",
"427 330 OFFCURVE",
"481 426 CURVE",
"482 426 LINE",
"474 349 OFFCURVE",
"462 242 OFFCURVE",
"445 91 CURVE SMOOTH",
"442 69 OFFCURVE",
"435 63 OFFCURVE",
"406 41 CURVE SMOOTH",
"392 30 OFFCURVE",
"386 16 OFFCURVE",
"386 7 CURVE SMOOTH",
"386 3 OFFCURVE",
"387 0 OFFCURVE",
"391 0 CURVE SMOOTH",
"397 0 OFFCURVE",
"417 14 OFFCURVE",
"439 14 CURVE SMOOTH",
"459 14 OFFCURVE",
"491 0 OFFCURVE",
"507 0 CURVE SMOOTH",
"514 0 OFFCURVE",
"528 1 OFFCURVE",
"556 33 CURVE SMOOTH",
"564 42 OFFCURVE",
"566 47 OFFCURVE",
"566 51 CURVE SMOOTH",
"566 54 OFFCURVE",
"565 56 OFFCURVE",
"562 56 CURVE SMOOTH",
"555 56 OFFCURVE",
"543 47 OFFCURVE",
"524 47 CURVE SMOOTH",
"514 47 OFFCURVE",
"502 50 OFFCURVE",
"490 54 CURVE",
"490 55 LINE",
"497 62 OFFCURVE",
"504 74 OFFCURVE",
"506 89 CURVE SMOOTH",
"532 249 OFFCURVE",
"531 340 OFFCURVE",
"546 442 CURVE SMOOTH",
"563 566 OFFCURVE",
"590 621 OFFCURVE",
"623 647 CURVE SMOOTH",
"650 668 OFFCURVE",
"686 671 OFFCURVE",
"706 674 CURVE SMOOTH",
"730 678 OFFCURVE",
"756 688 OFFCURVE",
"756 710 CURVE SMOOTH",
"756 713 OFFCURVE",
"755 716 OFFCURVE",
"752 716 CURVE SMOOTH",
"750 716 OFFCURVE",
"747 714 OFFCURVE",
"744 713 CURVE SMOOTH",
"736 710 OFFCURVE",
"723 709 OFFCURVE",
"709 708 CURVE SMOOTH",
"665 705 OFFCURVE",
"635 698 OFFCURVE",
"602 677 CURVE SMOOTH",
"565 652 OFFCURVE",
"532 612 OFFCURVE",
"490 532 CURVE SMOOTH",
"466 486 OFFCURVE",
"330 216 OFFCURVE",
"309 174 CURVE",
"306 193 OFFCURVE",
"303 210 OFFCURVE",
"298 233 CURVE SMOOTH",
"273 350 LINE SMOOTH",
"254 434 OFFCURVE",
"242 491 OFFCURVE",
"242 529 CURVE SMOOTH",
"242 538 OFFCURVE",
"243 552 OFFCURVE",
"245 560 CURVE",
"228 560 OFFCURVE",
"218 557 OFFCURVE",
"195 557 CURVE SMOOTH",
"171 557 OFFCURVE",
"150 560 OFFCURVE",
"132 560 CURVE SMOOTH",
"81 560 OFFCURVE",
"43 534 OFFCURVE",
"32 489 CURVE SMOOTH",
"31 485 OFFCURVE",
"30 480 OFFCURVE",
"30 475 CURVE SMOOTH",
"30 471 OFFCURVE",
"31 468 OFFCURVE",
"34 468 CURVE SMOOTH",
"38 468 OFFCURVE",
"41 474 OFFCURVE",
"47 482 CURVE SMOOTH",
"62 502 OFFCURVE",
"84 512 OFFCURVE",
"115 512 CURVE SMOOTH",
"134 512 OFFCURVE",
"156 508 OFFCURVE",
"168 508 CURVE SMOOTH",
"173 508 LINE",
"90 120 LINE SMOOTH",
"80 71 OFFCURVE",
"78 70 OFFCURVE",
"43 41 CURVE SMOOTH",
"32 32 OFFCURVE",
"26 18 OFFCURVE",
"26 7 CURVE SMOOTH",
"26 3 OFFCURVE",
"27 0 OFFCURVE",
"31 0 CURVE SMOOTH"
);
}
);
};
layerId = "0B1DFD06-3317-40CA-B510-4969A0718C16";
paths = (
{
closed = 1;
nodes = (
"37 0 OFFCURVE",
"50 14 OFFCURVE",
"70 14 CURVE SMOOTH",
"90 14 OFFCURVE",
"107 0 OFFCURVE",
"123 0 CURVE SMOOTH",
"130 0 OFFCURVE",
"143 2 OFFCURVE",
"172 33 CURVE SMOOTH",
"181 42 OFFCURVE",
"182 47 OFFCURVE",
"182 51 CURVE SMOOTH",
"182 54 OFFCURVE",
"181 56 OFFCURVE",
"178 56 CURVE SMOOTH",
"172 56 OFFCURVE",
"164 47 OFFCURVE",
"148 47 CURVE SMOOTH",
"138 47 OFFCURVE",
"128 50 OFFCURVE",
"116 54 CURVE",
"116 55 LINE",
"125 65 OFFCURVE",
"129 77 OFFCURVE",
"131 89 CURVE SMOOTH",
"198 414 LINE",
"199 414 LINE",
"209 360 OFFCURVE",
"223 294 OFFCURVE",
"234 241 CURVE SMOOTH",
"257 130 OFFCURVE",
"260 102 OFFCURVE",
"263 42 CURVE SMOOTH",
"263 35 OFFCURVE",
"266 34 OFFCURVE",
"269 34 CURVE SMOOTH",
"281 34 OFFCURVE",
"308 82 OFFCURVE",
"321 110 CURVE",
"354 198 OFFCURVE",
"427 330 OFFCURVE",
"481 426 CURVE",
"482 426 LINE",
"474 349 OFFCURVE",
"462 242 OFFCURVE",
"445 91 CURVE SMOOTH",
"442 69 OFFCURVE",
"435 63 OFFCURVE",
"406 41 CURVE SMOOTH",
"392 30 OFFCURVE",
"386 16 OFFCURVE",
"386 7 CURVE SMOOTH",
"386 3 OFFCURVE",
"387 0 OFFCURVE",
"391 0 CURVE SMOOTH",
"397 0 OFFCURVE",
"417 14 OFFCURVE",
"439 14 CURVE SMOOTH",
"459 14 OFFCURVE",
"491 0 OFFCURVE",
"507 0 CURVE SMOOTH",
"514 0 OFFCURVE",
"528 1 OFFCURVE",
"556 33 CURVE SMOOTH",
"564 42 OFFCURVE",
"566 47 OFFCURVE",
"566 51 CURVE SMOOTH",
"566 54 OFFCURVE",
"565 56 OFFCURVE",
"562 56 CURVE SMOOTH",
"555 56 OFFCURVE",
"543 47 OFFCURVE",
"524 47 CURVE SMOOTH",
"514 47 OFFCURVE",
"502 50 OFFCURVE",
"490 54 CURVE",
"490 55 LINE",
"497 62 OFFCURVE",
"504 74 OFFCURVE",
"506 89 CURVE SMOOTH",
"532 249 OFFCURVE",
"531 340 OFFCURVE",
"546 442 CURVE SMOOTH",
"563 566 OFFCURVE",
"590 621 OFFCURVE",
"623 647 CURVE SMOOTH",
"650 668 OFFCURVE",
"686 671 OFFCURVE",
"706 674 CURVE SMOOTH",
"730 678 OFFCURVE",
"756 688 OFFCURVE",
"756 710 CURVE SMOOTH",
"756 713 OFFCURVE",
"755 716 OFFCURVE",
"752 716 CURVE SMOOTH",
"750 716 OFFCURVE",
"747 714 OFFCURVE",
"744 713 CURVE SMOOTH",
"736 710 OFFCURVE",
"723 709 OFFCURVE",
"709 708 CURVE SMOOTH",
"665 705 OFFCURVE",
"635 698 OFFCURVE",
"602 677 CURVE SMOOTH",
"565 652 OFFCURVE",
"532 612 OFFCURVE",
"490 532 CURVE SMOOTH",
"466 486 OFFCURVE",
"330 216 OFFCURVE",
"309 174 CURVE",
"306 193 OFFCURVE",
"303 210 OFFCURVE",
"298 233 CURVE SMOOTH",
"273 350 LINE SMOOTH",
"254 434 OFFCURVE",
"242 491 OFFCURVE",
"242 529 CURVE SMOOTH",
"242 538 OFFCURVE",
"243 552 OFFCURVE",
"245 560 CURVE",
"228 560 OFFCURVE",
"218 557 OFFCURVE",
"195 557 CURVE SMOOTH",
"171 557 OFFCURVE",
"150 560 OFFCURVE",
"132 560 CURVE SMOOTH",
"81 560 OFFCURVE",
"43 534 OFFCURVE",
"32 489 CURVE SMOOTH",
"31 485 OFFCURVE",
"30 480 OFFCURVE",
"30 475 CURVE SMOOTH",
"30 471 OFFCURVE",
"31 468 OFFCURVE",
"34 468 CURVE SMOOTH",
"38 468 OFFCURVE",
"41 474 OFFCURVE",
"47 482 CURVE SMOOTH",
"62 502 OFFCURVE",
"84 512 OFFCURVE",
"115 512 CURVE SMOOTH",
"134 512 OFFCURVE",
"156 508 OFFCURVE",
"168 508 CURVE SMOOTH",
"173 508 LINE",
"90 120 LINE SMOOTH",
"80 71 OFFCURVE",
"78 70 OFFCURVE",
"43 41 CURVE SMOOTH",
"32 32 OFFCURVE",
"26 18 OFFCURVE",
"26 7 CURVE SMOOTH",
"26 3 OFFCURVE",
"27 0 OFFCURVE",
"31 0 CURVE SMOOTH"
);
}
);
width = 624;
}
);
leftKerningGroup = H;
note = M;
rightKerningGroup = H;
unicode = 004D;
},
{
glyphname = N;
layers = (
{
anchors = (
{
name = bottom;
position = "{250, 0}";
},
{
name = top;
position = "{346, 560}";
}
);
background = {
anchors = (
{
name = bottom;
position = "{258, 0}";
},
{
name = top;
position = "{354, 560}";
}
);
paths = (
{
closed = 1;
nodes = (
"397 -8 OFFCURVE",
"445 50 OFFCURVE",
"453 96 CURVE SMOOTH",
"516 463 LINE SMOOTH",
"530 541 OFFCURVE",
"546 594 OFFCURVE",
"574 625 CURVE SMOOTH",
"599 652 OFFCURVE",
"623 655 OFFCURVE",
"662 658 CURVE SMOOTH",
"694 659 OFFCURVE",
"725 681 OFFCURVE",
"725 707 CURVE SMOOTH",
"725 713 OFFCURVE",
"723 716 OFFCURVE",
"719 716 CURVE SMOOTH",
"715 716 OFFCURVE",
"712 714 OFFCURVE",
"703 711 CURVE SMOOTH",
"696 709 OFFCURVE",
"684 708 OFFCURVE",
"675 708 CURVE SMOOTH",
"623 706 OFFCURVE",
"577 702 OFFCURVE",
"533 665 CURVE SMOOTH",
"489 628 OFFCURVE",
"456 568 OFFCURVE",
"437 450 CURVE SMOOTH",
"398 207 LINE",
"397 207 LINE",
"377 250 OFFCURVE",
"394 212 OFFCURVE",
"374 255 CURVE SMOOTH",
"332 339 LINE SMOOTH",
"292 420 OFFCURVE",
"266 470 OFFCURVE",
"266 523 CURVE SMOOTH",
"266 536 OFFCURVE",
"267 546 OFFCURVE",
"272 560 CURVE",
"256 560 OFFCURVE",
"242 556 OFFCURVE",
"215 556 CURVE SMOOTH",
"188 556 OFFCURVE",
"168 560 OFFCURVE",
"146 560 CURVE SMOOTH",
"85 560 OFFCURVE",
"38 526 OFFCURVE",
"28 475 CURVE SMOOTH",
"27 470 OFFCURVE",
"26 465 OFFCURVE",
"26 458 CURVE SMOOTH",
"26 453 OFFCURVE",
"28 450 OFFCURVE",
"32 450 CURVE SMOOTH",
"38 450 OFFCURVE",
"42 455 OFFCURVE",
"48 463 CURVE SMOOTH",
"66 487 OFFCURVE",
"87 493 OFFCURVE",
"116 493 CURVE SMOOTH",
"142 493 OFFCURVE",
"153 488 OFFCURVE",
"166 488 CURVE SMOOTH",
"171 488 LINE",
"112 142 LINE SMOOTH",
"102 82 OFFCURVE",
"98 74 OFFCURVE",
"74 52 CURVE SMOOTH",
"62 40 OFFCURVE",
"49 26 OFFCURVE",
"49 10 CURVE SMOOTH",
"49 2 OFFCURVE",
"51 0 OFFCURVE",
"54 0 CURVE SMOOTH",
"62 0 OFFCURVE",
"78 13 OFFCURVE",
"105 13 CURVE SMOOTH",
"131 13 OFFCURVE",
"149 0 OFFCURVE",
"172 0 CURVE SMOOTH",
"190 0 OFFCURVE",
"206 7 OFFCURVE",
"230 42 CURVE SMOOTH",
"237 51 OFFCURVE",
"240 58 OFFCURVE",
"240 64 CURVE SMOOTH",
"240 69 OFFCURVE",
"238 71 OFFCURVE",
"234 71 CURVE SMOOTH",
"224 71 OFFCURVE",
"218 62 OFFCURVE",
"198 62 CURVE SMOOTH",
"186 62 OFFCURVE",
"174 65 OFFCURVE",
"168 68 CURVE",
"168 69 LINE",
"177 77 OFFCURVE",
"184 90 OFFCURVE",
"186 105 CURVE SMOOTH",
"230 371 LINE",
"231 371 LINE",
"237 354 OFFCURVE",
"246 330 OFFCURVE",
"257 310 CURVE SMOOTH",
"308 208 LINE SMOOTH",
"317 190 OFFCURVE",
"346 134 OFFCURVE",
"354 119 CURVE SMOOTH",
"362 101 OFFCURVE",
"364 86 OFFCURVE",
"364 73 CURVE SMOOTH",
"364 38 OFFCURVE",
"353 13 OFFCURVE",
"353 1 CURVE SMOOTH",
"353 -5 OFFCURVE",
"355 -8 OFFCURVE",
"363 -8 CURVE SMOOTH"
);
}
);
};
layerId = "56450C88-1299-454A-B666-E6F9AF06B23F";
paths = (
{
closed = 1;
nodes = (
"389 -8 OFFCURVE",
"437 50 OFFCURVE",
"445 96 CURVE SMOOTH",
"508 463 LINE SMOOTH",
"522 541 OFFCURVE",
"538 594 OFFCURVE",
"566 625 CURVE SMOOTH",
"591 652 OFFCURVE",
"615 655 OFFCURVE",
"654 658 CURVE SMOOTH",
"686 659 OFFCURVE",
"717 681 OFFCURVE",
"717 707 CURVE SMOOTH",
"717 713 OFFCURVE",
"715 716 OFFCURVE",
"711 716 CURVE SMOOTH",
"707 716 OFFCURVE",
"704 714 OFFCURVE",
"695 711 CURVE SMOOTH",
"688 709 OFFCURVE",
"676 708 OFFCURVE",
"667 708 CURVE SMOOTH",
"615 706 OFFCURVE",
"569 702 OFFCURVE",
"525 665 CURVE SMOOTH",
"481 628 OFFCURVE",
"448 568 OFFCURVE",
"429 450 CURVE SMOOTH",
"390 207 LINE",
"389 207 LINE",
"369 250 OFFCURVE",
"386 212 OFFCURVE",
"366 255 CURVE SMOOTH",
"324 339 LINE SMOOTH",
"284 420 OFFCURVE",
"258 470 OFFCURVE",
"258 523 CURVE SMOOTH",
"258 536 OFFCURVE",
"259 546 OFFCURVE",
"264 560 CURVE",
"248 560 OFFCURVE",
"234 556 OFFCURVE",
"207 556 CURVE SMOOTH",
"180 556 OFFCURVE",
"160 560 OFFCURVE",
"138 560 CURVE SMOOTH",
"77 560 OFFCURVE",
"30 526 OFFCURVE",
"20 475 CURVE SMOOTH",
"19 470 OFFCURVE",
"18 465 OFFCURVE",
"18 458 CURVE SMOOTH",
"18 453 OFFCURVE",
"20 450 OFFCURVE",
"24 450 CURVE SMOOTH",
"30 450 OFFCURVE",
"34 455 OFFCURVE",
"40 463 CURVE SMOOTH",
"58 487 OFFCURVE",
"79 493 OFFCURVE",
"108 493 CURVE SMOOTH",
"134 493 OFFCURVE",
"145 488 OFFCURVE",
"158 488 CURVE SMOOTH",
"163 488 LINE",
"104 142 LINE SMOOTH",
"94 82 OFFCURVE",
"90 74 OFFCURVE",
"66 52 CURVE SMOOTH",
"54 40 OFFCURVE",
"41 26 OFFCURVE",
"41 10 CURVE SMOOTH",
"41 2 OFFCURVE",
"43 0 OFFCURVE",
"46 0 CURVE SMOOTH",
"54 0 OFFCURVE",
"70 13 OFFCURVE",
"97 13 CURVE SMOOTH",
"123 13 OFFCURVE",
"141 0 OFFCURVE",
"164 0 CURVE SMOOTH",
"182 0 OFFCURVE",
"198 7 OFFCURVE",
"222 42 CURVE SMOOTH",
"229 51 OFFCURVE",
"232 58 OFFCURVE",
"232 64 CURVE SMOOTH",
"232 69 OFFCURVE",
"230 71 OFFCURVE",
"226 71 CURVE SMOOTH",
"216 71 OFFCURVE",
"210 62 OFFCURVE",
"190 62 CURVE SMOOTH",
"178 62 OFFCURVE",
"166 65 OFFCURVE",
"160 68 CURVE",
"160 69 LINE",
"169 77 OFFCURVE",
"176 90 OFFCURVE",
"178 105 CURVE SMOOTH",
"222 371 LINE",
"223 371 LINE",
"229 354 OFFCURVE",
"238 330 OFFCURVE",
"249 310 CURVE SMOOTH",
"300 208 LINE SMOOTH",
"309 190 OFFCURVE",
"338 134 OFFCURVE",
"346 119 CURVE SMOOTH",
"354 101 OFFCURVE",
"356 86 OFFCURVE",
"356 73 CURVE SMOOTH",
"356 38 OFFCURVE",
"345 13 OFFCURVE",
"345 1 CURVE SMOOTH",
"345 -5 OFFCURVE",
"347 -8 OFFCURVE",
"355 -8 CURVE SMOOTH"
);
}
);
width = 557;
},
{
anchors = (
{
name = bottom;
position = "{234, 0}";
},
{
name = top;
position = "{356, 560}";
}
);
background = {
anchors = (
{
name = bottom;
position = "{234, 0}";
},
{
name = top;
position = "{356, 560}";
}
);
paths = (
{
closed = 1;
nodes = (
"378 -8 OFFCURVE",
"419 52 OFFCURVE",
"425 88 CURVE SMOOTH",
"488 474 LINE SMOOTH",
"499 545 OFFCURVE",
"517 606 OFFCURVE",
"554 646 CURVE SMOOTH",
"585 678 OFFCURVE",
"614 678 OFFCURVE",
"646 682 CURVE SMOOTH",
"688 687 OFFCURVE",
"696 712 OFFCURVE",
"696 719 CURVE SMOOTH",
"696 722 OFFCURVE",
"695 724 OFFCURVE",
"692 724 CURVE SMOOTH",
"690 724 OFFCURVE",
"688 723 OFFCURVE",
"682 721 CURVE SMOOTH",
"675 719 OFFCURVE",
"669 718 OFFCURVE",
"659 717 CURVE SMOOTH",
"594 711 OFFCURVE",
"562 699 OFFCURVE",
"528 671 CURVE SMOOTH",
"481 633 OFFCURVE",
"451 568 OFFCURVE",
"435 463 CURVE SMOOTH",
"390 167 LINE",
"389 167 LINE",
"381 187 OFFCURVE",
"370 210 OFFCURVE",
"347 252 CURVE SMOOTH",
"302 337 LINE SMOOTH",
"257 420 OFFCURVE",
"234 479 OFFCURVE",
"234 526 CURVE SMOOTH",
"234 540 OFFCURVE",
"236 552 OFFCURVE",
"238 560 CURVE",
"224 560 OFFCURVE",
"214 557 OFFCURVE",
"190 557 CURVE SMOOTH",
"166 557 OFFCURVE",
"146 560 OFFCURVE",
"128 560 CURVE SMOOTH",
"77 560 OFFCURVE",
"39 534 OFFCURVE",
"28 489 CURVE SMOOTH",
"27 485 OFFCURVE",
"26 480 OFFCURVE",
"26 475 CURVE SMOOTH",
"26 471 OFFCURVE",
"27 468 OFFCURVE",
"30 468 CURVE SMOOTH",
"34 468 OFFCURVE",
"37 474 OFFCURVE",
"43 482 CURVE SMOOTH",
"58 503 OFFCURVE",
"79 512 OFFCURVE",
"110 512 CURVE SMOOTH",
"129 512 OFFCURVE",
"155 508 OFFCURVE",
"169 508 CURVE",
"108 121 LINE SMOOTH",
"100 70 OFFCURVE",
"98 69 OFFCURVE",
"65 41 CURVE SMOOTH",
"54 32 OFFCURVE",
"47 18 OFFCURVE",
"47 7 CURVE SMOOTH",
"47 3 OFFCURVE",
"48 0 OFFCURVE",
"51 0 CURVE SMOOTH",
"58 0 OFFCURVE",
"72 14 OFFCURVE",
"92 14 CURVE SMOOTH",
"112 14 OFFCURVE",
"129 0 OFFCURVE",
"145 0 CURVE SMOOTH",
"151 0 OFFCURVE",
"166 2 OFFCURVE",
"195 33 CURVE SMOOTH",
"204 42 OFFCURVE",
"206 47 OFFCURVE",
"206 51 CURVE SMOOTH",
"206 53 OFFCURVE",
"205 56 OFFCURVE",
"202 56 CURVE SMOOTH",
"195 56 OFFCURVE",
"188 47 OFFCURVE",
"170 47 CURVE SMOOTH",
"161 47 OFFCURVE",
"150 50 OFFCURVE",
"138 54 CURVE",
"138 55 LINE",
"144 62 OFFCURVE",
"149 74 OFFCURVE",
"151 89 CURVE SMOOTH",
"202 410 LINE",
"203 410 LINE",
"221 370 OFFCURVE",
"238 330 OFFCURVE",
"270 271 CURVE SMOOTH",
"302 213 LINE SMOOTH",
"322 178 OFFCURVE",
"342 137 OFFCURVE",
"351 110 CURVE SMOOTH",
"356 96 OFFCURVE",
"358 85 OFFCURVE",
"358 72 CURVE SMOOTH",
"358 42 OFFCURVE",
"348 11 OFFCURVE",
"348 2 CURVE SMOOTH",
"348 -4 OFFCURVE",
"352 -8 OFFCURVE",
"358 -8 CURVE SMOOTH"
);
}
);
};
layerId = "0B1DFD06-3317-40CA-B510-4969A0718C16";
paths = (
{
closed = 1;
nodes = (
"378 -8 OFFCURVE",
"419 52 OFFCURVE",
"425 88 CURVE SMOOTH",
"488 474 LINE SMOOTH",
"499 545 OFFCURVE",
"517 606 OFFCURVE",
"554 646 CURVE SMOOTH",
"585 678 OFFCURVE",
"614 678 OFFCURVE",
"646 682 CURVE SMOOTH",
"688 687 OFFCURVE",
"696 712 OFFCURVE",
"696 719 CURVE SMOOTH",
"696 722 OFFCURVE",
"695 724 OFFCURVE",
"692 724 CURVE SMOOTH",
"690 724 OFFCURVE",
"688 723 OFFCURVE",
"682 721 CURVE SMOOTH",
"675 719 OFFCURVE",
"669 718 OFFCURVE",
"659 717 CURVE SMOOTH",
"594 711 OFFCURVE",
"562 699 OFFCURVE",
"528 671 CURVE SMOOTH",
"481 633 OFFCURVE",
"451 568 OFFCURVE",
"435 463 CURVE SMOOTH",
"390 167 LINE",
"389 167 LINE",
"381 187 OFFCURVE",
"370 210 OFFCURVE",
"347 252 CURVE SMOOTH",
"302 337 LINE SMOOTH",
"257 420 OFFCURVE",
"234 479 OFFCURVE",
"234 526 CURVE SMOOTH",
"234 540 OFFCURVE",
"236 552 OFFCURVE",
"238 560 CURVE",
"224 560 OFFCURVE",
"214 557 OFFCURVE",
"190 557 CURVE SMOOTH",
"166 557 OFFCURVE",
"146 560 OFFCURVE",
"128 560 CURVE SMOOTH",
"77 560 OFFCURVE",
"39 534 OFFCURVE",
"28 489 CURVE SMOOTH",
"27 485 OFFCURVE",
"26 480 OFFCURVE",
"26 475 CURVE SMOOTH",
"26 471 OFFCURVE",
"27 468 OFFCURVE",
"30 468 CURVE SMOOTH",
"34 468 OFFCURVE",
"37 474 OFFCURVE",
"43 482 CURVE SMOOTH",
"58 503 OFFCURVE",
"79 512 OFFCURVE",
"110 512 CURVE SMOOTH",
"129 512 OFFCURVE",
"155 508 OFFCURVE",
"169 508 CURVE",
"108 121 LINE SMOOTH",
"100 70 OFFCURVE",
"98 69 OFFCURVE",
"65 41 CURVE SMOOTH",
"54 32 OFFCURVE",
"47 18 OFFCURVE",
"47 7 CURVE SMOOTH",
"47 3 OFFCURVE",
"48 0 OFFCURVE",
"51 0 CURVE SMOOTH",
"58 0 OFFCURVE",
"72 14 OFFCURVE",
"92 14 CURVE SMOOTH",
"112 14 OFFCURVE",
"129 0 OFFCURVE",
"145 0 CURVE SMOOTH",
"151 0 OFFCURVE",
"166 2 OFFCURVE",
"195 33 CURVE SMOOTH",
"204 42 OFFCURVE",
"206 47 OFFCURVE",
"206 51 CURVE SMOOTH",
"206 53 OFFCURVE",
"205 56 OFFCURVE",
"202 56 CURVE SMOOTH",
"195 56 OFFCURVE",
"188 47 OFFCURVE",
"170 47 CURVE SMOOTH",
"161 47 OFFCURVE",
"150 50 OFFCURVE",
"138 54 CURVE",
"138 55 LINE",
"144 62 OFFCURVE",
"149 74 OFFCURVE",
"151 89 CURVE SMOOTH",
"202 410 LINE",
"203 410 LINE",
"221 370 OFFCURVE",
"238 330 OFFCURVE",
"270 271 CURVE SMOOTH",
"302 213 LINE SMOOTH",
"322 178 OFFCURVE",
"342 137 OFFCURVE",
"351 110 CURVE SMOOTH",
"356 96 OFFCURVE",
"358 85 OFFCURVE",
"358 72 CURVE SMOOTH",
"358 42 OFFCURVE",
"348 11 OFFCURVE",
"348 2 CURVE SMOOTH",
"348 -4 OFFCURVE",
"352 -8 OFFCURVE",
"358 -8 CURVE SMOOTH"
);
}
);
width = 544;
}
);
leftKerningGroup = H;
note = N;
rightKerningGroup = N;
unicode = 004E;
},
{
glyphname = Eng;
layers = (
{
background = {
paths = (
{
closed = 1;
nodes = (
"315 -322 OFFCURVE",
"397 -219 OFFCURVE",
"429 -37 CURVE SMOOTH",
"516 463 LINE SMOOTH",
"530 541 OFFCURVE",
"546 594 OFFCURVE",
"574 625 CURVE SMOOTH",
"599 652 OFFCURVE",
"623 655 OFFCURVE",
"662 658 CURVE SMOOTH",
"694 659 OFFCURVE",
"725 681 OFFCURVE",
"725 707 CURVE SMOOTH",
"725 713 OFFCURVE",
"723 716 OFFCURVE",
"719 716 CURVE SMOOTH",
"715 716 OFFCURVE",
"712 714 OFFCURVE",
"703 711 CURVE SMOOTH",
"696 709 OFFCURVE",
"684 708 OFFCURVE",
"675 708 CURVE SMOOTH",
"623 706 OFFCURVE",
"577 702 OFFCURVE",
"533 665 CURVE SMOOTH",
"489 628 OFFCURVE",
"456 568 OFFCURVE",
"437 450 CURVE SMOOTH",
"398 207 LINE",
"397 207 LINE",
"377 250 OFFCURVE",
"394 212 OFFCURVE",
"374 255 CURVE SMOOTH",
"332 339 LINE SMOOTH",
"292 420 OFFCURVE",
"266 470 OFFCURVE",
"266 523 CURVE SMOOTH",
"266 536 OFFCURVE",
"267 546 OFFCURVE",
"272 560 CURVE",
"256 560 OFFCURVE",
"242 556 OFFCURVE",
"215 556 CURVE SMOOTH",
"188 556 OFFCURVE",
"168 560 OFFCURVE",
"146 560 CURVE SMOOTH",
"85 560 OFFCURVE",
"38 526 OFFCURVE",
"28 475 CURVE SMOOTH",
"27 470 OFFCURVE",
"26 465 OFFCURVE",
"26 458 CURVE SMOOTH",
"26 453 OFFCURVE",
"28 450 OFFCURVE",
"32 450 CURVE SMOOTH",
"38 450 OFFCURVE",
"42 455 OFFCURVE",
"48 463 CURVE SMOOTH",
"66 487 OFFCURVE",
"87 493 OFFCURVE",
"116 493 CURVE SMOOTH",
"142 493 OFFCURVE",
"153 488 OFFCURVE",
"166 488 CURVE SMOOTH",
"171 488 LINE",
"112 142 LINE SMOOTH",
"102 83 OFFCURVE",
"98 75 OFFCURVE",
"74 52 CURVE SMOOTH",
"62 40 OFFCURVE",
"49 26 OFFCURVE",
"49 10 CURVE SMOOTH",
"49 2 OFFCURVE",
"51 0 OFFCURVE",
"54 0 CURVE SMOOTH",
"62 0 OFFCURVE",
"78 13 OFFCURVE",
"105 13 CURVE SMOOTH",
"131 13 OFFCURVE",
"149 0 OFFCURVE",
"172 0 CURVE SMOOTH",
"190 0 OFFCURVE",
"206 7 OFFCURVE",
"230 42 CURVE SMOOTH",
"237 51 OFFCURVE",
"240 58 OFFCURVE",
"240 64 CURVE SMOOTH",
"240 69 OFFCURVE",
"238 71 OFFCURVE",
"234 71 CURVE SMOOTH",
"224 71 OFFCURVE",
"218 62 OFFCURVE",
"198 62 CURVE SMOOTH",
"186 62 OFFCURVE",
"174 65 OFFCURVE",
"168 68 CURVE",
"168 69 LINE",
"177 77 OFFCURVE",
"184 90 OFFCURVE",
"186 105 CURVE SMOOTH",
"230 371 LINE",
"231 371 LINE",
"236 356 OFFCURVE",
"246 330 OFFCURVE",
"257 310 CURVE SMOOTH",
"308 208 LINE SMOOTH",
"310 202 OFFCURVE",
"349 130 OFFCURVE",
"354 119 CURVE SMOOTH",
"360 105 OFFCURVE",
"363 82 OFFCURVE",
"362 58 CURVE SMOOTH",
"360 30 OFFCURVE",
"347 -40 OFFCURVE",
"340 -77 CURVE SMOOTH",
"310 -234 OFFCURVE",
"289 -270 OFFCURVE",
"240 -270 CURVE SMOOTH",
"178 -270 OFFCURVE",
"174 -209 OFFCURVE",
"172 -162 CURVE SMOOTH",
"171 -154 OFFCURVE",
"170 -150 OFFCURVE",
"163 -150 CURVE SMOOTH",
"146 -150 OFFCURVE",
"98 -174 OFFCURVE",
"98 -214 CURVE SMOOTH",
"98 -245 OFFCURVE",
"128 -322 OFFCURVE",
"215 -322 CURVE SMOOTH"
);
}
);
};
layerId = "56450C88-1299-454A-B666-E6F9AF06B23F";
paths = (
{
closed = 1;
nodes = (
"307 -322 OFFCURVE",
"389 -219 OFFCURVE",
"421 -37 CURVE SMOOTH",
"508 463 LINE SMOOTH",
"522 541 OFFCURVE",
"538 594 OFFCURVE",
"566 625 CURVE SMOOTH",
"591 652 OFFCURVE",
"615 655 OFFCURVE",
"654 658 CURVE SMOOTH",
"686 659 OFFCURVE",
"717 681 OFFCURVE",
"717 707 CURVE SMOOTH",
"717 713 OFFCURVE",
"715 716 OFFCURVE",
"711 716 CURVE SMOOTH",
"707 716 OFFCURVE",
"704 714 OFFCURVE",
"695 711 CURVE SMOOTH",
"688 709 OFFCURVE",
"676 708 OFFCURVE",
"667 708 CURVE SMOOTH",
"615 706 OFFCURVE",
"569 702 OFFCURVE",
"525 665 CURVE SMOOTH",
"481 628 OFFCURVE",
"448 568 OFFCURVE",
"429 450 CURVE SMOOTH",
"390 207 LINE",
"389 207 LINE",
"369 250 OFFCURVE",
"386 212 OFFCURVE",
"366 255 CURVE SMOOTH",
"324 339 LINE SMOOTH",
"284 420 OFFCURVE",
"258 470 OFFCURVE",
"258 523 CURVE SMOOTH",
"258 536 OFFCURVE",
"259 546 OFFCURVE",
"264 560 CURVE",
"248 560 OFFCURVE",
"234 556 OFFCURVE",
"207 556 CURVE SMOOTH",
"180 556 OFFCURVE",
"160 560 OFFCURVE",
"138 560 CURVE SMOOTH",
"77 560 OFFCURVE",
"30 526 OFFCURVE",
"20 475 CURVE SMOOTH",
"19 470 OFFCURVE",
"18 465 OFFCURVE",
"18 458 CURVE SMOOTH",
"18 453 OFFCURVE",
"20 450 OFFCURVE",
"24 450 CURVE SMOOTH",
"30 450 OFFCURVE",
"34 455 OFFCURVE",
"40 463 CURVE SMOOTH",
"58 487 OFFCURVE",
"79 493 OFFCURVE",
"108 493 CURVE SMOOTH",
"134 493 OFFCURVE",
"145 488 OFFCURVE",
"158 488 CURVE SMOOTH",
"163 488 LINE",
"104 142 LINE SMOOTH",
"94 83 OFFCURVE",
"90 75 OFFCURVE",
"66 52 CURVE SMOOTH",
"54 40 OFFCURVE",
"41 26 OFFCURVE",
"41 10 CURVE SMOOTH",
"41 2 OFFCURVE",
"43 0 OFFCURVE",
"46 0 CURVE SMOOTH",
"54 0 OFFCURVE",
"70 13 OFFCURVE",
"97 13 CURVE SMOOTH",
"123 13 OFFCURVE",
"141 0 OFFCURVE",
"164 0 CURVE SMOOTH",
"182 0 OFFCURVE",
"198 7 OFFCURVE",
"222 42 CURVE SMOOTH",
"229 51 OFFCURVE",
"232 58 OFFCURVE",
"232 64 CURVE SMOOTH",
"232 69 OFFCURVE",
"230 71 OFFCURVE",
"226 71 CURVE SMOOTH",
"216 71 OFFCURVE",
"210 62 OFFCURVE",
"190 62 CURVE SMOOTH",
"178 62 OFFCURVE",
"166 65 OFFCURVE",
"160 68 CURVE",
"160 69 LINE",
"169 77 OFFCURVE",
"176 90 OFFCURVE",
"178 105 CURVE SMOOTH",
"222 371 LINE",
"223 371 LINE",
"228 356 OFFCURVE",
"238 330 OFFCURVE",
"249 310 CURVE SMOOTH",
"300 208 LINE SMOOTH",
"302 202 OFFCURVE",
"341 130 OFFCURVE",
"346 119 CURVE SMOOTH",
"352 105 OFFCURVE",
"355 82 OFFCURVE",
"354 58 CURVE SMOOTH",
"352 30 OFFCURVE",
"339 -40 OFFCURVE",
"332 -77 CURVE SMOOTH",
"302 -234 OFFCURVE",
"281 -270 OFFCURVE",
"232 -270 CURVE SMOOTH",
"170 -270 OFFCURVE",
"166 -209 OFFCURVE",
"164 -162 CURVE SMOOTH",
"163 -154 OFFCURVE",
"162 -150 OFFCURVE",
"155 -150 CURVE SMOOTH",
"138 -150 OFFCURVE",
"90 -174 OFFCURVE",
"90 -214 CURVE SMOOTH",
"90 -245 OFFCURVE",
"120 -322 OFFCURVE",
"207 -322 CURVE SMOOTH"
);
}
);
width = 557;
},
{
background = {
paths = (
{
closed = 1;
nodes = (
"302 -322 OFFCURVE",
"366 -226 OFFCURVE",
"398 -44 CURVE SMOOTH",
"488 474 LINE SMOOTH",
"500 542 OFFCURVE",
"516 605 OFFCURVE",
"554 646 CURVE SMOOTH",
"585 678 OFFCURVE",
"614 680 OFFCURVE",
"646 682 CURVE SMOOTH",
"671 684 OFFCURVE",
"696 702 OFFCURVE",
"696 718 CURVE SMOOTH",
"696 722 OFFCURVE",
"694 724 OFFCURVE",
"691 724 CURVE SMOOTH",
"690 724 OFFCURVE",
"687 723 OFFCURVE",
"684 722 CURVE SMOOTH",
"678 719 OFFCURVE",
"672 718 OFFCURVE",
"659 717 CURVE SMOOTH",
"618 714 OFFCURVE",
"574 711 OFFCURVE",
"529 671 CURVE SMOOTH",
"474 622 OFFCURVE",
"447 545 OFFCURVE",
"433 450 CURVE SMOOTH",
"390 167 LINE",
"389 167 LINE",
"381 187 OFFCURVE",
"370 210 OFFCURVE",
"347 252 CURVE SMOOTH",
"302 337 LINE SMOOTH",
"257 420 OFFCURVE",
"234 479 OFFCURVE",
"234 526 CURVE SMOOTH",
"234 540 OFFCURVE",
"236 552 OFFCURVE",
"238 560 CURVE",
"222 560 OFFCURVE",
"214 557 OFFCURVE",
"190 557 CURVE SMOOTH",
"166 557 OFFCURVE",
"145 560 OFFCURVE",
"127 560 CURVE SMOOTH",
"74 560 OFFCURVE",
"37 532 OFFCURVE",
"26 485 CURVE SMOOTH",
"26 482 OFFCURVE",
"26 478 OFFCURVE",
"26 475 CURVE SMOOTH",
"26 472 OFFCURVE",
"27 468 OFFCURVE",
"31 468 CURVE SMOOTH",
"35 468 OFFCURVE",
"37 474 OFFCURVE",
"42 482 CURVE SMOOTH",
"51 495 OFFCURVE",
"71 512 OFFCURVE",
"110 512 CURVE SMOOTH",
"129 512 OFFCURVE",
"151 508 OFFCURVE",
"163 508 CURVE SMOOTH",
"169 508 LINE",
"108 121 LINE SMOOTH",
"100 70 OFFCURVE",
"98 69 OFFCURVE",
"65 41 CURVE SMOOTH",
"54 32 OFFCURVE",
"47 18 OFFCURVE",
"47 7 CURVE SMOOTH",
"47 3 OFFCURVE",
"48 0 OFFCURVE",
"51 0 CURVE SMOOTH",
"58 0 OFFCURVE",
"72 14 OFFCURVE",
"92 14 CURVE SMOOTH",
"112 14 OFFCURVE",
"129 0 OFFCURVE",
"145 0 CURVE SMOOTH",
"151 0 OFFCURVE",
"166 2 OFFCURVE",
"195 33 CURVE SMOOTH",
"204 42 OFFCURVE",
"206 46 OFFCURVE",
"206 50 CURVE SMOOTH",
"206 54 OFFCURVE",
"203 56 OFFCURVE",
"200 56 CURVE SMOOTH",
"193 56 OFFCURVE",
"190 47 OFFCURVE",
"170 47 CURVE SMOOTH",
"161 47 OFFCURVE",
"150 50 OFFCURVE",
"138 54 CURVE",
"138 55 LINE",
"144 62 OFFCURVE",
"149 74 OFFCURVE",
"151 89 CURVE SMOOTH",
"202 410 LINE",
"203 410 LINE",
"221 370 OFFCURVE",
"238 330 OFFCURVE",
"270 271 CURVE SMOOTH",
"302 213 LINE SMOOTH",
"322 178 OFFCURVE",
"342 137 OFFCURVE",
"351 110 CURVE SMOOTH",
"356 96 OFFCURVE",
"358 84 OFFCURVE",
"358 74 CURVE SMOOTH",
"358 45 OFFCURVE",
"346 -38 OFFCURVE",
"334 -92 CURVE SMOOTH",
"301 -234 OFFCURVE",
"287 -286 OFFCURVE",
"226 -286 CURVE SMOOTH",
"169 -286 OFFCURVE",
"149 -239 OFFCURVE",
"146 -174 CURVE SMOOTH",
"146 -167 OFFCURVE",
"145 -164 OFFCURVE",
"135 -167 CURVE SMOOTH",
"115 -174 OFFCURVE",
"92 -196 OFFCURVE",
"93 -227 CURVE SMOOTH",
"94 -264 OFFCURVE",
"129 -322 OFFCURVE",
"204 -322 CURVE SMOOTH"
);
}
);
};
layerId = "0B1DFD06-3317-40CA-B510-4969A0718C16";
paths = (
{
closed = 1;
nodes = (
"302 -322 OFFCURVE",
"366 -226 OFFCURVE",
"398 -44 CURVE SMOOTH",
"488 474 LINE SMOOTH",
"500 542 OFFCURVE",
"516 605 OFFCURVE",
"554 646 CURVE SMOOTH",
"585 678 OFFCURVE",
"614 680 OFFCURVE",
"646 682 CURVE SMOOTH",
"671 684 OFFCURVE",
"696 702 OFFCURVE",
"696 718 CURVE SMOOTH",
"696 722 OFFCURVE",
"694 724 OFFCURVE",
"691 724 CURVE SMOOTH",
"690 724 OFFCURVE",
"687 723 OFFCURVE",
"684 722 CURVE SMOOTH",
"678 719 OFFCURVE",
"672 718 OFFCURVE",
"659 717 CURVE SMOOTH",
"618 714 OFFCURVE",
"574 711 OFFCURVE",
"529 671 CURVE SMOOTH",
"474 622 OFFCURVE",
"447 545 OFFCURVE",
"433 450 CURVE SMOOTH",
"390 167 LINE",
"389 167 LINE",
"381 187 OFFCURVE",
"370 210 OFFCURVE",
"347 252 CURVE SMOOTH",
"302 337 LINE SMOOTH",
"257 420 OFFCURVE",
"234 479 OFFCURVE",
"234 526 CURVE SMOOTH",
"234 540 OFFCURVE",
"236 552 OFFCURVE",
"238 560 CURVE",
"222 560 OFFCURVE",
"214 557 OFFCURVE",
"190 557 CURVE SMOOTH",
"166 557 OFFCURVE",
"145 560 OFFCURVE",
"127 560 CURVE SMOOTH",
"74 560 OFFCURVE",
"37 532 OFFCURVE",
"26 485 CURVE SMOOTH",
"26 482 OFFCURVE",
"26 478 OFFCURVE",
"26 475 CURVE SMOOTH",
"26 472 OFFCURVE",
"27 468 OFFCURVE",
"31 468 CURVE SMOOTH",
"35 468 OFFCURVE",
"37 474 OFFCURVE",
"42 482 CURVE SMOOTH",
"51 495 OFFCURVE",
"71 512 OFFCURVE",
"110 512 CURVE SMOOTH",
"129 512 OFFCURVE",
"151 508 OFFCURVE",
"163 508 CURVE SMOOTH",
"169 508 LINE",
"108 121 LINE SMOOTH",
"100 70 OFFCURVE",
"98 69 OFFCURVE",
"65 41 CURVE SMOOTH",
"54 32 OFFCURVE",
"47 18 OFFCURVE",
"47 7 CURVE SMOOTH",
"47 3 OFFCURVE",
"48 0 OFFCURVE",
"51 0 CURVE SMOOTH",
"58 0 OFFCURVE",
"72 14 OFFCURVE",
"92 14 CURVE SMOOTH",
"112 14 OFFCURVE",
"129 0 OFFCURVE",
"145 0 CURVE SMOOTH",
"151 0 OFFCURVE",
"166 2 OFFCURVE",
"195 33 CURVE SMOOTH",
"204 42 OFFCURVE",
"206 46 OFFCURVE",
"206 50 CURVE SMOOTH",
"206 54 OFFCURVE",
"203 56 OFFCURVE",
"200 56 CURVE SMOOTH",
"193 56 OFFCURVE",
"190 47 OFFCURVE",
"170 47 CURVE SMOOTH",
"161 47 OFFCURVE",
"150 50 OFFCURVE",
"138 54 CURVE",
"138 55 LINE",
"144 62 OFFCURVE",
"149 74 OFFCURVE",
"151 89 CURVE SMOOTH",
"202 410 LINE",
"203 410 LINE",
"221 370 OFFCURVE",
"238 330 OFFCURVE",
"270 271 CURVE SMOOTH",
"302 213 LINE SMOOTH",
"322 178 OFFCURVE",
"342 137 OFFCURVE",
"351 110 CURVE SMOOTH",
"356 96 OFFCURVE",
"358 84 OFFCURVE",
"358 74 CURVE SMOOTH",
"358 45 OFFCURVE",
"346 -38 OFFCURVE",
"334 -92 CURVE SMOOTH",
"301 -234 OFFCURVE",
"287 -286 OFFCURVE",
"226 -286 CURVE SMOOTH",
"169 -286 OFFCURVE",
"149 -239 OFFCURVE",
"146 -174 CURVE SMOOTH",
"146 -167 OFFCURVE",
"145 -164 OFFCURVE",
"135 -167 CURVE SMOOTH",
"115 -174 OFFCURVE",
"92 -196 OFFCURVE",
"93 -227 CURVE SMOOTH",
"94 -264 OFFCURVE",
"129 -322 OFFCURVE",
"204 -322 CURVE SMOOTH"
);
}
);
width = 544;
}
);
leftKerningGroup = H;
note = Eng;
rightKerningGroup = N;
unicode = 014A;
},
{
glyphname = O;
layers = (
{
anchors = (
{
name = bottom;
position = "{195, 0}";
},
{
name = center;
position = "{260, 280}";
},
{
name = ogonek;
position = "{260, 7}";
},
{
name = top;
position = "{335, 560}";
},
{
name = topright;
position = "{454, 478}";
}
);
background = {
anchors = (
{
name = bottom;
position = "{203, 0}";
},
{
name = center;
position = "{268, 280}";
},
{
name = ogonek;
position = "{268, 7}";
},
{
name = top;
position = "{343, 560}";
},
{
name = topright;
position = "{462, 478}";
}
);
paths = (
{
closed = 1;
nodes = (
"346 -8 OFFCURVE",
"486 164 OFFCURVE",
"486 364 CURVE SMOOTH",
"486 486 OFFCURVE",
"434 568 OFFCURVE",
"332 568 CURVE SMOOTH",
"165 568 OFFCURVE",
"50 348 OFFCURVE",
"50 184 CURVE SMOOTH",
"50 78 OFFCURVE",
"98 -8 OFFCURVE",
"201 -8 CURVE SMOOTH"
);
},
{
closed = 1;
nodes = (
"176 54 OFFCURVE",
"146 108 OFFCURVE",
"146 213 CURVE SMOOTH",
"146 370 OFFCURVE",
"214 506 OFFCURVE",
"302 506 CURVE SMOOTH",
"362 506 OFFCURVE",
"390 442 OFFCURVE",
"390 341 CURVE SMOOTH",
"390 205 OFFCURVE",
"338 54 OFFCURVE",
"237 54 CURVE SMOOTH"
);
}
);
};
layerId = "56450C88-1299-454A-B666-E6F9AF06B23F";
paths = (
{
closed = 1;
nodes = (
"338 -8 OFFCURVE",
"478 164 OFFCURVE",
"478 364 CURVE SMOOTH",
"478 486 OFFCURVE",
"426 568 OFFCURVE",
"324 568 CURVE SMOOTH",
"157 568 OFFCURVE",
"42 348 OFFCURVE",
"42 184 CURVE SMOOTH",
"42 78 OFFCURVE",
"90 -8 OFFCURVE",
"193 -8 CURVE SMOOTH"
);
},
{
closed = 1;
nodes = (
"168 54 OFFCURVE",
"138 108 OFFCURVE",
"138 213 CURVE SMOOTH",
"138 370 OFFCURVE",
"206 506 OFFCURVE",
"294 506 CURVE SMOOTH",
"354 506 OFFCURVE",
"382 442 OFFCURVE",
"382 341 CURVE SMOOTH",
"382 205 OFFCURVE",
"330 54 OFFCURVE",
"229 54 CURVE SMOOTH"
);
}
);
width = 498;
},
{
anchors = (
{
name = bottom;
position = "{189, 0}";
},
{
name = center;
position = "{245, 280}";
},
{
name = ogonek;
position = "{253, 10}";
},
{
name = top;
position = "{338, 560}";
},
{
name = topright;
position = "{434, 486}";
}
);
background = {
anchors = (
{
name = bottom;
position = "{189, 0}";
},
{
name = center;
position = "{245, 280}";
},
{
name = ogonek;
position = "{253, 10}";
},
{
name = top;
position = "{338, 560}";
},
{
name = topright;
position = "{434, 486}";
}
);
paths = (
{
closed = 1;
nodes = (
"331 -8 OFFCURVE",
"461 168 OFFCURVE",
"461 368 CURVE SMOOTH",
"461 467 OFFCURVE",
"429 568 OFFCURVE",
"322 568 CURVE SMOOTH",
"162 568 OFFCURVE",
"50 346 OFFCURVE",
"50 186 CURVE SMOOTH",
"50 126 OFFCURVE",
"66 -8 OFFCURVE",
"190 -8 CURVE SMOOTH"
);
},
{
closed = 1;
nodes = (
"157 37 OFFCURVE",
"118 100 OFFCURVE",
"118 217 CURVE SMOOTH",
"118 396 OFFCURVE",
"209 523 OFFCURVE",
"294 523 CURVE SMOOTH",
"362 523 OFFCURVE",
"392 441 OFFCURVE",
"392 342 CURVE SMOOTH",
"392 200 OFFCURVE",
"330 37 OFFCURVE",
"223 37 CURVE SMOOTH"
);
}
);
};
layerId = "0B1DFD06-3317-40CA-B510-4969A0718C16";
paths = (
{
closed = 1;
nodes = (
"331 -8 OFFCURVE",
"461 168 OFFCURVE",
"461 368 CURVE SMOOTH",
"461 467 OFFCURVE",
"429 568 OFFCURVE",
"322 568 CURVE SMOOTH",
"162 568 OFFCURVE",
"50 346 OFFCURVE",
"50 186 CURVE SMOOTH",
"50 126 OFFCURVE",
"66 -8 OFFCURVE",
"190 -8 CURVE SMOOTH"
);
},
{
closed = 1;
nodes = (
"157 37 OFFCURVE",
"118 100 OFFCURVE",
"118 217 CURVE SMOOTH",
"118 396 OFFCURVE",
"209 523 OFFCURVE",
"294 523 CURVE SMOOTH",
"362 523 OFFCURVE",
"392 441 OFFCURVE",
"392 342 CURVE SMOOTH",
"392 200 OFFCURVE",
"330 37 OFFCURVE",
"223 37 CURVE SMOOTH"
);
}
);
width = 489;
}
);
leftKerningGroup = O;
note = O;
rightKerningGroup = O;
unicode = 004F;
},
{
glyphname = Oslash;
layers = (
{
anchors = (
{
name = bottom;
position = "{213, 0}";
},
{
name = ogonek;
position = "{257, 8}";
},
{
name = top;
position = "{334, 560}";
}
);
background = {
anchors = (
{
name = bottom;
position = "{221, 0}";
},
{
name = center;
position = "{267, 280}";
},
{
name = ogonek;
position = "{265, 8}";
},
{
name = top;
position = "{342, 560}";
}
);
paths = (
{
closed = 1;
nodes = (
"67 -64 OFFCURVE",
"98 -55 OFFCURVE",
"105 -44 CURVE SMOOTH",
"137 6 LINE",
"153 -3 OFFCURVE",
"173 -8 OFFCURVE",
"194 -8 CURVE SMOOTH",
"350 -8 OFFCURVE",
"487 164 OFFCURVE",
"487 363 CURVE SMOOTH",
"487 419 OFFCURVE",
"475 467 OFFCURVE",
"453 502 CURVE",
"521 609 LINE SMOOTH",
"527 618 OFFCURVE",
"522 624 OFFCURVE",
"508 624 CURVE SMOOTH",
"485 624 OFFCURVE",
"453 614 OFFCURVE",
"446 603 CURVE SMOOTH",
"411 548 LINE",
"392 561 OFFCURVE",
"369 568 OFFCURVE",
"344 568 CURVE SMOOTH",
"160 568 OFFCURVE",
"50 348 OFFCURVE",
"50 186 CURVE SMOOTH",
"50 128 OFFCURVE",
"65 79 OFFCURVE",
"90 45 CURVE",
"30 -49 LINE SMOOTH",
"25 -58 OFFCURVE",
"29 -64 OFFCURVE",
"44 -64 CURVE SMOOTH"
);
},
{
closed = 1;
nodes = (
"214 54 OFFCURVE",
"196 62 OFFCURVE",
"181 78 CURVE",
"386 399 LINE",
"389 379 OFFCURVE",
"391 352 OFFCURVE",
"391 326 CURVE SMOOTH",
"391 218 OFFCURVE",
"341 54 OFFCURVE",
"236 54 CURVE SMOOTH"
);
},
{
closed = 1;
nodes = (
"149 160 OFFCURVE",
"146 187 OFFCURVE",
"146 214 CURVE SMOOTH",
"146 370 OFFCURVE",
"213 506 OFFCURVE",
"307 506 CURVE SMOOTH",
"330 506 OFFCURVE",
"350 494 OFFCURVE",
"364 471 CURVE",
"153 140 LINE"
);
}
);
};
layerId = "56450C88-1299-454A-B666-E6F9AF06B23F";
paths = (
{
closed = 1;
nodes = (
"59 -64 OFFCURVE",
"90 -55 OFFCURVE",
"97 -44 CURVE SMOOTH",
"129 6 LINE",
"145 -3 OFFCURVE",
"165 -8 OFFCURVE",
"186 -8 CURVE SMOOTH",
"342 -8 OFFCURVE",
"479 164 OFFCURVE",
"479 363 CURVE SMOOTH",
"479 419 OFFCURVE",
"467 467 OFFCURVE",
"445 502 CURVE",
"513 609 LINE SMOOTH",
"519 618 OFFCURVE",
"514 624 OFFCURVE",
"500 624 CURVE SMOOTH",
"477 624 OFFCURVE",
"445 614 OFFCURVE",
"438 603 CURVE SMOOTH",
"403 548 LINE",
"384 561 OFFCURVE",
"361 568 OFFCURVE",
"336 568 CURVE SMOOTH",
"152 568 OFFCURVE",
"42 348 OFFCURVE",
"42 186 CURVE SMOOTH",
"42 128 OFFCURVE",
"57 79 OFFCURVE",
"82 45 CURVE",
"22 -49 LINE SMOOTH",
"17 -58 OFFCURVE",
"21 -64 OFFCURVE",
"36 -64 CURVE SMOOTH"
);
},
{
closed = 1;
nodes = (
"206 54 OFFCURVE",
"188 62 OFFCURVE",
"173 78 CURVE",
"378 399 LINE",
"381 379 OFFCURVE",
"383 352 OFFCURVE",
"383 326 CURVE SMOOTH",
"383 218 OFFCURVE",
"333 54 OFFCURVE",
"228 54 CURVE SMOOTH"
);
},
{
closed = 1;
nodes = (
"141 160 OFFCURVE",
"138 187 OFFCURVE",
"138 214 CURVE SMOOTH",
"138 370 OFFCURVE",
"205 506 OFFCURVE",
"299 506 CURVE SMOOTH",
"322 506 OFFCURVE",
"342 494 OFFCURVE",
"356 471 CURVE",
"145 140 LINE"
);
}
);
width = 501;
},
{
anchors = (
{
name = bottom;
position = "{189, 0}";
},
{
name = ogonek;
position = "{253, 10}";
},
{
name = top;
position = "{338, 560}";
}
);
background = {
anchors = (
{
name = bottom;
position = "{189, 0}";
},
{
name = center;
position = "{245, 280}";
},
{
name = ogonek;
position = "{253, 10}";
},
{
name = top;
position = "{338, 560}";
}
);
paths = (
{
closed = 1;
nodes = (
"57 -53 OFFCURVE",
"76 -46 OFFCURVE",
"82 -37 CURVE SMOOTH",
"114 14 LINE",
"134 -1 OFFCURVE",
"153 -8 OFFCURVE",
"183 -8 CURVE SMOOTH",
"332 -8 OFFCURVE",
"461 167 OFFCURVE",
"461 363 CURVE SMOOTH",
"461 417 OFFCURVE",
"451 469 OFFCURVE",
"430 507 CURVE",
"494 609 LINE SMOOTH",
"498 614 OFFCURVE",
"494 617 OFFCURVE",
"483 617 CURVE SMOOTH",
"467 617 OFFCURVE",
"448 610 OFFCURVE",
"442 601 CURVE SMOOTH",
"403 541 LINE",
"383 558 OFFCURVE",
"362 568 OFFCURVE",
"327 568 CURVE SMOOTH",
"160 568 OFFCURVE",
"50 346 OFFCURVE",
"50 189 CURVE SMOOTH",
"50 149 OFFCURVE",
"57 88 OFFCURVE",
"86 44 CURVE",
"30 -45 LINE SMOOTH",
"26 -50 OFFCURVE",
"30 -53 OFFCURVE",
"41 -53 CURVE SMOOTH"
);
},
{
closed = 1;
nodes = (
"194 37 OFFCURVE",
"170 50 OFFCURVE",
"153 74 CURVE",
"382 432 LINE",
"389 403 OFFCURVE",
"392 363 OFFCURVE",
"392 334 CURVE SMOOTH",
"392 213 OFFCURVE",
"334 37 OFFCURVE",
"223 37 CURVE SMOOTH"
);
},
{
closed = 1;
nodes = (
"123 142 OFFCURVE",
"118 174 OFFCURVE",
"118 216 CURVE SMOOTH",
"118 398 OFFCURVE",
"209 523 OFFCURVE",
"294 523 CURVE SMOOTH",
"326 523 OFFCURVE",
"350 506 OFFCURVE",
"364 479 CURVE",
"132 115 LINE"
);
}
);
};
layerId = "0B1DFD06-3317-40CA-B510-4969A0718C16";
paths = (
{
closed = 1;
nodes = (
"57 -53 OFFCURVE",
"76 -46 OFFCURVE",
"82 -37 CURVE SMOOTH",
"114 14 LINE",
"134 -1 OFFCURVE",
"153 -8 OFFCURVE",
"183 -8 CURVE SMOOTH",
"332 -8 OFFCURVE",
"461 167 OFFCURVE",
"461 363 CURVE SMOOTH",
"461 417 OFFCURVE",
"451 469 OFFCURVE",
"430 507 CURVE",
"494 609 LINE SMOOTH",
"498 614 OFFCURVE",
"494 617 OFFCURVE",
"483 617 CURVE SMOOTH",
"467 617 OFFCURVE",
"448 610 OFFCURVE",
"442 601 CURVE SMOOTH",
"403 541 LINE",
"383 558 OFFCURVE",
"362 568 OFFCURVE",
"327 568 CURVE SMOOTH",
"160 568 OFFCURVE",
"50 346 OFFCURVE",
"50 189 CURVE SMOOTH",
"50 149 OFFCURVE",
"57 88 OFFCURVE",
"86 44 CURVE",
"30 -45 LINE SMOOTH",
"26 -50 OFFCURVE",
"30 -53 OFFCURVE",
"41 -53 CURVE SMOOTH"
);
},
{
closed = 1;
nodes = (
"194 37 OFFCURVE",
"170 50 OFFCURVE",
"153 74 CURVE",
"382 432 LINE",
"389 403 OFFCURVE",
"392 363 OFFCURVE",
"392 334 CURVE SMOOTH",
"392 213 OFFCURVE",
"334 37 OFFCURVE",
"223 37 CURVE SMOOTH"
);
},
{
closed = 1;
nodes = (
"123 142 OFFCURVE",
"118 174 OFFCURVE",
"118 216 CURVE SMOOTH",
"118 398 OFFCURVE",
"209 523 OFFCURVE",
"294 523 CURVE SMOOTH",
"326 523 OFFCURVE",
"350 506 OFFCURVE",
"364 479 CURVE",
"132 115 LINE"
);
}
);
width = 490;
}
);
leftKerningGroup = O;
note = Oslash;
rightKerningGroup = O;
unicode = 00D8;
},
{
glyphname = OE;
layers = (
{
anchors = (
{
name = bottom;
position = "{343, 0}";
},
{
name = top;
position = "{343, 560}";
}
);
background = {
paths = (
{
closed = 1;
nodes = (
"234 -8 OFFCURVE",
"283 7 OFFCURVE",
"322 32 CURVE",
"318 25 OFFCURVE",
"316 14 OFFCURVE",
"316 9 CURVE SMOOTH",
"316 3 OFFCURVE",
"319 0 OFFCURVE",
"324 0 CURVE SMOOTH",
"335 0 OFFCURVE",
"351 14 OFFCURVE",
"386 14 CURVE SMOOTH",
"421 14 OFFCURVE",
"459 0 OFFCURVE",
"503 0 CURVE SMOOTH",
"587 0 OFFCURVE",
"648 50 OFFCURVE",
"648 91 CURVE SMOOTH",
"648 99 OFFCURVE",
"646 101 OFFCURVE",
"642 101 CURVE SMOOTH",
"637 101 OFFCURVE",
"633 99 OFFCURVE",
"622 93 CURVE SMOOTH",
"602 81 OFFCURVE",
"566 69 OFFCURVE",
"514 69 CURVE SMOOTH",
"475 69 OFFCURVE",
"452 75 OFFCURVE",
"434 78 CURVE",
"434 79 LINE",
"440 91 OFFCURVE",
"442 101 OFFCURVE",
"443 109 CURVE SMOOTH",
"469 260 LINE",
"496 260 LINE SMOOTH",
"534 260 OFFCURVE",
"565 250 OFFCURVE",
"579 250 CURVE SMOOTH",
"612 250 OFFCURVE",
"643 303 OFFCURVE",
"643 314 CURVE SMOOTH",
"643 318 OFFCURVE",
"641 322 OFFCURVE",
"635 322 CURVE SMOOTH",
"479 322 LINE",
"506 490 LINE",
"556 490 OFFCURVE",
"588 483 OFFCURVE",
"613 483 CURVE SMOOTH",
"684 483 OFFCURVE",
"720 534 OFFCURVE",
"720 559 CURVE SMOOTH",
"720 566 OFFCURVE",
"718 568 OFFCURVE",
"712 568 CURVE SMOOTH",
"698 568 OFFCURVE",
"682 552 OFFCURVE",
"614 552 CURVE SMOOTH",
"565 552 OFFCURVE",
"514 560 OFFCURVE",
"483 560 CURVE SMOOTH",
"464 560 OFFCURVE",
"444 557 OFFCURVE",
"417 543 CURVE",
"398 558 OFFCURVE",
"374 568 OFFCURVE",
"338 568 CURVE SMOOTH",
"162 568 OFFCURVE",
"50 348 OFFCURVE",
"50 186 CURVE SMOOTH",
"50 70 OFFCURVE",
"106 -8 OFFCURVE",
"195 -8 CURVE SMOOTH"
);
},
{
closed = 1;
nodes = (
"176 54 OFFCURVE",
"146 108 OFFCURVE",
"146 213 CURVE SMOOTH",
"146 370 OFFCURVE",
"214 506 OFFCURVE",
"302 506 CURVE SMOOTH",
"362 506 OFFCURVE",
"390 442 OFFCURVE",
"390 341 CURVE SMOOTH",
"390 205 OFFCURVE",
"338 54 OFFCURVE",
"237 54 CURVE SMOOTH"
);
}
);
};
layerId = "56450C88-1299-454A-B666-E6F9AF06B23F";
paths = (
{
closed = 1;
nodes = (
"226 -8 OFFCURVE",
"275 7 OFFCURVE",
"314 32 CURVE",
"310 25 OFFCURVE",
"308 14 OFFCURVE",
"308 9 CURVE SMOOTH",
"308 3 OFFCURVE",
"311 0 OFFCURVE",
"316 0 CURVE SMOOTH",
"327 0 OFFCURVE",
"343 14 OFFCURVE",
"378 14 CURVE SMOOTH",
"413 14 OFFCURVE",
"451 0 OFFCURVE",
"495 0 CURVE SMOOTH",
"579 0 OFFCURVE",
"640 50 OFFCURVE",
"640 91 CURVE SMOOTH",
"640 99 OFFCURVE",
"638 101 OFFCURVE",
"634 101 CURVE SMOOTH",
"629 101 OFFCURVE",
"625 99 OFFCURVE",
"614 93 CURVE SMOOTH",
"594 81 OFFCURVE",
"558 69 OFFCURVE",
"506 69 CURVE SMOOTH",
"467 69 OFFCURVE",
"444 75 OFFCURVE",
"426 78 CURVE",
"426 79 LINE",
"432 91 OFFCURVE",
"434 101 OFFCURVE",
"435 109 CURVE SMOOTH",
"461 260 LINE",
"488 260 LINE SMOOTH",
"526 260 OFFCURVE",
"557 250 OFFCURVE",
"571 250 CURVE SMOOTH",
"604 250 OFFCURVE",
"635 303 OFFCURVE",
"635 314 CURVE SMOOTH",
"635 318 OFFCURVE",
"633 322 OFFCURVE",
"627 322 CURVE SMOOTH",
"471 322 LINE",
"498 490 LINE",
"548 490 OFFCURVE",
"580 483 OFFCURVE",
"605 483 CURVE SMOOTH",
"676 483 OFFCURVE",
"712 534 OFFCURVE",
"712 559 CURVE SMOOTH",
"712 566 OFFCURVE",
"710 568 OFFCURVE",
"704 568 CURVE SMOOTH",
"690 568 OFFCURVE",
"674 552 OFFCURVE",
"606 552 CURVE SMOOTH",
"557 552 OFFCURVE",
"506 560 OFFCURVE",
"475 560 CURVE SMOOTH",
"456 560 OFFCURVE",
"436 557 OFFCURVE",
"409 543 CURVE",
"390 558 OFFCURVE",
"366 568 OFFCURVE",
"330 568 CURVE SMOOTH",
"154 568 OFFCURVE",
"42 348 OFFCURVE",
"42 186 CURVE SMOOTH",
"42 70 OFFCURVE",
"98 -8 OFFCURVE",
"187 -8 CURVE SMOOTH"
);
},
{
closed = 1;
nodes = (
"168 54 OFFCURVE",
"138 108 OFFCURVE",
"138 213 CURVE SMOOTH",
"138 370 OFFCURVE",
"206 506 OFFCURVE",
"294 506 CURVE SMOOTH",
"354 506 OFFCURVE",
"382 442 OFFCURVE",
"382 341 CURVE SMOOTH",
"382 205 OFFCURVE",
"330 54 OFFCURVE",
"229 54 CURVE SMOOTH"
);
}
);
width = 686;
},
{
anchors = (
{
name = bottom;
position = "{342, 0}";
},
{
name = top;
position = "{342, 560}";
}
);
background = {
paths = (
{
closed = 1;
nodes = (
"229 -8 OFFCURVE",
"274 10 OFFCURVE",
"312 38 CURVE",
"305 29 OFFCURVE",
"299 15 OFFCURVE",
"299 6 CURVE SMOOTH",
"299 2 OFFCURVE",
"301 0 OFFCURVE",
"304 0 CURVE SMOOTH",
"314 0 OFFCURVE",
"328 14 OFFCURVE",
"355 14 CURVE SMOOTH",
"382 14 OFFCURVE",
"444 0 OFFCURVE",
"482 0 CURVE SMOOTH",
"556 0 OFFCURVE",
"629 49 OFFCURVE",
"629 82 CURVE SMOOTH",
"629 86 OFFCURVE",
"627 90 OFFCURVE",
"623 90 CURVE SMOOTH",
"621 90 OFFCURVE",
"618 89 OFFCURVE",
"613 86 CURVE SMOOTH",
"580 65 OFFCURVE",
"536 51 OFFCURVE",
"486 51 CURVE SMOOTH",
"458 51 OFFCURVE",
"422 55 OFFCURVE",
"399 61 CURVE",
"399 62 LINE",
"406 70 OFFCURVE",
"414 89 OFFCURVE",
"418 108 CURVE SMOOTH",
"444 266 LINE",
"471 266 LINE SMOOTH",
"508 266 OFFCURVE",
"531 256 OFFCURVE",
"546 256 CURVE SMOOTH",
"576 256 OFFCURVE",
"610 300 OFFCURVE",
"610 310 CURVE SMOOTH",
"610 314 OFFCURVE",
"606 315 OFFCURVE",
"602 315 CURVE SMOOTH",
"451 315 LINE",
"482 510 LINE",
"513 510 OFFCURVE",
"556 504 OFFCURVE",
"586 504 CURVE SMOOTH",
"669 504 OFFCURVE",
"701 546 OFFCURVE",
"701 562 CURVE SMOOTH",
"701 566 OFFCURVE",
"699 568 OFFCURVE",
"694 568 CURVE SMOOTH",
"683 568 OFFCURVE",
"667 552 OFFCURVE",
"601 552 CURVE SMOOTH",
"554 552 OFFCURVE",
"497 560 OFFCURVE",
"453 560 CURVE SMOOTH",
"422 560 OFFCURVE",
"409 556 OFFCURVE",
"392 550 CURVE",
"376 561 OFFCURVE",
"357 568 OFFCURVE",
"326 568 CURVE SMOOTH",
"159 568 OFFCURVE",
"50 345 OFFCURVE",
"50 189 CURVE SMOOTH",
"50 126 OFFCURVE",
"67 -8 OFFCURVE",
"185 -8 CURVE SMOOTH"
);
},
{
closed = 1;
nodes = (
"157 37 OFFCURVE",
"118 100 OFFCURVE",
"118 217 CURVE SMOOTH",
"118 396 OFFCURVE",
"209 523 OFFCURVE",
"294 523 CURVE SMOOTH",
"362 523 OFFCURVE",
"392 441 OFFCURVE",
"392 342 CURVE SMOOTH",
"392 200 OFFCURVE",
"330 37 OFFCURVE",
"223 37 CURVE SMOOTH"
);
}
);
};
layerId = "0B1DFD06-3317-40CA-B510-4969A0718C16";
paths = (
{
closed = 1;
nodes = (
"229 -8 OFFCURVE",
"274 10 OFFCURVE",
"312 38 CURVE",
"305 29 OFFCURVE",
"299 15 OFFCURVE",
"299 6 CURVE SMOOTH",
"299 2 OFFCURVE",
"301 0 OFFCURVE",
"304 0 CURVE SMOOTH",
"314 0 OFFCURVE",
"328 14 OFFCURVE",
"355 14 CURVE SMOOTH",
"382 14 OFFCURVE",
"444 0 OFFCURVE",
"482 0 CURVE SMOOTH",
"556 0 OFFCURVE",
"629 49 OFFCURVE",
"629 82 CURVE SMOOTH",
"629 86 OFFCURVE",
"627 90 OFFCURVE",
"623 90 CURVE SMOOTH",
"621 90 OFFCURVE",
"618 89 OFFCURVE",
"613 86 CURVE SMOOTH",
"580 65 OFFCURVE",
"536 51 OFFCURVE",
"486 51 CURVE SMOOTH",
"458 51 OFFCURVE",
"422 55 OFFCURVE",
"399 61 CURVE",
"399 62 LINE",
"406 70 OFFCURVE",
"414 89 OFFCURVE",
"418 108 CURVE SMOOTH",
"444 266 LINE",
"471 266 LINE SMOOTH",
"508 266 OFFCURVE",
"531 256 OFFCURVE",
"546 256 CURVE SMOOTH",
"576 256 OFFCURVE",
"610 300 OFFCURVE",
"610 310 CURVE SMOOTH",
"610 314 OFFCURVE",
"606 315 OFFCURVE",
"602 315 CURVE SMOOTH",
"451 315 LINE",
"482 510 LINE",
"513 510 OFFCURVE",
"556 504 OFFCURVE",
"586 504 CURVE SMOOTH",
"669 504 OFFCURVE",
"701 546 OFFCURVE",
"701 562 CURVE SMOOTH",
"701 566 OFFCURVE",
"699 568 OFFCURVE",
"694 568 CURVE SMOOTH",
"683 568 OFFCURVE",
"667 552 OFFCURVE",
"601 552 CURVE SMOOTH",
"554 552 OFFCURVE",
"497 560 OFFCURVE",
"453 560 CURVE SMOOTH",
"422 560 OFFCURVE",
"409 556 OFFCURVE",
"392 550 CURVE",
"376 561 OFFCURVE",
"357 568 OFFCURVE",
"326 568 CURVE SMOOTH",
"159 568 OFFCURVE",
"50 345 OFFCURVE",
"50 189 CURVE SMOOTH",
"50 126 OFFCURVE",
"67 -8 OFFCURVE",
"185 -8 CURVE SMOOTH"
);
},
{
closed = 1;
nodes = (
"157 37 OFFCURVE",
"118 100 OFFCURVE",
"118 217 CURVE SMOOTH",
"118 396 OFFCURVE",
"209 523 OFFCURVE",
"294 523 CURVE SMOOTH",
"362 523 OFFCURVE",
"392 441 OFFCURVE",
"392 342 CURVE SMOOTH",
"392 200 OFFCURVE",
"330 37 OFFCURVE",
"223 37 CURVE SMOOTH"
);
}
);
width = 683;
}
);
leftKerningGroup = O;
leftMetricsKey = O;
note = OE;
rightKerningGroup = E;
rightMetricsKey = E;
unicode = 0152;
},
{
glyphname = P;
layers = (
{
anchors = (
{
name = bottom;
position = "{115, 0}";
},
{
name = top;
position = "{259, 560}";
}
);
background = {
anchors = (
{
name = bottom;
position = "{123, 0}";
},
{
name = top;
position = "{267, 560}";
}
);
paths = (
{
closed = 1;
nodes = (
"55 0 OFFCURVE",
"71 13 OFFCURVE",
"98 13 CURVE SMOOTH",
"124 13 OFFCURVE",
"148 0 OFFCURVE",
"170 0 CURVE SMOOTH",
"187 0 OFFCURVE",
"207 8 OFFCURVE",
"233 42 CURVE SMOOTH",
"239 50 OFFCURVE",
"243 56 OFFCURVE",
"243 64 CURVE SMOOTH",
"243 69 OFFCURVE",
"241 71 OFFCURVE",
"236 71 CURVE SMOOTH",
"227 71 OFFCURVE",
"218 62 OFFCURVE",
"199 62 CURVE SMOOTH",
"188 62 OFFCURVE",
"176 64 OFFCURVE",
"167 69 CURVE",
"167 70 LINE",
"175 78 OFFCURVE",
"183 92 OFFCURVE",
"185 106 CURVE SMOOTH",
"203 213 LINE",
"346 218 OFFCURVE",
"452 322 OFFCURVE",
"452 432 CURVE SMOOTH",
"452 518 OFFCURVE",
"378 568 OFFCURVE",
"268 568 CURVE SMOOTH",
"147 568 OFFCURVE",
"71 506 OFFCURVE",
"46 446 CURVE SMOOTH",
"43 439 OFFCURVE",
"42 434 OFFCURVE",
"42 430 CURVE SMOOTH",
"42 424 OFFCURVE",
"43 420 OFFCURVE",
"50 420 CURVE SMOOTH",
"59 420 OFFCURVE",
"64 427 OFFCURVE",
"78 440 CURVE SMOOTH",
"120 480 OFFCURVE",
"176 506 OFFCURVE",
"247 506 CURVE SMOOTH",
"327 506 OFFCURVE",
"367 473 OFFCURVE",
"367 403 CURVE SMOOTH",
"367 327 OFFCURVE",
"319 274 OFFCURVE",
"242 274 CURVE SMOOTH",
"228 274 OFFCURVE",
"219 275 OFFCURVE",
"211 277 CURVE",
"231 400 LINE SMOOTH",
"239 454 OFFCURVE",
"250 454 OFFCURVE",
"250 466 CURVE SMOOTH",
"250 471 OFFCURVE",
"247 474 OFFCURVE",
"237 474 CURVE SMOOTH",
"199 474 OFFCURVE",
"152 438 OFFCURVE",
"147 406 CURVE SMOOTH",
"104 142 LINE SMOOTH",
"95 81 OFFCURVE",
"87 71 OFFCURVE",
"67 52 CURVE SMOOTH",
"55 40 OFFCURVE",
"42 26 OFFCURVE",
"42 10 CURVE SMOOTH",
"42 2 OFFCURVE",
"44 0 OFFCURVE",
"47 0 CURVE SMOOTH"
);
}
);
};
layerId = "56450C88-1299-454A-B666-E6F9AF06B23F";
paths = (
{
closed = 1;
nodes = (
"47 0 OFFCURVE",
"63 13 OFFCURVE",
"90 13 CURVE SMOOTH",
"116 13 OFFCURVE",
"140 0 OFFCURVE",
"162 0 CURVE SMOOTH",
"179 0 OFFCURVE",
"199 8 OFFCURVE",
"225 42 CURVE SMOOTH",
"231 50 OFFCURVE",
"235 56 OFFCURVE",
"235 64 CURVE SMOOTH",
"235 69 OFFCURVE",
"233 71 OFFCURVE",
"228 71 CURVE SMOOTH",
"219 71 OFFCURVE",
"210 62 OFFCURVE",
"191 62 CURVE SMOOTH",
"180 62 OFFCURVE",
"168 64 OFFCURVE",
"159 69 CURVE",
"159 70 LINE",
"167 78 OFFCURVE",
"175 92 OFFCURVE",
"177 106 CURVE SMOOTH",
"195 213 LINE",
"338 218 OFFCURVE",
"444 322 OFFCURVE",
"444 432 CURVE SMOOTH",
"444 518 OFFCURVE",
"370 568 OFFCURVE",
"260 568 CURVE SMOOTH",
"139 568 OFFCURVE",
"63 506 OFFCURVE",
"38 446 CURVE SMOOTH",
"35 439 OFFCURVE",
"34 434 OFFCURVE",
"34 430 CURVE SMOOTH",
"34 424 OFFCURVE",
"35 420 OFFCURVE",
"42 420 CURVE SMOOTH",
"51 420 OFFCURVE",
"56 427 OFFCURVE",
"70 440 CURVE SMOOTH",
"112 480 OFFCURVE",
"168 506 OFFCURVE",
"239 506 CURVE SMOOTH",
"319 506 OFFCURVE",
"359 473 OFFCURVE",
"359 403 CURVE SMOOTH",
"359 327 OFFCURVE",
"311 274 OFFCURVE",
"234 274 CURVE SMOOTH",
"220 274 OFFCURVE",
"211 275 OFFCURVE",
"203 277 CURVE",
"223 400 LINE SMOOTH",
"231 454 OFFCURVE",
"242 454 OFFCURVE",
"242 466 CURVE SMOOTH",
"242 471 OFFCURVE",
"239 474 OFFCURVE",
"229 474 CURVE SMOOTH",
"191 474 OFFCURVE",
"144 438 OFFCURVE",
"139 406 CURVE SMOOTH",
"96 142 LINE SMOOTH",
"87 81 OFFCURVE",
"79 71 OFFCURVE",
"59 52 CURVE SMOOTH",
"47 40 OFFCURVE",
"34 26 OFFCURVE",
"34 10 CURVE SMOOTH",
"34 2 OFFCURVE",
"36 0 OFFCURVE",
"39 0 CURVE SMOOTH"
);
}
);
width = 456;
},
{
anchors = (
{
name = bottom;
position = "{113, 0}";
},
{
name = top;
position = "{255, 560}";
}
);
background = {
anchors = (
{
name = bottom;
position = "{113, 0}";
},
{
name = top;
position = "{255, 560}";
}
);
paths = (
{
closed = 1;
nodes = (
"55 0 OFFCURVE",
"69 14 OFFCURVE",
"89 14 CURVE SMOOTH",
"109 14 OFFCURVE",
"133 0 OFFCURVE",
"149 0 CURVE SMOOTH",
"155 0 OFFCURVE",
"169 2 OFFCURVE",
"198 33 CURVE SMOOTH",
"207 42 OFFCURVE",
"208 46 OFFCURVE",
"208 50 CURVE SMOOTH",
"208 54 OFFCURVE",
"206 56 OFFCURVE",
"203 56 CURVE SMOOTH",
"195 56 OFFCURVE",
"187 47 OFFCURVE",
"170 47 CURVE SMOOTH",
"160 47 OFFCURVE",
"154 50 OFFCURVE",
"142 54 CURVE",
"142 55 LINE",
"149 63 OFFCURVE",
"155 75 OFFCURVE",
"157 89 CURVE SMOOTH",
"181 229 LINE",
"299 238 OFFCURVE",
"423 329 OFFCURVE",
"423 439 CURVE SMOOTH",
"423 521 OFFCURVE",
"355 568 OFFCURVE",
"255 568 CURVE SMOOTH",
"140 568 OFFCURVE",
"57 509 OFFCURVE",
"43 451 CURVE SMOOTH",
"42 446 OFFCURVE",
"42 444 OFFCURVE",
"42 442 CURVE SMOOTH",
"42 439 OFFCURVE",
"43 436 OFFCURVE",
"47 436 CURVE SMOOTH",
"53 436 OFFCURVE",
"58 442 OFFCURVE",
"67 453 CURVE SMOOTH",
"109 501 OFFCURVE",
"165 524 OFFCURVE",
"229 524 CURVE SMOOTH",
"312 524 OFFCURVE",
"360 486 OFFCURVE",
"360 412 CURVE SMOOTH",
"360 334 OFFCURVE",
"306 274 OFFCURVE",
"227 274 CURVE SMOOTH",
"215 274 OFFCURVE",
"198 275 OFFCURVE",
"191 277 CURVE",
"215 431 LINE SMOOTH",
"221 470 OFFCURVE",
"235 474 OFFCURVE",
"235 482 CURVE SMOOTH",
"235 485 OFFCURVE",
"231 486 OFFCURVE",
"226 486 CURVE SMOOTH",
"201 486 OFFCURVE",
"159 453 OFFCURVE",
"154 426 CURVE SMOOTH",
"105 139 LINE SMOOTH",
"94 75 OFFCURVE",
"107 88 OFFCURVE",
"62 41 CURVE SMOOTH",
"50 29 OFFCURVE",
"44 20 OFFCURVE",
"44 8 CURVE SMOOTH",
"44 3 OFFCURVE",
"45 0 OFFCURVE",
"48 0 CURVE SMOOTH"
);
}
);
};
layerId = "0B1DFD06-3317-40CA-B510-4969A0718C16";
paths = (
{
closed = 1;
nodes = (
"55 0 OFFCURVE",
"69 14 OFFCURVE",
"89 14 CURVE SMOOTH",
"109 14 OFFCURVE",
"133 0 OFFCURVE",
"149 0 CURVE SMOOTH",
"155 0 OFFCURVE",
"169 2 OFFCURVE",
"198 33 CURVE SMOOTH",
"207 42 OFFCURVE",
"208 46 OFFCURVE",
"208 50 CURVE SMOOTH",
"208 54 OFFCURVE",
"206 56 OFFCURVE",
"203 56 CURVE SMOOTH",
"195 56 OFFCURVE",
"187 47 OFFCURVE",
"170 47 CURVE SMOOTH",
"160 47 OFFCURVE",
"154 50 OFFCURVE",
"142 54 CURVE",
"142 55 LINE",
"149 63 OFFCURVE",
"155 75 OFFCURVE",
"157 89 CURVE SMOOTH",
"181 229 LINE",
"299 238 OFFCURVE",
"423 329 OFFCURVE",
"423 439 CURVE SMOOTH",
"423 521 OFFCURVE",
"355 568 OFFCURVE",
"255 568 CURVE SMOOTH",
"140 568 OFFCURVE",
"57 509 OFFCURVE",
"43 451 CURVE SMOOTH",
"42 446 OFFCURVE",
"42 444 OFFCURVE",
"42 442 CURVE SMOOTH",
"42 439 OFFCURVE",
"43 436 OFFCURVE",
"47 436 CURVE SMOOTH",
"53 436 OFFCURVE",
"58 442 OFFCURVE",
"67 453 CURVE SMOOTH",
"109 501 OFFCURVE",
"165 524 OFFCURVE",
"229 524 CURVE SMOOTH",
"312 524 OFFCURVE",
"360 486 OFFCURVE",
"360 412 CURVE SMOOTH",
"360 334 OFFCURVE",
"306 274 OFFCURVE",
"227 274 CURVE SMOOTH",
"215 274 OFFCURVE",
"198 275 OFFCURVE",
"191 277 CURVE",
"215 431 LINE SMOOTH",
"221 470 OFFCURVE",
"235 474 OFFCURVE",
"235 482 CURVE SMOOTH",
"235 485 OFFCURVE",
"231 486 OFFCURVE",
"226 486 CURVE SMOOTH",
"201 486 OFFCURVE",
"159 453 OFFCURVE",
"154 426 CURVE SMOOTH",
"105 139 LINE SMOOTH",
"93 68 OFFCURVE",
"94 71 OFFCURVE",
"62 41 CURVE SMOOTH",
"50 29 OFFCURVE",
"44 20 OFFCURVE",
"44 8 CURVE SMOOTH",
"44 3 OFFCURVE",
"45 0 OFFCURVE",
"48 0 CURVE SMOOTH"
);
}
);
width = 443;
}
);
leftKerningGroup = P;
note = P;
rightKerningGroup = P;
unicode = 0050;
},
{
glyphname = Thorn;
layers = (
{
anchors = (
{
name = bottom;
position = "{225, 0}";
},
{
name = top;
position = "{284, 654}";
}
);
background = {
paths = (
{
closed = 1;
nodes = (
"49 0 OFFCURVE",
"65 13 OFFCURVE",
"92 13 CURVE SMOOTH",
"118 13 OFFCURVE",
"142 0 OFFCURVE",
"164 0 CURVE SMOOTH",
"181 0 OFFCURVE",
"201 8 OFFCURVE",
"227 42 CURVE SMOOTH",
"233 50 OFFCURVE",
"237 56 OFFCURVE",
"237 64 CURVE SMOOTH",
"237 69 OFFCURVE",
"235 71 OFFCURVE",
"230 71 CURVE SMOOTH",
"221 71 OFFCURVE",
"212 62 OFFCURVE",
"193 62 CURVE SMOOTH",
"182 62 OFFCURVE",
"170 64 OFFCURVE",
"161 69 CURVE",
"161 70 LINE",
"169 78 OFFCURVE",
"177 92 OFFCURVE",
"179 106 CURVE SMOOTH",
"188 157 LINE",
"313 169 OFFCURVE",
"445 266 OFFCURVE",
"445 378 CURVE SMOOTH",
"445 462 OFFCURVE",
"370 512 OFFCURVE",
"261 512 CURVE SMOOTH",
"204 512 OFFCURVE",
"187 498 OFFCURVE",
"187 482 CURVE SMOOTH",
"187 468 OFFCURVE",
"203 454 OFFCURVE",
"242 450 CURVE SMOOTH",
"292 446 OFFCURVE",
"361 436 OFFCURVE",
"361 350 CURVE SMOOTH",
"361 271 OFFCURVE",
"303 218 OFFCURVE",
"226 218 CURVE SMOOTH",
"213 218 OFFCURVE",
"204 219 OFFCURVE",
"196 221 CURVE",
"252 582 LINE SMOOTH",
"258 626 OFFCURVE",
"273 634 OFFCURVE",
"273 647 CURVE SMOOTH",
"273 654 OFFCURVE",
"269 656 OFFCURVE",
"259 656 CURVE SMOOTH",
"221 656 OFFCURVE",
"175 621 OFFCURVE",
"170 589 CURVE SMOOTH",
"99 142 LINE SMOOTH",
"89 82 OFFCURVE",
"81 71 OFFCURVE",
"61 52 CURVE SMOOTH",
"49 40 OFFCURVE",
"36 26 OFFCURVE",
"36 10 CURVE SMOOTH",
"36 2 OFFCURVE",
"38 0 OFFCURVE",
"41 0 CURVE SMOOTH"
);
}
);
};
layerId = "56450C88-1299-454A-B666-E6F9AF06B23F";
paths = (
{
closed = 1;
nodes = (
"41 0 OFFCURVE",
"57 13 OFFCURVE",
"84 13 CURVE SMOOTH",
"110 13 OFFCURVE",
"134 0 OFFCURVE",
"156 0 CURVE SMOOTH",
"173 0 OFFCURVE",
"193 8 OFFCURVE",
"219 42 CURVE SMOOTH",
"225 50 OFFCURVE",
"229 56 OFFCURVE",
"229 64 CURVE SMOOTH",
"229 69 OFFCURVE",
"227 71 OFFCURVE",
"222 71 CURVE SMOOTH",
"213 71 OFFCURVE",
"204 62 OFFCURVE",
"185 62 CURVE SMOOTH",
"174 62 OFFCURVE",
"162 64 OFFCURVE",
"153 69 CURVE",
"153 70 LINE",
"161 78 OFFCURVE",
"169 92 OFFCURVE",
"171 106 CURVE SMOOTH",
"180 157 LINE",
"305 169 OFFCURVE",
"437 266 OFFCURVE",
"437 378 CURVE SMOOTH",
"437 462 OFFCURVE",
"362 512 OFFCURVE",
"253 512 CURVE SMOOTH",
"196 512 OFFCURVE",
"179 498 OFFCURVE",
"179 482 CURVE SMOOTH",
"179 468 OFFCURVE",
"195 454 OFFCURVE",
"234 450 CURVE SMOOTH",
"284 446 OFFCURVE",
"353 436 OFFCURVE",
"353 350 CURVE SMOOTH",
"353 271 OFFCURVE",
"295 218 OFFCURVE",
"218 218 CURVE SMOOTH",
"205 218 OFFCURVE",
"196 219 OFFCURVE",
"188 221 CURVE",
"244 582 LINE SMOOTH",
"250 626 OFFCURVE",
"265 634 OFFCURVE",
"265 647 CURVE SMOOTH",
"265 654 OFFCURVE",
"261 656 OFFCURVE",
"251 656 CURVE SMOOTH",
"213 656 OFFCURVE",
"167 621 OFFCURVE",
"162 589 CURVE SMOOTH",
"91 142 LINE SMOOTH",
"81 82 OFFCURVE",
"73 71 OFFCURVE",
"53 52 CURVE SMOOTH",
"41 40 OFFCURVE",
"28 26 OFFCURVE",
"28 10 CURVE SMOOTH",
"28 2 OFFCURVE",
"30 0 OFFCURVE",
"33 0 CURVE SMOOTH"
);
}
);
width = 459;
},
{
anchors = (
{
name = bottom;
position = "{182, 0}";
},
{
name = top;
position = "{261, 656}";
}
);
background = {
paths = (
{
closed = 1;
nodes = (
"47 0 OFFCURVE",
"62 14 OFFCURVE",
"82 14 CURVE SMOOTH",
"102 14 OFFCURVE",
"126 0 OFFCURVE",
"142 0 CURVE SMOOTH",
"148 0 OFFCURVE",
"162 2 OFFCURVE",
"190 33 CURVE SMOOTH",
"199 42 OFFCURVE",
"201 46 OFFCURVE",
"201 50 CURVE SMOOTH",
"201 54 OFFCURVE",
"198 56 OFFCURVE",
"195 56 CURVE SMOOTH",
"188 56 OFFCURVE",
"180 47 OFFCURVE",
"162 47 CURVE SMOOTH",
"153 47 OFFCURVE",
"146 50 OFFCURVE",
"134 54 CURVE",
"134 55 LINE",
"142 63 OFFCURVE",
"147 75 OFFCURVE",
"150 89 CURVE SMOOTH",
"162 157 LINE",
"280 166 OFFCURVE",
"402 256 OFFCURVE",
"402 368 CURVE SMOOTH",
"402 449 OFFCURVE",
"338 496 OFFCURVE",
"228 496 CURVE SMOOTH",
"177 496 OFFCURVE",
"155 486 OFFCURVE",
"155 473 CURVE SMOOTH",
"155 461 OFFCURVE",
"176 454 OFFCURVE",
"209 452 CURVE SMOOTH",
"247 450 OFFCURVE",
"340 446 OFFCURVE",
"340 342 CURVE SMOOTH",
"340 261 OFFCURVE",
"285 202 OFFCURVE",
"207 202 CURVE SMOOTH",
"194 202 OFFCURVE",
"178 203 OFFCURVE",
"170 205 CURVE",
"235 601 LINE SMOOTH",
"242 639 OFFCURVE",
"255 645 OFFCURVE",
"255 651 CURVE SMOOTH",
"255 654 OFFCURVE",
"252 656 OFFCURVE",
"246 656 CURVE SMOOTH",
"222 656 OFFCURVE",
"179 622 OFFCURVE",
"174 596 CURVE SMOOTH",
"98 139 LINE SMOOTH",
"86 74 OFFCURVE",
"95 81 OFFCURVE",
"54 41 CURVE SMOOTH",
"42 29 OFFCURVE",
"37 20 OFFCURVE",
"37 8 CURVE SMOOTH",
"37 3 OFFCURVE",
"38 0 OFFCURVE",
"41 0 CURVE SMOOTH"
);
}
);
};
layerId = "0B1DFD06-3317-40CA-B510-4969A0718C16";
paths = (
{
closed = 1;
nodes = (
"46 0 OFFCURVE",
"61 14 OFFCURVE",
"81 14 CURVE SMOOTH",
"101 14 OFFCURVE",
"125 0 OFFCURVE",
"141 0 CURVE SMOOTH",
"147 0 OFFCURVE",
"159 3 OFFCURVE",
"189 33 CURVE SMOOTH",
"198 42 OFFCURVE",
"200 46 OFFCURVE",
"200 50 CURVE SMOOTH",
"200 54 OFFCURVE",
"197 56 OFFCURVE",
"194 56 CURVE SMOOTH",
"187 56 OFFCURVE",
"179 47 OFFCURVE",
"161 47 CURVE SMOOTH",
"152 47 OFFCURVE",
"145 50 OFFCURVE",
"133 54 CURVE",
"133 55 LINE",
"141 63 OFFCURVE",
"147 75 OFFCURVE",
"149 89 CURVE SMOOTH",
"161 157 LINE",
"279 166 OFFCURVE",
"401 256 OFFCURVE",
"401 368 CURVE SMOOTH",
"401 449 OFFCURVE",
"337 496 OFFCURVE",
"227 496 CURVE SMOOTH",
"176 496 OFFCURVE",
"154 486 OFFCURVE",
"154 473 CURVE SMOOTH",
"154 461 OFFCURVE",
"175 454 OFFCURVE",
"208 452 CURVE SMOOTH",
"246 450 OFFCURVE",
"339 446 OFFCURVE",
"339 342 CURVE SMOOTH",
"339 261 OFFCURVE",
"284 202 OFFCURVE",
"206 202 CURVE SMOOTH",
"193 202 OFFCURVE",
"177 203 OFFCURVE",
"169 205 CURVE",
"234 601 LINE SMOOTH",
"240 639 OFFCURVE",
"254 645 OFFCURVE",
"254 651 CURVE SMOOTH",
"254 654 OFFCURVE",
"251 656 OFFCURVE",
"245 656 CURVE SMOOTH",
"221 656 OFFCURVE",
"177 622 OFFCURVE",
"173 596 CURVE SMOOTH",
"97 139 LINE SMOOTH",
"86 74 OFFCURVE",
"94 82 OFFCURVE",
"53 41 CURVE SMOOTH",
"41 29 OFFCURVE",
"36 20 OFFCURVE",
"36 8 CURVE SMOOTH",
"36 3 OFFCURVE",
"37 0 OFFCURVE",
"40 0 CURVE SMOOTH"
);
}
);
width = 431;
}
);
note = Thorn;
rightKerningGroup = P;
unicode = 00DE;
},
{
glyphname = Q;
layers = (
{
anchors = (
{
name = bottom;
position = "{163, -66}";
},
{
name = top;
position = "{327, 560}";
}
);
background = {
anchors = (
{
name = bottom;
position = "{171, -66}";
},
{
name = top;
position = "{335, 560}";
}
);
components = (
{
name = O;
}
);
paths = (
{
closed = 1;
nodes = (
"546 -214 OFFCURVE",
"592 -123 OFFCURVE",
"592 -88 CURVE SMOOTH",
"593 -82 OFFCURVE",
"590 -77 OFFCURVE",
"584 -77 CURVE SMOOTH",
"576 -77 OFFCURVE",
"573 -84 OFFCURVE",
"566 -95 CURVE SMOOTH",
"544 -128 OFFCURVE",
"510 -150 OFFCURVE",
"463 -150 CURVE SMOOTH",
"398 -150 OFFCURVE",
"347 -108 OFFCURVE",
"269 22 CURVE SMOOTH",
"259 38 LINE",
"177 30 LINE",
"191 4 LINE SMOOTH",
"275 -146 OFFCURVE",
"350 -214 OFFCURVE",
"442 -214 CURVE SMOOTH"
);
}
);
};
components = (
{
name = O;
transform = "{1, 0, 0, 1, -16, 0}";
}
);
layerId = "56450C88-1299-454A-B666-E6F9AF06B23F";
paths = (
{
closed = 1;
nodes = (
"538 -214 OFFCURVE",
"584 -123 OFFCURVE",
"584 -88 CURVE SMOOTH",
"585 -82 OFFCURVE",
"582 -77 OFFCURVE",
"576 -77 CURVE SMOOTH",
"568 -77 OFFCURVE",
"565 -84 OFFCURVE",
"558 -95 CURVE SMOOTH",
"536 -128 OFFCURVE",
"502 -150 OFFCURVE",
"455 -150 CURVE SMOOTH",
"390 -150 OFFCURVE",
"339 -108 OFFCURVE",
"261 22 CURVE SMOOTH",
"251 38 LINE",
"169 30 LINE",
"183 4 LINE SMOOTH",
"267 -146 OFFCURVE",
"342 -214 OFFCURVE",
"434 -214 CURVE SMOOTH"
);
}
);
width = 494;
},
{
anchors = (
{
name = bottom;
position = "{182, -74}";
},
{
name = top;
position = "{338, 560}";
}
);
background = {
anchors = (
{
name = bottom;
position = "{182, -74}";
},
{
name = top;
position = "{338, 560}";
}
);
components = (
{
name = O;
}
);
paths = (
{
closed = 1;
nodes = (
"511 -214 OFFCURVE",
"572 -155 OFFCURVE",
"573 -101 CURVE SMOOTH",
"573 -94 OFFCURVE",
"571 -93 OFFCURVE",
"568 -93 CURVE SMOOTH",
"564 -93 OFFCURVE",
"562 -98 OFFCURVE",
"556 -107 CURVE SMOOTH",
"532 -146 OFFCURVE",
"497 -166 OFFCURVE",
"455 -166 CURVE SMOOTH",
"387 -166 OFFCURVE",
"331 -113 OFFCURVE",
"252 10 CURVE SMOOTH",
"245 22 LINE",
"187 15 LINE",
"196 0 LINE SMOOTH",
"274 -134 OFFCURVE",
"347 -214 OFFCURVE",
"436 -214 CURVE SMOOTH"
);
}
);
};
components = (
{
name = O;
}
);
layerId = "0B1DFD06-3317-40CA-B510-4969A0718C16";
paths = (
{
closed = 1;
nodes = (
"511 -214 OFFCURVE",
"572 -155 OFFCURVE",
"573 -101 CURVE SMOOTH",
"573 -94 OFFCURVE",
"571 -93 OFFCURVE",
"568 -93 CURVE SMOOTH",
"564 -93 OFFCURVE",
"562 -98 OFFCURVE",
"556 -107 CURVE SMOOTH",
"532 -146 OFFCURVE",
"497 -166 OFFCURVE",
"455 -166 CURVE SMOOTH",
"387 -166 OFFCURVE",
"331 -113 OFFCURVE",
"252 10 CURVE SMOOTH",
"245 22 LINE",
"187 15 LINE",
"196 0 LINE SMOOTH",
"274 -134 OFFCURVE",
"347 -214 OFFCURVE",
"436 -214 CURVE SMOOTH"
);
}
);
width = 491;
}
);
leftKerningGroup = O;
note = Q;
rightKerningGroup = O;
unicode = 0051;
},
{
glyphname = R;
layers = (
{
anchors = (
{
name = bottom;
position = "{239, 0}";
},
{
name = top;
position = "{275, 560}";
}
);
background = {
anchors = (
{
name = bottom;
position = "{247, 0}";
},
{
name = top;
position = "{283, 560}";
}
);
paths = (
{
closed = 1;
nodes = (
"463 -8 OFFCURVE",
"502 38 OFFCURVE",
"502 86 CURVE SMOOTH",
"502 99 OFFCURVE",
"498 106 OFFCURVE",
"492 106 CURVE SMOOTH",
"486 106 OFFCURVE",
"483 100 OFFCURVE",
"478 93 CURVE SMOOTH",
"467 77 OFFCURVE",
"454 70 OFFCURVE",
"438 70 CURVE SMOOTH",
"424 70 OFFCURVE",
"413 75 OFFCURVE",
"398 110 CURVE SMOOTH",
"356 211 LINE SMOOTH",
"346 236 OFFCURVE",
"328 254 OFFCURVE",
"305 265 CURVE",
"391 295 OFFCURVE",
"444 354 OFFCURVE",
"444 431 CURVE SMOOTH",
"444 518 OFFCURVE",
"378 568 OFFCURVE",
"269 568 CURVE SMOOTH",
"148 568 OFFCURVE",
"71 507 OFFCURVE",
"46 446 CURVE SMOOTH",
"43 439 OFFCURVE",
"42 434 OFFCURVE",
"42 430 CURVE SMOOTH",
"42 424 OFFCURVE",
"43 420 OFFCURVE",
"50 420 CURVE SMOOTH",
"59 420 OFFCURVE",
"64 427 OFFCURVE",
"78 440 CURVE SMOOTH",
"121 481 OFFCURVE",
"178 506 OFFCURVE",
"246 506 CURVE SMOOTH",
"330 506 OFFCURVE",
"359 470 OFFCURVE",
"359 403 CURVE SMOOTH",
"359 327 OFFCURVE",
"320 282 OFFCURVE",
"243 282 CURVE SMOOTH",
"229 282 OFFCURVE",
"220 283 OFFCURVE",
"212 285 CURVE",
"230 400 LINE SMOOTH",
"238 449 OFFCURVE",
"251 453 OFFCURVE",
"251 466 CURVE SMOOTH",
"251 471 OFFCURVE",
"249 474 OFFCURVE",
"238 474 CURVE SMOOTH",
"200 474 OFFCURVE",
"154 438 OFFCURVE",
"148 406 CURVE SMOOTH",
"106 142 LINE SMOOTH",
"96 82 OFFCURVE",
"88 72 OFFCURVE",
"68 52 CURVE SMOOTH",
"55 40 OFFCURVE",
"42 26 OFFCURVE",
"42 10 CURVE SMOOTH",
"42 2 OFFCURVE",
"45 0 OFFCURVE",
"48 0 CURVE SMOOTH",
"56 0 OFFCURVE",
"71 13 OFFCURVE",
"98 13 CURVE SMOOTH",
"124 13 OFFCURVE",
"149 0 OFFCURVE",
"170 0 CURVE SMOOTH",
"184 0 OFFCURVE",
"207 6 OFFCURVE",
"228 42 CURVE SMOOTH",
"233 50 OFFCURVE",
"236 57 OFFCURVE",
"236 64 CURVE SMOOTH",
"236 69 OFFCURVE",
"234 71 OFFCURVE",
"230 71 CURVE SMOOTH",
"221 71 OFFCURVE",
"213 62 OFFCURVE",
"195 62 CURVE SMOOTH",
"186 62 OFFCURVE",
"176 64 OFFCURVE",
"166 69 CURVE",
"166 70 LINE",
"175 78 OFFCURVE",
"182 92 OFFCURVE",
"185 106 CURVE SMOOTH",
"207 245 LINE",
"254 245 OFFCURVE",
"257 230 OFFCURVE",
"273 192 CURVE SMOOTH",
"324 70 LINE SMOOTH",
"346 17 OFFCURVE",
"374 -8 OFFCURVE",
"411 -8 CURVE SMOOTH"
);
}
);
};
layerId = "56450C88-1299-454A-B666-E6F9AF06B23F";
paths = (
{
closed = 1;
nodes = (
"455 -8 OFFCURVE",
"494 38 OFFCURVE",
"494 86 CURVE SMOOTH",
"494 99 OFFCURVE",
"490 106 OFFCURVE",
"484 106 CURVE SMOOTH",
"478 106 OFFCURVE",
"475 100 OFFCURVE",
"470 93 CURVE SMOOTH",
"459 77 OFFCURVE",
"446 70 OFFCURVE",
"430 70 CURVE SMOOTH",
"416 70 OFFCURVE",
"405 75 OFFCURVE",
"390 110 CURVE SMOOTH",
"348 211 LINE SMOOTH",
"338 236 OFFCURVE",
"320 254 OFFCURVE",
"297 265 CURVE",
"383 295 OFFCURVE",
"436 354 OFFCURVE",
"436 431 CURVE SMOOTH",
"436 518 OFFCURVE",
"370 568 OFFCURVE",
"261 568 CURVE SMOOTH",
"140 568 OFFCURVE",
"63 507 OFFCURVE",
"38 446 CURVE SMOOTH",
"35 439 OFFCURVE",
"34 434 OFFCURVE",
"34 430 CURVE SMOOTH",
"34 424 OFFCURVE",
"35 420 OFFCURVE",
"42 420 CURVE SMOOTH",
"51 420 OFFCURVE",
"56 427 OFFCURVE",
"70 440 CURVE SMOOTH",
"113 481 OFFCURVE",
"170 506 OFFCURVE",
"238 506 CURVE SMOOTH",
"322 506 OFFCURVE",
"351 470 OFFCURVE",
"351 403 CURVE SMOOTH",
"351 327 OFFCURVE",
"312 282 OFFCURVE",
"235 282 CURVE SMOOTH",
"221 282 OFFCURVE",
"212 283 OFFCURVE",
"204 285 CURVE",
"222 400 LINE SMOOTH",
"230 449 OFFCURVE",
"243 453 OFFCURVE",
"243 466 CURVE SMOOTH",
"243 471 OFFCURVE",
"241 474 OFFCURVE",
"230 474 CURVE SMOOTH",
"192 474 OFFCURVE",
"146 438 OFFCURVE",
"140 406 CURVE SMOOTH",
"98 142 LINE SMOOTH",
"88 82 OFFCURVE",
"80 72 OFFCURVE",
"60 52 CURVE SMOOTH",
"47 40 OFFCURVE",
"34 26 OFFCURVE",
"34 10 CURVE SMOOTH",
"34 2 OFFCURVE",
"37 0 OFFCURVE",
"40 0 CURVE SMOOTH",
"48 0 OFFCURVE",
"63 13 OFFCURVE",
"90 13 CURVE SMOOTH",
"116 13 OFFCURVE",
"141 0 OFFCURVE",
"162 0 CURVE SMOOTH",
"176 0 OFFCURVE",
"199 6 OFFCURVE",
"220 42 CURVE SMOOTH",
"225 50 OFFCURVE",
"228 57 OFFCURVE",
"228 64 CURVE SMOOTH",
"228 69 OFFCURVE",
"226 71 OFFCURVE",
"222 71 CURVE SMOOTH",
"213 71 OFFCURVE",
"205 62 OFFCURVE",
"187 62 CURVE SMOOTH",
"178 62 OFFCURVE",
"168 64 OFFCURVE",
"158 69 CURVE",
"158 70 LINE",
"167 78 OFFCURVE",
"174 92 OFFCURVE",
"177 106 CURVE SMOOTH",
"199 245 LINE",
"246 245 OFFCURVE",
"249 230 OFFCURVE",
"265 192 CURVE SMOOTH",
"316 70 LINE SMOOTH",
"338 17 OFFCURVE",
"366 -8 OFFCURVE",
"403 -8 CURVE SMOOTH"
);
}
);
width = 492;
},
{
anchors = (
{
name = bottom;
position = "{230, 0}";
},
{
name = top;
position = "{268, 560}";
}
);
background = {
anchors = (
{
name = bottom;
position = "{230, 0}";
},
{
name = top;
position = "{268, 560}";
}
);
paths = (
{
closed = 1;
nodes = (
"431 -8 OFFCURVE",
"473 34 OFFCURVE",
"473 74 CURVE SMOOTH",
"473 80 OFFCURVE",
"472 85 OFFCURVE",
"467 85 CURVE SMOOTH",
"462 85 OFFCURVE",
"461 81 OFFCURVE",
"453 71 CURVE SMOOTH",
"442 58 OFFCURVE",
"429 50 OFFCURVE",
"415 50 CURVE SMOOTH",
"395 50 OFFCURVE",
"386 65 OFFCURVE",
"377 89 CURVE SMOOTH",
"336 198 LINE SMOOTH",
"326 226 OFFCURVE",
"307 252 OFFCURVE",
"273 262 CURVE",
"354 286 OFFCURVE",
"415 353 OFFCURVE",
"415 438 CURVE SMOOTH",
"415 521 OFFCURVE",
"356 568 OFFCURVE",
"256 568 CURVE SMOOTH",
"138 568 OFFCURVE",
"57 505 OFFCURVE",
"43 451 CURVE SMOOTH",
"42 447 OFFCURVE",
"42 444 OFFCURVE",
"42 442 CURVE SMOOTH",
"42 439 OFFCURVE",
"43 436 OFFCURVE",
"47 436 CURVE SMOOTH",
"53 436 OFFCURVE",
"58 442 OFFCURVE",
"68 453 CURVE SMOOTH",
"113 503 OFFCURVE",
"167 524 OFFCURVE",
"230 524 CURVE SMOOTH",
"313 524 OFFCURVE",
"353 486 OFFCURVE",
"353 412 CURVE SMOOTH",
"353 334 OFFCURVE",
"308 282 OFFCURVE",
"231 282 CURVE SMOOTH",
"217 282 OFFCURVE",
"200 283 OFFCURVE",
"193 285 CURVE",
"215 431 LINE SMOOTH",
"222 472 OFFCURVE",
"235 474 OFFCURVE",
"235 482 CURVE SMOOTH",
"235 485 OFFCURVE",
"232 486 OFFCURVE",
"227 486 CURVE SMOOTH",
"202 486 OFFCURVE",
"159 453 OFFCURVE",
"155 426 CURVE SMOOTH",
"106 139 LINE SMOOTH",
"95 75 OFFCURVE",
"107 88 OFFCURVE",
"63 41 CURVE SMOOTH",
"51 29 OFFCURVE",
"45 20 OFFCURVE",
"45 8 CURVE SMOOTH",
"45 3 OFFCURVE",
"46 0 OFFCURVE",
"49 0 CURVE SMOOTH",
"55 0 OFFCURVE",
"70 14 OFFCURVE",
"90 14 CURVE SMOOTH",
"110 14 OFFCURVE",
"134 0 OFFCURVE",
"150 0 CURVE SMOOTH",
"156 0 OFFCURVE",
"170 2 OFFCURVE",
"199 33 CURVE SMOOTH",
"207 42 OFFCURVE",
"209 46 OFFCURVE",
"209 51 CURVE SMOOTH",
"209 54 OFFCURVE",
"207 56 OFFCURVE",
"204 56 CURVE SMOOTH",
"197 56 OFFCURVE",
"188 47 OFFCURVE",
"171 47 CURVE SMOOTH",
"161 47 OFFCURVE",
"155 50 OFFCURVE",
"143 54 CURVE",
"143 55 LINE",
"150 63 OFFCURVE",
"155 75 OFFCURVE",
"158 89 CURVE SMOOTH",
"184 245 LINE",
"250 245 OFFCURVE",
"262 228 OFFCURVE",
"278 184 CURVE SMOOTH",
"327 53 LINE SMOOTH",
"342 12 OFFCURVE",
"362 -8 OFFCURVE",
"390 -8 CURVE SMOOTH"
);
}
);
};
layerId = "0B1DFD06-3317-40CA-B510-4969A0718C16";
paths = (
{
closed = 1;
nodes = (
"431 -8 OFFCURVE",
"473 34 OFFCURVE",
"473 74 CURVE SMOOTH",
"473 80 OFFCURVE",
"472 85 OFFCURVE",
"467 85 CURVE SMOOTH",
"462 85 OFFCURVE",
"461 81 OFFCURVE",
"453 71 CURVE SMOOTH",
"442 58 OFFCURVE",
"429 50 OFFCURVE",
"415 50 CURVE SMOOTH",
"395 50 OFFCURVE",
"386 65 OFFCURVE",
"377 89 CURVE SMOOTH",
"336 198 LINE SMOOTH",
"326 226 OFFCURVE",
"307 252 OFFCURVE",
"273 262 CURVE",
"354 286 OFFCURVE",
"415 353 OFFCURVE",
"415 438 CURVE SMOOTH",
"415 521 OFFCURVE",
"356 568 OFFCURVE",
"256 568 CURVE SMOOTH",
"138 568 OFFCURVE",
"57 505 OFFCURVE",
"43 451 CURVE SMOOTH",
"42 447 OFFCURVE",
"42 444 OFFCURVE",
"42 442 CURVE SMOOTH",
"42 439 OFFCURVE",
"43 436 OFFCURVE",
"47 436 CURVE SMOOTH",
"53 436 OFFCURVE",
"58 442 OFFCURVE",
"68 453 CURVE SMOOTH",
"113 503 OFFCURVE",
"167 524 OFFCURVE",
"230 524 CURVE SMOOTH",
"313 524 OFFCURVE",
"353 486 OFFCURVE",
"353 412 CURVE SMOOTH",
"353 334 OFFCURVE",
"308 282 OFFCURVE",
"231 282 CURVE SMOOTH",
"217 282 OFFCURVE",
"200 283 OFFCURVE",
"193 285 CURVE",
"215 431 LINE SMOOTH",
"222 472 OFFCURVE",
"235 474 OFFCURVE",
"235 482 CURVE SMOOTH",
"235 485 OFFCURVE",
"232 486 OFFCURVE",
"227 486 CURVE SMOOTH",
"202 486 OFFCURVE",
"160 453 OFFCURVE",
"155 426 CURVE SMOOTH",
"106 139 LINE SMOOTH",
"94 68 OFFCURVE",
"95 71 OFFCURVE",
"63 41 CURVE SMOOTH",
"51 29 OFFCURVE",
"45 20 OFFCURVE",
"45 8 CURVE SMOOTH",
"45 3 OFFCURVE",
"46 0 OFFCURVE",
"49 0 CURVE SMOOTH",
"55 0 OFFCURVE",
"70 14 OFFCURVE",
"90 14 CURVE SMOOTH",
"110 14 OFFCURVE",
"134 0 OFFCURVE",
"150 0 CURVE SMOOTH",
"156 0 OFFCURVE",
"170 2 OFFCURVE",
"199 33 CURVE SMOOTH",
"207 42 OFFCURVE",
"209 46 OFFCURVE",
"209 51 CURVE SMOOTH",
"209 54 OFFCURVE",
"207 56 OFFCURVE",
"204 56 CURVE SMOOTH",
"197 56 OFFCURVE",
"188 47 OFFCURVE",
"171 47 CURVE SMOOTH",
"161 47 OFFCURVE",
"155 50 OFFCURVE",
"143 54 CURVE",
"143 55 LINE",
"150 63 OFFCURVE",
"156 75 OFFCURVE",
"158 89 CURVE SMOOTH",
"184 245 LINE",
"250 245 OFFCURVE",
"262 228 OFFCURVE",
"278 184 CURVE SMOOTH",
"327 53 LINE SMOOTH",
"342 12 OFFCURVE",
"362 -8 OFFCURVE",
"390 -8 CURVE SMOOTH"
);
}
);
width = 479;
}
);
leftKerningGroup = R;
note = R;
rightKerningGroup = R;
unicode = 0052;
},
{
glyphname = S;
layers = (
{
anchors = (
{
name = bottom;
position = "{126, 0}";
},
{
name = top;
position = "{268, 560}";
}
);
background = {
anchors = (
{
name = bottom;
position = "{134, 0}";
},
{
name = top;
position = "{276, 560}";
}
);
paths = (
{
closed = 1;
nodes = (
"241 -8 OFFCURVE",
"334 78 OFFCURVE",
"334 177 CURVE SMOOTH",
"334 221 OFFCURVE",
"316 257 OFFCURVE",
"280 298 CURVE SMOOTH",
"202 387 LINE SMOOTH",
"184 408 OFFCURVE",
"176 426 OFFCURVE",
"176 448 CURVE SMOOTH",
"176 486 OFFCURVE",
"202 514 OFFCURVE",
"252 514 CURVE SMOOTH",
"302 514 OFFCURVE",
"315 486 OFFCURVE",
"318 450 CURVE SMOOTH",
"319 437 OFFCURVE",
"321 421 OFFCURVE",
"335 421 CURVE SMOOTH",
"345 421 OFFCURVE",
"354 428 OFFCURVE",
"365 446 CURVE SMOOTH",
"373 459 OFFCURVE",
"380 478 OFFCURVE",
"380 497 CURVE SMOOTH",
"380 542 OFFCURVE",
"342 568 OFFCURVE",
"278 568 CURVE SMOOTH",
"159 568 OFFCURVE",
"98 481 OFFCURVE",
"98 400 CURVE SMOOTH",
"98 370 OFFCURVE",
"106 348 OFFCURVE",
"130 320 CURVE SMOOTH",
"206 230 LINE SMOOTH",
"238 191 OFFCURVE",
"251 170 OFFCURVE",
"251 134 CURVE SMOOTH",
"251 83 OFFCURVE",
"222 50 OFFCURVE",
"163 50 CURVE SMOOTH",
"98 50 OFFCURVE",
"90 92 OFFCURVE",
"80 177 CURVE SMOOTH",
"79 182 OFFCURVE",
"78 186 OFFCURVE",
"74 186 CURVE SMOOTH",
"56 186 OFFCURVE",
"9 128 OFFCURVE",
"10 85 CURVE SMOOTH",
"12 46 OFFCURVE",
"54 -8 OFFCURVE",
"137 -8 CURVE SMOOTH"
);
}
);
};
layerId = "56450C88-1299-454A-B666-E6F9AF06B23F";
paths = (
{
closed = 1;
nodes = (
"233 -8 OFFCURVE",
"326 78 OFFCURVE",
"326 177 CURVE SMOOTH",
"326 221 OFFCURVE",
"308 257 OFFCURVE",
"272 298 CURVE SMOOTH",
"194 387 LINE SMOOTH",
"176 408 OFFCURVE",
"168 426 OFFCURVE",
"168 448 CURVE SMOOTH",
"168 486 OFFCURVE",
"194 514 OFFCURVE",
"244 514 CURVE SMOOTH",
"294 514 OFFCURVE",
"307 486 OFFCURVE",
"310 450 CURVE SMOOTH",
"311 437 OFFCURVE",
"313 421 OFFCURVE",
"327 421 CURVE SMOOTH",
"337 421 OFFCURVE",
"346 428 OFFCURVE",
"357 446 CURVE SMOOTH",
"365 459 OFFCURVE",
"372 478 OFFCURVE",
"372 497 CURVE SMOOTH",
"372 542 OFFCURVE",
"334 568 OFFCURVE",
"270 568 CURVE SMOOTH",
"151 568 OFFCURVE",
"90 481 OFFCURVE",
"90 400 CURVE SMOOTH",
"90 370 OFFCURVE",
"98 348 OFFCURVE",
"122 320 CURVE SMOOTH",
"198 230 LINE SMOOTH",
"230 191 OFFCURVE",
"243 170 OFFCURVE",
"243 134 CURVE SMOOTH",
"243 83 OFFCURVE",
"214 50 OFFCURVE",
"155 50 CURVE SMOOTH",
"90 50 OFFCURVE",
"82 92 OFFCURVE",
"72 177 CURVE SMOOTH",
"71 182 OFFCURVE",
"70 186 OFFCURVE",
"66 186 CURVE SMOOTH",
"48 186 OFFCURVE",
"1 128 OFFCURVE",
"2 85 CURVE SMOOTH",
"4 46 OFFCURVE",
"46 -8 OFFCURVE",
"129 -8 CURVE SMOOTH"
);
}
);
width = 380;
},
{
anchors = (
{
name = bottom;
position = "{123, 0}";
},
{
name = top;
position = "{262, 560}";
}
);
background = {
anchors = (
{
name = bottom;
position = "{123, 0}";
},
{
name = top;
position = "{262, 560}";
}
);
paths = (
{
closed = 1;
nodes = (
"218 -8 OFFCURVE",
"308 73 OFFCURVE",
"308 169 CURVE SMOOTH",
"308 212 OFFCURVE",
"290 255 OFFCURVE",
"258 293 CURVE SMOOTH",
"181 382 LINE SMOOTH",
"161 406 OFFCURVE",
"151 429 OFFCURVE",
"151 454 CURVE SMOOTH",
"151 501 OFFCURVE",
"182 531 OFFCURVE",
"236 531 CURVE SMOOTH",
"300 531 OFFCURVE",
"305 485 OFFCURVE",
"306 466 CURVE SMOOTH",
"307 449 OFFCURVE",
"308 438 OFFCURVE",
"318 438 CURVE SMOOTH",
"324 438 OFFCURVE",
"329 442 OFFCURVE",
"334 450 CURVE SMOOTH",
"346 469 OFFCURVE",
"353 487 OFFCURVE",
"353 504 CURVE SMOOTH",
"353 547 OFFCURVE",
"313 568 OFFCURVE",
"261 568 CURVE SMOOTH",
"158 568 OFFCURVE",
"99 488 OFFCURVE",
"99 406 CURVE SMOOTH",
"99 368 OFFCURVE",
"111 346 OFFCURVE",
"127 327 CURVE SMOOTH",
"206 233 LINE SMOOTH",
"237 195 OFFCURVE",
"251 168 OFFCURVE",
"251 130 CURVE SMOOTH",
"251 68 OFFCURVE",
"214 32 OFFCURVE",
"159 32 CURVE SMOOTH",
"78 32 OFFCURVE",
"65 114 OFFCURVE",
"62 150 CURVE SMOOTH",
"62 152 OFFCURVE",
"61 155 OFFCURVE",
"58 155 CURVE SMOOTH",
"46 155 OFFCURVE",
"9 118 OFFCURVE",
"10 82 CURVE SMOOTH",
"12 50 OFFCURVE",
"47 -8 OFFCURVE",
"126 -8 CURVE SMOOTH"
);
}
);
};
layerId = "0B1DFD06-3317-40CA-B510-4969A0718C16";
paths = (
{
closed = 1;
nodes = (
"218 -8 OFFCURVE",
"308 73 OFFCURVE",
"308 169 CURVE SMOOTH",
"308 212 OFFCURVE",
"290 255 OFFCURVE",
"258 293 CURVE SMOOTH",
"181 382 LINE SMOOTH",
"161 406 OFFCURVE",
"151 429 OFFCURVE",
"151 454 CURVE SMOOTH",
"151 501 OFFCURVE",
"182 531 OFFCURVE",
"236 531 CURVE SMOOTH",
"300 531 OFFCURVE",
"305 485 OFFCURVE",
"306 466 CURVE SMOOTH",
"307 449 OFFCURVE",
"308 438 OFFCURVE",
"318 438 CURVE SMOOTH",
"324 438 OFFCURVE",
"329 442 OFFCURVE",
"334 450 CURVE SMOOTH",
"346 469 OFFCURVE",
"353 487 OFFCURVE",
"353 504 CURVE SMOOTH",
"353 547 OFFCURVE",
"313 568 OFFCURVE",
"261 568 CURVE SMOOTH",
"158 568 OFFCURVE",
"99 488 OFFCURVE",
"99 406 CURVE SMOOTH",
"99 368 OFFCURVE",
"111 346 OFFCURVE",
"127 327 CURVE SMOOTH",
"206 233 LINE SMOOTH",
"237 195 OFFCURVE",
"251 168 OFFCURVE",
"251 130 CURVE SMOOTH",
"251 68 OFFCURVE",
"214 32 OFFCURVE",
"159 32 CURVE SMOOTH",
"78 32 OFFCURVE",
"65 114 OFFCURVE",
"62 150 CURVE SMOOTH",
"62 152 OFFCURVE",
"61 155 OFFCURVE",
"58 155 CURVE SMOOTH",
"46 155 OFFCURVE",
"9 118 OFFCURVE",
"10 82 CURVE SMOOTH",
"12 50 OFFCURVE",
"47 -8 OFFCURVE",
"126 -8 CURVE SMOOTH"
);
}
);
width = 369;
}
);
leftKerningGroup = S;
note = S;
rightKerningGroup = S;
unicode = 0053;
},
{
glyphname = Germandbls;
layers = (
{
anchors = (
{
name = bottom;
position = "{225, 0}";
},
{
name = top;
position = "{322, 602}";
}
);
background = {
paths = (
{
closed = 1;
nodes = (
"332 -8 OFFCURVE",
"418 58 OFFCURVE",
"418 129 CURVE SMOOTH",
"418 161 OFFCURVE",
"401 194 OFFCURVE",
"371 235 CURVE SMOOTH",
"353 259 LINE SMOOTH",
"328 294 OFFCURVE",
"321 305 OFFCURVE",
"322 319 CURVE SMOOTH",
"323 334 OFFCURVE",
"330 350 OFFCURVE",
"354 382 CURVE SMOOTH",
"485 554 LINE",
"464 583 OFFCURVE",
"416 602 OFFCURVE",
"361 602 CURVE SMOOTH",
"236 602 OFFCURVE",
"143 502 OFFCURVE",
"113 340 CURVE SMOOTH",
"75 142 LINE SMOOTH",
"63 80 OFFCURVE",
"58 72 OFFCURVE",
"37 52 CURVE SMOOTH",
"25 40 OFFCURVE",
"12 26 OFFCURVE",
"12 10 CURVE SMOOTH",
"12 2 OFFCURVE",
"14 0 OFFCURVE",
"17 0 CURVE SMOOTH",
"25 0 OFFCURVE",
"41 13 OFFCURVE",
"68 13 CURVE SMOOTH",
"94 13 OFFCURVE",
"102 0 OFFCURVE",
"125 0 CURVE SMOOTH",
"145 0 OFFCURVE",
"164 10 OFFCURVE",
"188 42 CURVE SMOOTH",
"194 51 OFFCURVE",
"197 57 OFFCURVE",
"197 64 CURVE SMOOTH",
"197 69 OFFCURVE",
"196 71 OFFCURVE",
"192 71 CURVE SMOOTH",
"185 71 OFFCURVE",
"177 62 OFFCURVE",
"161 62 CURVE SMOOTH",
"151 62 OFFCURVE",
"144 64 OFFCURVE",
"134 69 CURVE",
"134 70 LINE",
"144 79 OFFCURVE",
"149 93 OFFCURVE",
"152 106 CURVE SMOOTH",
"201 366 LINE SMOOTH",
"229 508 OFFCURVE",
"258 542 OFFCURVE",
"334 542 CURVE SMOOTH",
"361 542 OFFCURVE",
"381 538 OFFCURVE",
"404 528 CURVE",
"296 380 LINE SMOOTH",
"260 331 OFFCURVE",
"248 313 OFFCURVE",
"248 286 CURVE SMOOTH",
"248 260 OFFCURVE",
"258 238 OFFCURVE",
"286 198 CURVE SMOOTH",
"303 174 LINE SMOOTH",
"327 140 OFFCURVE",
"341 118 OFFCURVE",
"341 90 CURVE SMOOTH",
"341 65 OFFCURVE",
"331 51 OFFCURVE",
"313 51 CURVE SMOOTH",
"297 51 OFFCURVE",
"286 61 OFFCURVE",
"271 76 CURVE SMOOTH",
"265 82 OFFCURVE",
"263 83 OFFCURVE",
"260 83 CURVE SMOOTH",
"255 83 OFFCURVE",
"251 80 OFFCURVE",
"245 74 CURVE SMOOTH",
"230 59 OFFCURVE",
"213 45 OFFCURVE",
"205 34 CURVE SMOOTH",
"197 24 OFFCURVE",
"202 19 OFFCURVE",
"212 12 CURVE SMOOTH",
"225 2 OFFCURVE",
"243 -8 OFFCURVE",
"268 -8 CURVE SMOOTH"
);
}
);
};
layerId = "56450C88-1299-454A-B666-E6F9AF06B23F";
paths = (
{
closed = 1;
nodes = (
"324 -8 OFFCURVE",
"410 58 OFFCURVE",
"410 129 CURVE SMOOTH",
"410 161 OFFCURVE",
"393 194 OFFCURVE",
"363 235 CURVE SMOOTH",
"345 259 LINE SMOOTH",
"320 294 OFFCURVE",
"313 305 OFFCURVE",
"314 319 CURVE SMOOTH",
"315 334 OFFCURVE",
"322 350 OFFCURVE",
"346 382 CURVE SMOOTH",
"477 554 LINE",
"456 583 OFFCURVE",
"408 602 OFFCURVE",
"353 602 CURVE SMOOTH",
"228 602 OFFCURVE",
"135 502 OFFCURVE",
"105 340 CURVE SMOOTH",
"67 142 LINE SMOOTH",
"55 80 OFFCURVE",
"50 72 OFFCURVE",
"29 52 CURVE SMOOTH",
"17 40 OFFCURVE",
"4 26 OFFCURVE",
"4 10 CURVE SMOOTH",
"4 2 OFFCURVE",
"6 0 OFFCURVE",
"9 0 CURVE SMOOTH",
"17 0 OFFCURVE",
"33 13 OFFCURVE",
"60 13 CURVE SMOOTH",
"86 13 OFFCURVE",
"94 0 OFFCURVE",
"117 0 CURVE SMOOTH",
"137 0 OFFCURVE",
"156 10 OFFCURVE",
"180 42 CURVE SMOOTH",
"186 51 OFFCURVE",
"189 57 OFFCURVE",
"189 64 CURVE SMOOTH",
"189 69 OFFCURVE",
"188 71 OFFCURVE",
"184 71 CURVE SMOOTH",
"177 71 OFFCURVE",
"169 62 OFFCURVE",
"153 62 CURVE SMOOTH",
"143 62 OFFCURVE",
"136 64 OFFCURVE",
"126 69 CURVE",
"126 70 LINE",
"136 79 OFFCURVE",
"141 93 OFFCURVE",
"144 106 CURVE SMOOTH",
"193 366 LINE SMOOTH",
"221 508 OFFCURVE",
"250 542 OFFCURVE",
"326 542 CURVE SMOOTH",
"353 542 OFFCURVE",
"373 538 OFFCURVE",
"396 528 CURVE",
"288 380 LINE SMOOTH",
"252 331 OFFCURVE",
"240 313 OFFCURVE",
"240 286 CURVE SMOOTH",
"240 260 OFFCURVE",
"250 238 OFFCURVE",
"278 198 CURVE SMOOTH",
"295 174 LINE SMOOTH",
"319 140 OFFCURVE",
"333 118 OFFCURVE",
"333 90 CURVE SMOOTH",
"333 65 OFFCURVE",
"323 51 OFFCURVE",
"305 51 CURVE SMOOTH",
"289 51 OFFCURVE",
"278 61 OFFCURVE",
"263 76 CURVE SMOOTH",
"257 82 OFFCURVE",
"255 83 OFFCURVE",
"252 83 CURVE SMOOTH",
"247 83 OFFCURVE",
"243 80 OFFCURVE",
"237 74 CURVE SMOOTH",
"222 59 OFFCURVE",
"205 45 OFFCURVE",
"197 34 CURVE SMOOTH",
"189 24 OFFCURVE",
"194 19 OFFCURVE",
"204 12 CURVE SMOOTH",
"217 2 OFFCURVE",
"235 -8 OFFCURVE",
"260 -8 CURVE SMOOTH"
);
}
);
width = 477;
},
{
anchors = (
{
name = bottom;
position = "{213, 0}";
},
{
name = top;
position = "{322, 594}";
}
);
background = {
paths = (
{
closed = 1;
nodes = (
"318 -8 OFFCURVE",
"384 56 OFFCURVE",
"384 122 CURVE SMOOTH",
"384 152 OFFCURVE",
"370 186 OFFCURVE",
"344 222 CURVE SMOOTH",
"326 246 LINE SMOOTH",
"303 278 OFFCURVE",
"293 293 OFFCURVE",
"293 308 CURVE SMOOTH",
"293 327 OFFCURVE",
"308 350 OFFCURVE",
"329 378 CURVE SMOOTH",
"457 555 LINE",
"443 576 OFFCURVE",
"397 594 OFFCURVE",
"348 594 CURVE SMOOTH",
"234 594 OFFCURVE",
"141 496 OFFCURVE",
"110 330 CURVE SMOOTH",
"75 142 LINE SMOOTH",
"62 74 OFFCURVE",
"72 84 OFFCURVE",
"29 41 CURVE SMOOTH",
"13 24 OFFCURVE",
"12 15 OFFCURVE",
"12 10 CURVE SMOOTH",
"12 3 OFFCURVE",
"13 0 OFFCURVE",
"16 0 CURVE SMOOTH",
"22 0 OFFCURVE",
"37 14 OFFCURVE",
"57 14 CURVE SMOOTH",
"77 14 OFFCURVE",
"96 0 OFFCURVE",
"112 0 CURVE SMOOTH",
"121 0 OFFCURVE",
"137 5 OFFCURVE",
"165 33 CURVE SMOOTH",
"173 42 OFFCURVE",
"175 46 OFFCURVE",
"175 50 CURVE SMOOTH",
"175 54 OFFCURVE",
"173 56 OFFCURVE",
"169 56 CURVE SMOOTH",
"162 56 OFFCURVE",
"154 47 OFFCURVE",
"137 47 CURVE SMOOTH",
"127 47 OFFCURVE",
"117 50 OFFCURVE",
"105 54 CURVE",
"105 55 LINE",
"113 64 OFFCURVE",
"119 76 OFFCURVE",
"121 89 CURVE SMOOTH",
"173 359 LINE SMOOTH",
"201 506 OFFCURVE",
"236 549 OFFCURVE",
"324 549 CURVE SMOOTH",
"350 549 OFFCURVE",
"369 545 OFFCURVE",
"398 530 CURVE",
"285 367 LINE SMOOTH",
"252 320 OFFCURVE",
"245 301 OFFCURVE",
"245 279 CURVE SMOOTH",
"245 252 OFFCURVE",
"256 229 OFFCURVE",
"279 195 CURVE SMOOTH",
"296 171 LINE SMOOTH",
"322 134 OFFCURVE",
"333 109 OFFCURVE",
"333 85 CURVE SMOOTH",
"333 54 OFFCURVE",
"316 35 OFFCURVE",
"285 35 CURVE SMOOTH",
"265 35 OFFCURVE",
"249 42 OFFCURVE",
"231 61 CURVE SMOOTH",
"227 65 OFFCURVE",
"226 66 OFFCURVE",
"225 66 CURVE SMOOTH",
"221 66 OFFCURVE",
"218 62 OFFCURVE",
"214 58 CURVE SMOOTH",
"206 50 OFFCURVE",
"181 29 OFFCURVE",
"176 21 CURVE SMOOTH",
"173 16 OFFCURVE",
"177 13 OFFCURVE",
"181 10 CURVE SMOOTH",
"195 0 OFFCURVE",
"221 -8 OFFCURVE",
"247 -8 CURVE SMOOTH"
);
}
);
};
layerId = "0B1DFD06-3317-40CA-B510-4969A0718C16";
paths = (
{
closed = 1;
nodes = (
"318 -8 OFFCURVE",
"384 56 OFFCURVE",
"384 122 CURVE SMOOTH",
"384 152 OFFCURVE",
"370 186 OFFCURVE",
"344 222 CURVE SMOOTH",
"326 246 LINE SMOOTH",
"303 278 OFFCURVE",
"293 293 OFFCURVE",
"293 308 CURVE SMOOTH",
"293 327 OFFCURVE",
"308 350 OFFCURVE",
"329 378 CURVE SMOOTH",
"457 555 LINE",
"443 576 OFFCURVE",
"397 594 OFFCURVE",
"348 594 CURVE SMOOTH",
"234 594 OFFCURVE",
"141 496 OFFCURVE",
"110 330 CURVE SMOOTH",
"75 142 LINE SMOOTH",
"62 74 OFFCURVE",
"72 84 OFFCURVE",
"29 41 CURVE SMOOTH",
"13 24 OFFCURVE",
"12 15 OFFCURVE",
"12 10 CURVE SMOOTH",
"12 3 OFFCURVE",
"13 0 OFFCURVE",
"16 0 CURVE SMOOTH",
"22 0 OFFCURVE",
"37 14 OFFCURVE",
"57 14 CURVE SMOOTH",
"77 14 OFFCURVE",
"96 0 OFFCURVE",
"112 0 CURVE SMOOTH",
"121 0 OFFCURVE",
"137 5 OFFCURVE",
"165 33 CURVE SMOOTH",
"173 42 OFFCURVE",
"175 46 OFFCURVE",
"175 50 CURVE SMOOTH",
"175 54 OFFCURVE",
"173 56 OFFCURVE",
"169 56 CURVE SMOOTH",
"162 56 OFFCURVE",
"154 47 OFFCURVE",
"137 47 CURVE SMOOTH",
"127 47 OFFCURVE",
"117 50 OFFCURVE",
"105 54 CURVE",
"105 55 LINE",
"113 64 OFFCURVE",
"119 76 OFFCURVE",
"121 89 CURVE SMOOTH",
"173 359 LINE SMOOTH",
"201 506 OFFCURVE",
"236 549 OFFCURVE",
"324 549 CURVE SMOOTH",
"350 549 OFFCURVE",
"369 545 OFFCURVE",
"398 530 CURVE",
"285 367 LINE SMOOTH",
"252 320 OFFCURVE",
"245 301 OFFCURVE",
"245 279 CURVE SMOOTH",
"245 252 OFFCURVE",
"256 229 OFFCURVE",
"279 195 CURVE SMOOTH",
"296 171 LINE SMOOTH",
"322 134 OFFCURVE",
"333 109 OFFCURVE",
"333 85 CURVE SMOOTH",
"333 54 OFFCURVE",
"316 35 OFFCURVE",
"285 35 CURVE SMOOTH",
"265 35 OFFCURVE",
"249 42 OFFCURVE",
"231 61 CURVE SMOOTH",
"227 65 OFFCURVE",
"226 66 OFFCURVE",
"225 66 CURVE SMOOTH",
"221 66 OFFCURVE",
"218 62 OFFCURVE",
"214 58 CURVE SMOOTH",
"206 50 OFFCURVE",
"181 29 OFFCURVE",
"176 21 CURVE SMOOTH",
"173 16 OFFCURVE",
"177 13 OFFCURVE",
"181 10 CURVE SMOOTH",
"195 0 OFFCURVE",
"221 -8 OFFCURVE",
"247 -8 CURVE SMOOTH"
);
}
);
width = 465;
}
);
leftKerningGroup = f;
note = uni1E9E;
rightKerningGroup = s;
unicode = 1E9E;
},
{
glyphname = Schwa;
layers = (
{
anchors = (
{
name = bottom;
position = "{136, 0}";
},
{
name = top;
position = "{264, 560}";
}
);
background = {
anchors = (
{
name = bottom;
position = "{144, 0}";
},
{
name = top;
position = "{272, 560}";
}
);
paths = (
{
closed = 1;
nodes = (
"278 -8 OFFCURVE",
"414 235 OFFCURVE",
"406 418 CURVE SMOOTH",
"402 511 OFFCURVE",
"362 568 OFFCURVE",
"287 568 CURVE SMOOTH",
"174 568 OFFCURVE",
"67 438 OFFCURVE",
"67 370 CURVE SMOOTH",
"67 361 OFFCURVE",
"69 354 OFFCURVE",
"77 354 CURVE SMOOTH",
"83 354 OFFCURVE",
"87 359 OFFCURVE",
"95 373 CURVE SMOOTH",
"130 434 OFFCURVE",
"187 506 OFFCURVE",
"246 506 CURVE SMOOTH",
"300 506 OFFCURVE",
"323 444 OFFCURVE",
"321 364 CURVE",
"186 318 OFFCURVE",
"50 202 OFFCURVE",
"50 86 CURVE SMOOTH",
"50 14 OFFCURVE",
"103 -8 OFFCURVE",
"143 -8 CURVE SMOOTH"
);
},
{
closed = 1;
nodes = (
"146 67 OFFCURVE",
"132 95 OFFCURVE",
"132 130 CURVE SMOOTH",
"132 223 OFFCURVE",
"232 285 OFFCURVE",
"288 285 CURVE SMOOTH",
"297 285 OFFCURVE",
"307 285 OFFCURVE",
"315 282 CURVE",
"302 187 OFFCURVE",
"235 67 OFFCURVE",
"175 67 CURVE SMOOTH"
);
}
);
};
layerId = "56450C88-1299-454A-B666-E6F9AF06B23F";
paths = (
{
closed = 1;
nodes = (
"270 -8 OFFCURVE",
"406 235 OFFCURVE",
"398 418 CURVE SMOOTH",
"394 511 OFFCURVE",
"354 568 OFFCURVE",
"279 568 CURVE SMOOTH",
"166 568 OFFCURVE",
"59 438 OFFCURVE",
"59 370 CURVE SMOOTH",
"59 361 OFFCURVE",
"61 354 OFFCURVE",
"69 354 CURVE SMOOTH",
"75 354 OFFCURVE",
"79 359 OFFCURVE",
"87 373 CURVE SMOOTH",
"122 434 OFFCURVE",
"179 506 OFFCURVE",
"238 506 CURVE SMOOTH",
"292 506 OFFCURVE",
"315 444 OFFCURVE",
"313 364 CURVE",
"178 318 OFFCURVE",
"42 202 OFFCURVE",
"42 86 CURVE SMOOTH",
"42 14 OFFCURVE",
"95 -8 OFFCURVE",
"135 -8 CURVE SMOOTH"
);
},
{
closed = 1;
nodes = (
"138 67 OFFCURVE",
"124 95 OFFCURVE",
"124 130 CURVE SMOOTH",
"124 223 OFFCURVE",
"224 285 OFFCURVE",
"280 285 CURVE SMOOTH",
"289 285 OFFCURVE",
"299 285 OFFCURVE",
"307 282 CURVE",
"294 187 OFFCURVE",
"227 67 OFFCURVE",
"167 67 CURVE SMOOTH"
);
}
);
width = 400;
},
{
anchors = (
{
name = bottom;
position = "{146, 0}";
},
{
name = top;
position = "{250, 560}";
}
);
background = {
anchors = (
{
name = bottom;
position = "{146, 0}";
},
{
name = top;
position = "{250, 560}";
}
);
paths = (
{
closed = 1;
nodes = (
"241 -7 OFFCURVE",
"385 245 OFFCURVE",
"378 426 CURVE SMOOTH",
"374 514 OFFCURVE",
"335 568 OFFCURVE",
"263 568 CURVE SMOOTH",
"151 568 OFFCURVE",
"60 439 OFFCURVE",
"60 378 CURVE SMOOTH",
"60 369 OFFCURVE",
"62 363 OFFCURVE",
"68 363 CURVE SMOOTH",
"74 363 OFFCURVE",
"78 370 OFFCURVE",
"82 379 CURVE SMOOTH",
"117 451 OFFCURVE",
"176 512 OFFCURVE",
"238 512 CURVE SMOOTH",
"292 512 OFFCURVE",
"325 466 OFFCURVE",
"307 355 CURVE",
"167 329 OFFCURVE",
"50 207 OFFCURVE",
"50 84 CURVE SMOOTH",
"50 19 OFFCURVE",
"82 -7 OFFCURVE",
"121 -7 CURVE SMOOTH"
);
},
{
closed = 1;
nodes = (
"120 54 OFFCURVE",
"107 78 OFFCURVE",
"107 118 CURVE SMOOTH",
"107 232 OFFCURVE",
"206 299 OFFCURVE",
"269 299 CURVE SMOOTH",
"276 299 OFFCURVE",
"289 298 OFFCURVE",
"298 296 CURVE",
"283 208 OFFCURVE",
"224 54 OFFCURVE",
"150 54 CURVE SMOOTH"
);
}
);
};
layerId = "0B1DFD06-3317-40CA-B510-4969A0718C16";
paths = (
{
closed = 1;
nodes = (
"241 -8 OFFCURVE",
"384 244 OFFCURVE",
"378 425 CURVE SMOOTH",
"375 513 OFFCURVE",
"335 568 OFFCURVE",
"263 568 CURVE SMOOTH",
"151 568 OFFCURVE",
"60 438 OFFCURVE",
"60 377 CURVE SMOOTH",
"60 368 OFFCURVE",
"62 362 OFFCURVE",
"68 362 CURVE SMOOTH",
"74 362 OFFCURVE",
"78 369 OFFCURVE",
"82 378 CURVE SMOOTH",
"115 451 OFFCURVE",
"176 512 OFFCURVE",
"238 512 CURVE SMOOTH",
"292 512 OFFCURVE",
"325 465 OFFCURVE",
"307 354 CURVE",
"167 328 OFFCURVE",
"50 206 OFFCURVE",
"50 83 CURVE SMOOTH",
"50 18 OFFCURVE",
"82 -8 OFFCURVE",
"121 -8 CURVE SMOOTH"
);
},
{
closed = 1;
nodes = (
"120 53 OFFCURVE",
"107 77 OFFCURVE",
"107 117 CURVE SMOOTH",
"107 231 OFFCURVE",
"206 298 OFFCURVE",
"269 298 CURVE SMOOTH",
"276 298 OFFCURVE",
"289 297 OFFCURVE",
"298 295 CURVE",
"283 207 OFFCURVE",
"224 53 OFFCURVE",
"150 53 CURVE SMOOTH"
);
}
);
width = 388;
}
);
note = uni018F;
unicode = 018F;
},
